<svg width="412" height="917" viewBox="0 0 412 917" fill="none" xmlns="http://www.w3.org/2000/svg">
    <g clip-path="url(#bahme85kka)">
        <path fill="url(#blbuccr39b)" d="M0 0h412v917H0z"/>
        <path d="M0 448h412" stroke="#fff" stroke-opacity=".2"/>
        <circle cx="206.5" cy="448.5" r="367" stroke="#fff" stroke-opacity=".15"/>
        <path opacity=".4" d="m277.613 78.885-12.022 20.823c-.221-.127-.432-.301-.554-.51l-.037-.056c-1.707-2.804-5.233-6.745-7.835-8.75l-.347-.27c-1.157-.875-1.495-2.63-.775-3.876l9.06-15.693c.893-1.545 2.828-1.987 4.298-.965 2.601 1.796 5.937 5.558 7.417 8.335l.212.382c.127.23.337.437.583.58z" fill="#fff"/>
        <path d="m291.076 85.567-9.052 15.679c-.72 1.247-2.408 1.831-3.745 1.267l-.459-.196c-3.05-1.258-8.247-2.336-11.536-2.399-.229.006-.459-.075-.693-.21l12.022-20.823c.247.142.532.22.794.215l.303-.015c3.153-.12 8.099.883 10.962 2.224l.078.045c1.621.763 2.226 2.654 1.326 4.213zM269.138 80.816l-2.923-1.688a1.132 1.132 0 0 1-.412-1.537 1.133 1.133 0 0 1 1.537-.412l2.923 1.688c.532.307.719 1.004.411 1.537a1.132 1.132 0 0 1-1.536.412zM267.862 85.275l-3.897-2.25a1.132 1.132 0 0 1-.412-1.537 1.133 1.133 0 0 1 1.537-.411l3.897 2.25c.532.307.719 1.004.412 1.536a1.134 1.134 0 0 1-1.537.412z" fill="#fff"/>
        <circle cx="206.5" cy="448.5" r="257" stroke="#fff" stroke-opacity=".1"/>
        <path opacity=".4" d="M382.493 645.187v7.986a6.669 6.669 0 0 1-6.666 6.667h-11.654a6.669 6.669 0 0 1-6.666-6.667v-7.893c1.013 1.093 2.453 1.72 4.013 1.72 1.68 0 3.293-.84 4.307-2.187.906 1.347 2.453 2.187 4.173 2.187 1.707 0 3.227-.8 4.147-2.133 1.026 1.32 2.613 2.133 4.266 2.133 1.614 0 3.08-.653 4.08-1.813z" fill="#fff"/>
        <path d="M373.987 631.667h-8L365 641.48c-.08.907.053 1.76.387 2.533.773 1.814 2.586 2.987 4.613 2.987 2.053 0 3.827-1.147 4.627-2.973.24-.574.386-1.24.4-1.92v-.254l-1.04-10.186z" fill="#fff"/>
        <path opacity=".6" d="m383.813 641.027-.386-3.694c-.56-4.026-2.387-5.666-6.294-5.666h-5.12l.987 10c.013.133.027.28.027.533.08.693.293 1.333.613 1.907.96 1.76 2.827 2.893 4.773 2.893 1.774 0 3.374-.787 4.374-2.173.8-1.067 1.16-2.414 1.026-3.8zM362.787 631.667c-3.92 0-5.734 1.64-6.307 5.706l-.36 3.667c-.133 1.427.253 2.813 1.093 3.893 1.014 1.32 2.574 2.067 4.307 2.067 1.947 0 3.813-1.133 4.76-2.867.347-.6.573-1.293.64-2.013l1.04-10.44h-5.173v-.013z" fill="#fff"/>
        <path d="M369.133 652.213c-1.693.174-2.973 1.614-2.973 3.32v4.307h7.667V656c.013-2.787-1.627-4.107-4.694-3.787zM347.362 218.725c-1.062-1.175-2.837-1.763-5.412-1.763h-.3v-.05c0-2.1 0-4.7-4.7-4.7h-1.9c-4.7 0-4.7 2.613-4.7 4.7v.063h-.3c-2.588 0-4.35.587-5.413 1.762-1.237 1.375-1.2 3.225-1.075 4.488l.013.087.125 1.313a.285.285 0 0 0 .062.05c.413.275.838.55 1.288.8.175.112.362.212.55.312a21.436 21.436 0 0 0 6.875 2.35c.112 1.175.625 2.55 3.362 2.55 2.738 0 3.275-1.362 3.363-2.575 2.55-.412 5.012-1.3 7.237-2.6.075-.037.125-.075.188-.112a15.875 15.875 0 0 0 1.637-1.063.15.15 0 0 0 .063-.062l.05-.45.062-.588c.013-.075.013-.137.025-.225.1-1.262.075-2.987-1.1-4.287zm-10 8.562c0 1.325 0 1.525-1.537 1.525-1.538 0-1.538-.237-1.538-1.512v-1.575h3.075v1.562zm-5.225-10.325v-.05c0-2.125 0-2.912 2.913-2.912h1.9c2.912 0 2.912.8 2.912 2.912v.063h-7.725v-.013z" fill="#fff"/>
        <path opacity=".4" d="m346.625 225.375-.187.113a21.299 21.299 0 0 1-7.238 2.6c-.1 1.2-.625 2.575-3.362 2.575-2.738 0-3.263-1.363-3.363-2.551a20.864 20.864 0 0 1-6.875-2.35c-.187-.1-.375-.2-.55-.312-.45-.25-.875-.525-1.287-.8-.025-.012-.05-.037-.063-.05l.763 8.138c.262 2.487 1.287 5.049 6.787 5.049h9.525c5.5 0 6.525-2.562 6.788-5.062l.787-8.475a.15.15 0 0 1-.062.063c-.538.387-1.088.75-1.663 1.062zM97.104 231.417l8.949-4.462a6.252 6.252 0 0 0 2.804-8.383l-5.579-11.186a6.253 6.253 0 0 0-8.382-2.804l-8.95 4.463a6.253 6.253 0 0 0-2.803 8.383l5.579 11.186a6.252 6.252 0 0 0 8.382 2.803z" fill="#fff"/>
        <path d="m95.847 209.29-6.712 3.347a2.356 2.356 0 0 0-1.054 3.152l.558 1.119a2.356 2.356 0 0 0 3.152 1.054l6.711-3.347a2.355 2.355 0 0 0 1.055-3.152l-.558-1.119a2.348 2.348 0 0 0-3.152-1.054zM93.334 223.408a1.26 1.26 0 0 1-.481.128 1.247 1.247 0 0 1-1.207-.683 1.24 1.24 0 0 1-.123-.469 1.247 1.247 0 0 1 1.164-1.335.694.694 0 0 1 .24.006c.085 0 .169.028.236.05.156.062.301.129.43.246.123.107.218.241.29.386a1.238 1.238 0 0 1-.55 1.671zM97.797 221.182c-.291.145-.626.173-.945.067a1.251 1.251 0 0 1-.732-.627 1.273 1.273 0 0 1-.06-.962c.207-.62.957-.994 1.577-.786.156.061.302.128.43.246.123.106.218.241.29.386a1.236 1.236 0 0 1-.56 1.676zM102.271 218.951a1.228 1.228 0 0 1-.945.066 1.246 1.246 0 0 1-.731-.627 1.273 1.273 0 0 1-.061-.961c.208-.621.957-.994 1.577-.787.319.107.587.336.732.627.073.145.112.308.123.47a1.242 1.242 0 0 1-.695 1.212zM95.565 227.883c-.302.15-.637.178-.956.071a1.246 1.246 0 0 1-.732-.626 1.272 1.272 0 0 1-.06-.962c.05-.151.134-.291.24-.413.224-.252.527-.402.862-.43a.694.694 0 0 1 .24.006c.084 0 .168.028.235.05.319.107.587.336.732.627.15.302.167.643.06.962-.106.318-.33.57-.621.715zM100.028 225.657c-.29.145-.626.173-.945.066a1.248 1.248 0 0 1-.731-.627c-.04-.078-.062-.151-.09-.235l-.033-.234v-.252c.017-.078.034-.156.062-.24a1.272 1.272 0 0 1 1.577-.787c.319.107.576.342.721.633.151.302.178.637.072.956-.051.15-.135.29-.241.413a1.248 1.248 0 0 1-.392.307zM104.503 223.426a1.258 1.258 0 0 1-.47.122 1.244 1.244 0 0 1-.475-.056 1.24 1.24 0 0 1-.721-.633 1.256 1.256 0 0 1-.071-.956c.146-.464.604-.804 1.102-.843.162-.011.324.006.475.057.318.106.575.341.72.632a1.235 1.235 0 0 1-.56 1.677z" fill="#fff"/>
        <path d="M206.5 268C107.365 268 27 348.589 27 448h359c0-99.411-80.365-180-179.5-180z" fill="#1938B7" fill-opacity=".13"/>
        <path d="M206.5 320C134.979 320 77 377.308 77 448h259c0-70.692-57.979-128-129.5-128z" fill="#1938B7" fill-opacity=".13"/>
        <path d="M131.667 708a2.334 2.334 0 1 0-.001-4.667 2.334 2.334 0 0 0 .001 4.667zM121 708a2.333 2.333 0 1 0 0-4.666 2.333 2.333 0 0 0 0 4.666z" fill="#fff"/>
        <path opacity=".4" d="m116.453 683.253-.266 3.267a1.057 1.057 0 0 0 1.066 1.147h20.414c.56 0 1.026-.427 1.066-.987.174-2.36-1.626-4.28-3.986-4.28h-16.36a3.63 3.63 0 0 0-.814-1.613 3.49 3.49 0 0 0-2.546-1.12h-2.36c-.547 0-1 .453-1 1 0 .546.453 1 1 1h2.32c.413 0 .8.173 1.08.466.28.307.413.707.386 1.12z" fill="#fff"/>
        <path d="M137.347 689.667h-20.454a1.07 1.07 0 0 0-1.066.973l-.48 5.8c-.187 2.267 1.6 4.227 3.88 4.227h14.826c2 0 3.76-1.64 3.907-3.64l.44-6.227a1.043 1.043 0 0 0-1.053-1.133z" fill="#fff"/>
        <g clip-path="url(#zsuq5fy6mc)">
            <g filter="url(#bgvb3nc6od)">
                <g clip-path="url(#crdtvxah8e)">
                    <path d="M284.454 372.251H127.546c-11.899 0-21.546 9.647-21.546 21.547v100.549c0 11.9 9.647 21.546 21.546 21.546h156.908c11.9 0 21.546-9.646 21.546-21.546V393.798c0-11.9-9.646-21.547-21.546-21.547z" fill="url(#wde99zu3gf)"/>
                    <path d="M206.508 372.252v144.014l-78.852.148a21.683 21.683 0 0 1-15.313-6.327A21.578 21.578 0 0 1 106 494.812V394.001a21.576 21.576 0 0 1 6.343-15.275 21.683 21.683 0 0 1 15.313-6.327l78.852-.147z" fill="url(#cqjygmdf8g)"/>
                    <path d="M131.65 454.879c-.502 0-.847-.312-.847-.758 0-.183.05-.395.178-.768l1.682-4.929c.301-.902.735-1.264 1.537-1.264.802 0 1.226.356 1.532 1.264l1.676 4.929c.101.312.151.535.151.729 0 .485-.345.797-.875.797-.49 0-.774-.267-.957-.897l-.29-.908h-2.556l-.296.908c-.183.646-.445.897-.935.897zm1.609-3.136h1.805l-.852-2.879h-.089l-.864 2.879zm10.721 2.156c0 .635-.323.974-.896.974-.58 0-.897-.351-.897-.98v-2.54c0-.685-.34-1.091-.925-1.091-.629 0-1.035.479-1.035 1.264v2.367c0 .629-.318.98-.892.98-.573 0-.896-.351-.896-.98v-4.127c0-.59.334-.947.874-.947.529 0 .836.301.863.864v.217h.09c.217-.68.902-1.12 1.748-1.12 1.253 0 1.966.763 1.966 2.106v3.013zm4.484.189c-.279.501-.858.796-1.565.796-1.164 0-1.95-.724-1.95-1.798 0-1.109.83-1.788 2.206-1.794h1.314v-.429c0-.501-.328-.768-.896-.768-.413 0-.713.167-1.031.395a1.107 1.107 0 0 1-.646.184c-.384 0-.618-.256-.618-.602 0-.362.245-.724.796-.985.396-.19.925-.307 1.616-.307 1.637 0 2.567.763 2.567 2.106v3.041c0 .612-.312.946-.869.946-.456 0-.768-.239-.841-.668v-.117h-.083zm-1.755-1.131c0 .418.34.708.825.708.523 0 .935-.351.935-.802v-.579h-.913c-.524 0-.847.256-.847.673zm10.281.942c0 .635-.323.974-.896.974-.579 0-.897-.351-.897-.98v-2.54c0-.685-.34-1.091-.924-1.091-.63 0-1.036.479-1.036 1.264v2.367c0 .629-.318.98-.891.98-.574 0-.897-.351-.897-.98v-4.127c0-.59.334-.947.874-.947.529 0 .836.301.864.864v.217h.089c.217-.68.902-1.12 1.748-1.12 1.254 0 1.966.763 1.966 2.106v3.013zm1.694-.68v-2.918h-.218c-.473 0-.74-.251-.74-.68 0-.428.267-.679.74-.679h.262v-.646c0-.613.312-.953.863-.953.557 0 .864.34.864.953v.646h.467c.474 0 .741.251.741.679 0 .429-.267.68-.741.68h-.445v2.645c0 .479.134.657.512.657.156 0 .251-.027.407-.027.278 0 .473.195.473.506a.722.722 0 0 1-.339.619c-.24.167-.591.256-1.042.256-1.236 0-1.804-.535-1.804-1.738zm9.451 1.643c-.345 0-.624-.172-.914-.573l-1.849-2.546-.701.713v1.426c0 .635-.323.991-.903.991-.595 0-.941-.367-.941-.991v-5.731c0-.635.329-.991.919-.991.591 0 .925.362.925.991v2.189h.1l2.556-2.779c.251-.273.463-.39.724-.39.457 0 .808.356.808.807 0 .229-.089.401-.334.669l-1.788 1.932 1.905 2.573c.295.396.378.585.378.841 0 .513-.362.869-.885.869zm5.012-.774c-.278.501-.857.796-1.565.796-1.164 0-1.949-.724-1.949-1.798 0-1.109.83-1.788 2.205-1.794h1.315v-.429c0-.501-.329-.768-.897-.768-.412 0-.713.167-1.03.395a1.11 1.11 0 0 1-.646.184c-.384 0-.618-.256-.618-.602 0-.362.245-.724.796-.985.395-.19.925-.307 1.615-.307 1.638 0 2.568.763 2.568 2.106v3.041c0 .612-.312.946-.869.946-.457 0-.769-.239-.841-.668v-.117h-.084zm-1.754-1.131c0 .418.34.708.824.708.524 0 .936-.351.936-.802v-.579h-.914c-.523 0-.846.256-.846.673zm4.338 3.197c0-.312.234-.54.574-.54.145 0 .245.028.44.033.301 0 .54-.178.641-.462.022-.05.061-.245.061-.312l-1.649-4.778a1.457 1.457 0 0 1-.078-.435c0-.479.374-.824.88-.824.49 0 .797.273.919.83l.958 3.77h.073l.991-3.77c.134-.563.423-.83.902-.83.49 0 .847.345.847.819 0 .128-.028.256-.089.44l-1.66 4.834c-.479 1.404-1.231 1.999-2.595 1.999-.463 0-.819-.105-1.02-.3a.653.653 0 0 1-.195-.474zm9.647-2.066c-.279.501-.858.796-1.565.796-1.164 0-1.95-.724-1.95-1.798 0-1.109.83-1.788 2.206-1.794h1.314v-.429c0-.501-.328-.768-.896-.768-.413 0-.713.167-1.031.395a1.107 1.107 0 0 1-.646.184c-.384 0-.618-.256-.618-.602 0-.362.245-.724.796-.985.396-.19.925-.307 1.616-.307 1.637 0 2.567.763 2.567 2.106v3.041c0 .612-.312.946-.869.946-.456 0-.768-.239-.841-.668v-.117h-.083zm-1.755-1.131c0 .418.34.708.825.708.523 0 .935-.351.935-.802v-.579h-.913c-.524 0-.847.256-.847.673zM136.701 457.986c.61 0 1.033.362 1.033.884a.78.78 0 0 1-.533.737l.46.719v.263h-.555l-.526-.88h-.503v.88h-.654v-2.603h1.278zm-.624.486v.788h.511c.281 0 .496-.153.496-.39 0-.252-.215-.398-.496-.398h-.511zm2.9.171c.588 0 .997.413.997 1.004 0 .069-.007.179-.018.23h-1.42c.065.212.222.347.438.347.182 0 .346-.088.398-.216h.467v.212c-.121.27-.482.442-.876.442-.617 0-1.041-.42-1.041-1.022 0-.588.431-.997 1.055-.997zm-.033.438c-.244 0-.405.186-.438.46h.884c-.004-.259-.186-.46-.446-.46zm1.335.61v-.471h1.497v.471h-1.497zm1.92.898v-1.873h.581v1.873h-.581zm-.044-2.431c0-.19.139-.325.333-.325.197 0 .335.135.335.325 0 .186-.138.321-.335.321-.194 0-.333-.135-.333-.321zm1.679.558v.227a.63.63 0 0 1 .548-.3c.27 0 .489.128.598.332.117-.204.369-.328.624-.328.424 0 .716.31.716.756v1.186h-.581v-1.062c0-.208-.131-.365-.328-.373-.201 0-.336.154-.336.373v1.062h-.58v-1.062c0-.223-.124-.373-.314-.373-.197 0-.325.15-.325.373v1.062h-.58v-1.873h.558zm3.869-.073c.61 0 1.048.424 1.048 1.011v.935h-.533v-.223a.794.794 0 0 1-.635.296c-.544 0-.92-.413-.92-1.008 0-.587.431-1.011 1.04-1.011zm.004.511c-.27 0-.464.208-.464.5 0 .289.194.497.464.497s.464-.208.464-.497c0-.292-.194-.5-.464-.5zm2.395-.511c.592 0 1.019.42 1.019 1v.968c0 .529-.409.89-1.008.89-.485 0-.89-.23-.992-.565v-.238h.514a.449.449 0 0 0 .457.365c.262 0 .449-.197.449-.474v-.179a.82.82 0 0 1-.541.204c-.54 0-.941-.412-.941-.971 0-.58.438-1 1.043-1zm-.003.511c-.27 0-.46.205-.46.5 0 .285.193.486.463.486.274 0 .46-.194.46-.486 0-.295-.186-.5-.463-.5zm1.465 1.435v-1.873h.58v1.873h-.58zm-.044-2.431c0-.19.139-.325.332-.325.197 0 .336.135.336.325 0 .186-.139.321-.336.321-.193 0-.332-.135-.332-.321zm2.259.485c.412 0 .712.325.712.77v1.176h-.581v-1.037c0-.233-.138-.398-.343-.398-.201 0-.347.161-.347.387v1.048h-.58v-1.873h.562v.256c.135-.201.332-.329.577-.329zm2.109 0c.588 0 .997.413.997 1.004 0 .069-.008.179-.018.23h-1.42c.065.212.222.347.438.347.182 0 .346-.088.397-.216h.468v.212c-.121.27-.482.442-.876.442-.617 0-1.041-.42-1.041-1.022 0-.588.431-.997 1.055-.997zm-.033.438c-.244 0-.405.186-.438.46h.884c-.004-.259-.186-.46-.446-.46zm2.331.073v-.438h.259v-.215c0-.42.245-.697.617-.697.128 0 .281.025.395.062v.474a.762.762 0 0 0-.198-.025c-.142 0-.233.102-.233.255v.146h.416v.438h-.416v1.435h-.581v-1.435h-.259zm2.191 1.508c-.412 0-.712-.325-.712-.77v-1.176h.581v1.037c0 .234.138.398.343.398.201 0 .347-.161.347-.387v-1.048h.58v1.873h-.562v-.256c-.135.201-.332.329-.577.329zm1.438-1.508v-.438h.259v-.401h.58v.401h.416v.438h-.416v.741c0 .154.092.256.234.256a.722.722 0 0 0 .197-.026v.478a1.37 1.37 0 0 1-.394.059c-.369 0-.617-.278-.617-.697v-.811h-.259zm2.28 1.508c-.412 0-.712-.325-.712-.77v-1.176h.581v1.037c0 .234.138.398.343.398.2 0 .347-.161.347-.387v-1.048h.58v1.873h-.562v-.256c-.135.201-.332.329-.577.329zm2.686-2.015c.15 0 .303.058.376.142v.526h-.285c-.033-.095-.138-.161-.252-.161-.186 0-.317.183-.317.446v.989h-.58v-1.873h.558v.241a.571.571 0 0 1 .5-.31zm1.566-.004c.588 0 .996.413.996 1.004 0 .069-.007.179-.018.23h-1.42c.066.212.223.347.438.347.183 0 .347-.088.398-.216h.467v.212c-.12.27-.481.442-.876.442-.617 0-1.04-.42-1.04-1.022 0-.588.431-.997 1.055-.997zm-.033.438c-.245 0-.405.186-.438.46h.883c-.003-.259-.186-.46-.445-.46zm2.857-.365.408 1.282.413-1.282h.496l.435 1.296.412-1.296h.504v.263l-.529 1.61h-.712l-.358-1.194-.354 1.194h-.712l-.529-1.61v-.263h.526zm2.993 1.873v-1.873h.58v1.873h-.58zm-.044-2.431c0-.19.139-.325.332-.325.197 0 .336.135.336.325 0 .186-.139.321-.336.321-.193 0-.332-.135-.332-.321zm.93.996v-.438h.26v-.401h.58v.401h.416v.438h-.416v.741c0 .154.091.256.234.256a.722.722 0 0 0 .197-.026v.478a1.375 1.375 0 0 1-.394.059c-.369 0-.617-.278-.617-.697v-.811h-.26zm2.737-.511c.423 0 .723.307.719.745v1.201h-.58v-1.037c.003-.233-.143-.398-.347-.398-.201 0-.343.161-.343.387v1.048h-.581v-2.712h.581v1.036a.675.675 0 0 1 .551-.27zm2.944 2.019c-.412 0-.711-.325-.711-.77v-1.176h.58v1.037c0 .234.139.398.343.398.201 0 .347-.161.347-.387v-1.048h.58v1.873h-.562v-.256c-.135.201-.332.329-.577.329zm2.365 0c-.387 0-.726-.172-.825-.416v-.238h.475c.025.15.179.252.376.252.19 0 .321-.087.321-.215 0-.354-1.219.047-1.219-.774 0-.369.35-.628.854-.628.405 0 .741.15.825.365v.216h-.471c-.011-.106-.153-.179-.343-.179-.179 0-.307.073-.307.182 0 .325 1.22-.029 1.22.756 0 .401-.373.679-.906.679z" fill="#fff"/>
                    <path d="M167.949 425.282v13.313a.713.713 0 0 1-.909.685l-9.071-2.592-6.416-1.782" stroke="url(#0ruknhxa2h)" stroke-width="2.139" stroke-linecap="round"/>
                    <path d="M151.553 434.906v6.371c0 .649.798.96 1.237.482l15.159-16.477" stroke="url(#9l8o9pjj7i)" stroke-width="2.139" stroke-linecap="round"/>
                    <path fill="#fff" fill-opacity=".15" d="M206.508 385.449H306v12.183h-99.492z"/>
                    <ellipse cx="112.593" cy="375.182" rx=".549" ry="1.831" fill="#fff" fill-opacity=".38"/>
                    <ellipse cx="112.593" cy="379.944" rx=".549" ry="1.831" fill="#fff" fill-opacity=".38"/>
                    <ellipse cx="112.593" cy="384.706" rx=".549" ry="1.831" fill="#fff" fill-opacity=".38"/>
                    <ellipse cx="112.593" cy="389.468" rx=".549" ry="1.831" fill="#fff" fill-opacity=".38"/>
                    <ellipse cx="112.593" cy="394.23" rx=".549" ry="1.831" fill="#fff" fill-opacity=".38"/>
                    <ellipse cx="112.593" cy="398.991" rx=".549" ry="1.831" fill="#fff" fill-opacity=".38"/>
                    <ellipse cx="112.593" cy="403.754" rx=".549" ry="1.831" fill="#fff" fill-opacity=".38"/>
                    <ellipse cx="112.593" cy="408.515" rx=".549" ry="1.831" fill="#fff" fill-opacity=".38"/>
                    <ellipse cx="112.593" cy="413.277" rx=".549" ry="1.831" fill="#fff" fill-opacity=".38"/>
                    <ellipse cx="112.593" cy="418.039" rx=".549" ry="1.831" fill="#fff" fill-opacity=".38"/>
                    <ellipse cx="112.593" cy="422.801" rx=".549" ry="1.831" fill="#fff" fill-opacity=".38"/>
                    <ellipse cx="112.593" cy="427.563" rx=".549" ry="1.831" fill="#fff" fill-opacity=".38"/>
                    <ellipse cx="112.593" cy="432.325" rx=".549" ry="1.831" fill="#fff" fill-opacity=".38"/>
                    <ellipse cx="112.593" cy="437.087" rx=".549" ry="1.831" fill="#fff" fill-opacity=".38"/>
                    <ellipse cx="112.593" cy="441.849" rx=".549" ry="1.831" fill="#fff" fill-opacity=".38"/>
                    <ellipse cx="112.593" cy="446.611" rx=".549" ry="1.831" fill="#fff" fill-opacity=".38"/>
                    <ellipse cx="112.593" cy="451.373" rx=".549" ry="1.831" fill="#fff" fill-opacity=".38"/>
                    <ellipse cx="112.593" cy="456.134" rx=".549" ry="1.831" fill="#fff" fill-opacity=".38"/>
                    <ellipse cx="112.593" cy="460.896" rx=".549" ry="1.831" fill="#fff" fill-opacity=".38"/>
                    <ellipse cx="112.593" cy="465.658" rx=".549" ry="1.831" fill="#fff" fill-opacity=".38"/>
                    <ellipse cx="112.593" cy="470.42" rx=".549" ry="1.831" fill="#fff" fill-opacity=".38"/>
                    <ellipse cx="112.593" cy="475.182" rx=".549" ry="1.831" fill="#fff" fill-opacity=".38"/>
                    <ellipse cx="112.593" cy="479.944" rx=".549" ry="1.831" fill="#fff" fill-opacity=".38"/>
                    <ellipse cx="112.593" cy="484.706" rx=".549" ry="1.831" fill="#fff" fill-opacity=".38"/>
                    <ellipse cx="112.593" cy="489.468" rx=".549" ry="1.831" fill="#fff" fill-opacity=".38"/>
                    <ellipse cx="112.593" cy="494.23" rx=".549" ry="1.831" fill="#fff" fill-opacity=".38"/>
                    <ellipse cx="112.593" cy="498.991" rx=".549" ry="1.831" fill="#fff" fill-opacity=".38"/>
                    <ellipse cx="112.593" cy="503.753" rx=".549" ry="1.831" fill="#fff" fill-opacity=".38"/>
                    <ellipse cx="112.593" cy="508.515" rx=".549" ry="1.831" fill="#fff" fill-opacity=".38"/>
                    <ellipse cx="112.593" cy="513.277" rx=".549" ry="1.831" fill="#fff" fill-opacity=".38"/>
                    <circle cx="115.89" cy="372.526" r=".549" fill="#fff" fill-opacity=".38"/>
                    <circle cx="115.89" cy="374.175" r=".549" fill="#fff" fill-opacity=".38"/>
                    <circle cx="115.89" cy="375.823" r=".549" fill="#fff" fill-opacity=".38"/>
                    <circle cx="115.89" cy="377.472" r=".549" fill="#fff" fill-opacity=".38"/>
                    <circle cx="115.89" cy="379.12" r=".549" fill="#fff" fill-opacity=".38"/>
                    <circle cx="115.89" cy="380.768" r=".549" fill="#fff" fill-opacity=".38"/>
                    <circle cx="115.89" cy="382.416" r=".549" fill="#fff" fill-opacity=".38"/>
                    <circle cx="115.89" cy="384.065" r=".549" fill="#fff" fill-opacity=".38"/>
                    <circle cx="115.89" cy="385.713" r=".549" fill="#fff" fill-opacity=".38"/>
                    <circle cx="115.89" cy="387.361" r=".549" fill="#fff" fill-opacity=".38"/>
                    <circle cx="115.89" cy="389.01" r=".549" fill="#fff" fill-opacity=".38"/>
                    <circle cx="115.89" cy="390.658" r=".549" fill="#fff" fill-opacity=".38"/>
                    <circle cx="115.89" cy="392.307" r=".549" fill="#fff" fill-opacity=".38"/>
                    <circle cx="115.89" cy="393.955" r=".549" fill="#fff" fill-opacity=".38"/>
                    <circle cx="115.89" cy="395.603" r=".549" fill="#fff" fill-opacity=".38"/>
                    <circle cx="115.89" cy="397.252" r=".549" fill="#fff" fill-opacity=".38"/>
                    <circle cx="115.89" cy="398.9" r=".549" fill="#fff" fill-opacity=".38"/>
                    <circle cx="115.89" cy="400.548" r=".549" fill="#fff" fill-opacity=".38"/>
                    <circle cx="115.89" cy="402.197" r=".549" fill="#fff" fill-opacity=".38"/>
                    <circle cx="115.89" cy="403.845" r=".549" fill="#fff" fill-opacity=".38"/>
                    <circle cx="115.89" cy="405.493" r=".549" fill="#fff" fill-opacity=".38"/>
                    <circle cx="115.89" cy="407.142" r=".549" fill="#fff" fill-opacity=".38"/>
                    <circle cx="115.89" cy="408.79" r=".549" fill="#fff" fill-opacity=".38"/>
                    <circle cx="115.89" cy="410.439" r=".549" fill="#fff" fill-opacity=".38"/>
                    <circle cx="115.89" cy="412.087" r=".549" fill="#fff" fill-opacity=".38"/>
                    <circle cx="115.89" cy="413.735" r=".549" fill="#fff" fill-opacity=".38"/>
                    <circle cx="115.89" cy="415.384" r=".549" fill="#fff" fill-opacity=".38"/>
                    <circle cx="115.89" cy="417.032" r=".549" fill="#fff" fill-opacity=".38"/>
                    <circle cx="115.89" cy="418.68" r=".549" fill="#fff" fill-opacity=".38"/>
                    <circle cx="115.89" cy="420.328" r=".549" fill="#fff" fill-opacity=".38"/>
                    <circle cx="115.89" cy="421.977" r=".549" fill="#fff" fill-opacity=".38"/>
                    <circle cx="115.89" cy="423.625" r=".549" fill="#fff" fill-opacity=".38"/>
                    <circle cx="115.89" cy="425.274" r=".549" fill="#fff" fill-opacity=".38"/>
                    <circle cx="115.89" cy="426.922" r=".549" fill="#fff" fill-opacity=".38"/>
                    <circle cx="115.89" cy="428.57" r=".549" fill="#fff" fill-opacity=".38"/>
                    <circle cx="115.89" cy="430.219" r=".549" fill="#fff" fill-opacity=".38"/>
                    <circle cx="115.89" cy="431.867" r=".549" fill="#fff" fill-opacity=".38"/>
                    <circle cx="115.89" cy="433.515" r=".549" fill="#fff" fill-opacity=".38"/>
                    <circle cx="115.89" cy="435.164" r=".549" fill="#fff" fill-opacity=".38"/>
                    <circle cx="115.89" cy="436.812" r=".549" fill="#fff" fill-opacity=".38"/>
                    <circle cx="115.89" cy="438.46" r=".549" fill="#fff" fill-opacity=".38"/>
                    <circle cx="115.89" cy="440.109" r=".549" fill="#fff" fill-opacity=".38"/>
                    <circle cx="115.89" cy="441.757" r=".549" fill="#fff" fill-opacity=".38"/>
                    <circle cx="115.89" cy="443.405" r=".549" fill="#fff" fill-opacity=".38"/>
                    <circle cx="115.89" cy="445.054" r=".549" fill="#fff" fill-opacity=".38"/>
                    <circle cx="115.89" cy="446.702" r=".549" fill="#fff" fill-opacity=".38"/>
                    <circle cx="115.89" cy="448.351" r=".549" fill="#fff" fill-opacity=".38"/>
                    <circle cx="115.89" cy="449.999" r=".549" fill="#fff" fill-opacity=".38"/>
                    <circle cx="115.89" cy="451.647" r=".549" fill="#fff" fill-opacity=".38"/>
                    <circle cx="115.89" cy="453.296" r=".549" fill="#fff" fill-opacity=".38"/>
                    <circle cx="115.89" cy="454.944" r=".549" fill="#fff" fill-opacity=".38"/>
                    <circle cx="115.89" cy="456.592" r=".549" fill="#fff" fill-opacity=".38"/>
                    <circle cx="115.89" cy="458.241" r=".549" fill="#fff" fill-opacity=".38"/>
                    <circle cx="115.89" cy="459.889" r=".549" fill="#fff" fill-opacity=".38"/>
                    <circle cx="115.89" cy="461.537" r=".549" fill="#fff" fill-opacity=".38"/>
                    <circle cx="115.89" cy="463.186" r=".549" fill="#fff" fill-opacity=".38"/>
                    <circle cx="115.89" cy="464.834" r=".549" fill="#fff" fill-opacity=".38"/>
                    <circle cx="115.89" cy="466.483" r=".549" fill="#fff" fill-opacity=".38"/>
                    <circle cx="115.89" cy="468.131" r=".549" fill="#fff" fill-opacity=".38"/>
                    <circle cx="115.89" cy="469.779" r=".549" fill="#fff" fill-opacity=".38"/>
                    <circle cx="115.89" cy="471.427" r=".549" fill="#fff" fill-opacity=".38"/>
                    <circle cx="115.89" cy="473.076" r=".549" fill="#fff" fill-opacity=".38"/>
                    <circle cx="115.89" cy="474.724" r=".549" fill="#fff" fill-opacity=".38"/>
                    <circle cx="115.89" cy="476.372" r=".549" fill="#fff" fill-opacity=".38"/>
                    <circle cx="115.89" cy="478.021" r=".549" fill="#fff" fill-opacity=".38"/>
                    <circle cx="115.89" cy="479.669" r=".549" fill="#fff" fill-opacity=".38"/>
                    <circle cx="115.89" cy="481.318" r=".549" fill="#fff" fill-opacity=".38"/>
                    <circle cx="115.89" cy="482.966" r=".549" fill="#fff" fill-opacity=".38"/>
                    <circle cx="115.89" cy="484.614" r=".549" fill="#fff" fill-opacity=".38"/>
                    <circle cx="115.89" cy="486.263" r=".549" fill="#fff" fill-opacity=".38"/>
                    <circle cx="115.89" cy="487.911" r=".549" fill="#fff" fill-opacity=".38"/>
                    <circle cx="115.89" cy="489.559" r=".549" fill="#fff" fill-opacity=".38"/>
                    <circle cx="115.89" cy="491.208" r=".549" fill="#fff" fill-opacity=".38"/>
                    <circle cx="115.89" cy="492.856" r=".549" fill="#fff" fill-opacity=".38"/>
                    <circle cx="115.89" cy="494.505" r=".549" fill="#fff" fill-opacity=".38"/>
                    <circle cx="115.89" cy="496.153" r=".549" fill="#fff" fill-opacity=".38"/>
                    <circle cx="115.89" cy="497.801" r=".549" fill="#fff" fill-opacity=".38"/>
                    <circle cx="115.89" cy="499.449" r=".549" fill="#fff" fill-opacity=".38"/>
                    <circle cx="115.89" cy="501.098" r=".549" fill="#fff" fill-opacity=".38"/>
                    <circle cx="115.89" cy="502.746" r=".549" fill="#fff" fill-opacity=".38"/>
                    <circle cx="115.89" cy="504.395" r=".549" fill="#fff" fill-opacity=".38"/>
                    <circle cx="115.89" cy="506.043" r=".549" fill="#fff" fill-opacity=".38"/>
                    <circle cx="115.89" cy="507.691" r=".549" fill="#fff" fill-opacity=".38"/>
                    <circle cx="115.89" cy="509.339" r=".549" fill="#fff" fill-opacity=".38"/>
                    <circle cx="115.89" cy="510.988" r=".549" fill="#fff" fill-opacity=".38"/>
                    <circle cx="115.89" cy="512.636" r=".549" fill="#fff" fill-opacity=".38"/>
                    <circle cx="115.89" cy="514.285" r=".549" fill="#fff" fill-opacity=".38"/>
                    <circle cx="115.89" cy="515.933" r=".549" fill="#fff" fill-opacity=".38"/>
                    <g filter="url(#trs0yoab9j)" shape-rendering="crispEdges">
                        <path d="m253.182 449.447-10.755-12.283h6.988c1.165 0 2.102-.254 2.812-.764.709-.528 1.146-1.198 1.31-2.009h-11.11v-3.057h11.11c-.164-.83-.601-1.5-1.31-2.009-.71-.51-1.647-.764-2.812-.764h-6.988v-4.585h20.977v3.056h-7.219a6.97 6.97 0 0 1 1.474 1.981c.364.717.582 1.491.655 2.321h5.09v3.057h-5.09c-.128 1.792-.728 3.283-1.802 4.471-1.055 1.17-2.311 1.963-3.767 2.378l-.71.198 7.016 8.009h-5.869z" fill="url(#x1urjhucuk)"/>
                        <path d="M263.911 423.468v4.072h-6.582c.302.389.563.803.781 1.243.326.641.542 1.323.652 2.043h5.149v4.072h-5.136c-.201 1.687-.825 3.13-1.886 4.305l-.001-.001c-1.102 1.221-2.417 2.059-3.942 2.506l6.487 7.405.737.842h-7.219l-.151-.173-10.755-12.283-.737-.843h8.107c1.088 0 1.909-.237 2.507-.663a2.86 2.86 0 0 0 .916-1.095h-10.919v-4.072h10.925a2.69 2.69 0 0 0-.913-1.089c-.599-.43-1.423-.669-2.516-.669h-7.496v-5.6h21.992z" stroke="#fff" stroke-opacity=".01" stroke-width="1.015"/>
                    </g>
                    <path d="M226.401 413.875a608.541 608.541 0 0 0-1.748 31.11c-.301 6.942 4.43 13.828 11.129 16.07 1.8.628 3.704.938 5.602.923a607.697 607.697 0 0 0 44.595-2.009 607.697 607.697 0 0 0-44.595-2.01 13.332 13.332 0 0 1-4.265-.739c-5.072-1.714-8.847-6.743-8.97-12.235a608.541 608.541 0 0 0-1.748-31.11z" fill="url(#pckd1720jl)"/>
                    <path d="M225.803 470.687c0 .824-.565 1.305-1.465 1.305-1.015 0-1.71-.534-2.366-2.19l.824-.405c.451 1.175.847 1.717 1.412 1.717.366 0 .588-.183.588-.534 0-.214-.099-.404-.267-.572a4.127 4.127 0 0 1-.733.114l-.145-.786c.786-.084 1.007-.252 1.007-.542 0-.251-.183-.381-.48-.381a1.82 1.82 0 0 0-.916.259l-.29-.809c.381-.198.824-.32 1.335-.32.977 0 1.382.519 1.382 1.198 0 .359-.138.664-.397.893.168.023.351.038.557.038.267 0 .519-.031.763-.107v-1.091h-.481v-.855h2.251v.855h-.709v3.892h-1.061v-1.939a2.515 2.515 0 0 1-.824.046c.007.069.015.138.015.214zm2.461-3.068h4.808v.855h-.702v3.892h-1.068v-1.992h-1.13v.168c0 .45-.191.656-.534.656-.504 0-1.137-.679-1.137-1.183 0-.297.13-.496.595-.496h2.206v-1.045h-3.038v-.855zm2.978-1.129c0-.336.252-.595.596-.595a.58.58 0 0 1 .587.595.582.582 0 0 1-.587.603.584.584 0 0 1-.596-.603zm5.861 1.984v3.892h-1.068v-2.221h-.969c-.504 0-.771.183-.771.58 0 .382.275.725.793 1.206l-.786.61c-.679-.664-1.076-1.228-1.076-1.938 0-.893.603-1.313 1.695-1.313h1.114v-.816h-3.076v-.855h4.846v.855h-.702zm6.213 2.213c0 .824-.565 1.305-1.466 1.305-1.014 0-1.709-.534-2.365-2.19l.824-.405c.45 1.175.847 1.717 1.412 1.717.366 0 .587-.183.587-.534 0-.214-.099-.404-.267-.572a4.101 4.101 0 0 1-.732.114l-.145-.786c.786-.084 1.007-.252 1.007-.542 0-.251-.183-.381-.481-.381-.305 0-.61.084-.916.259l-.289-.809c.381-.198.824-.32 1.335-.32.977 0 1.381.519 1.381 1.198 0 .359-.137.664-.397.893.168.023.351.038.557.038.267 0 .519-.031.764-.107v-1.091h-.481v-.855h4.494v.855h-.702v3.892h-1.068v-3.892h-1.183v3.892h-1.06v-1.939a2.515 2.515 0 0 1-.825.046c.008.069.016.138.016.214zm9.672-3.068v.855h-.71v3.892h-1.061v-1.084c-.282.16-.61.252-1.022.252-1.107 0-1.763-.641-2.007-1.908.725-.122 1.038-.32 1.038-.664a.672.672 0 0 0-.214-.488h-.984v-.855h4.96zm-3.594 2.511c.129.351.381.549.808.549.405 0 .748-.191 1.015-.465v-1.74h-1.137c.138.206.206.42.206.649 0 .518-.305.808-.892 1.007zm3.409 3.031a3.1 3.1 0 0 0 .376-.758 3.03 3.03 0 0 0 .148-.991h.891c0 .332-.041.645-.122.938-.078.293-.2.563-.366.811h-.927zm3.191-5.542h4.579v.855h-.763c.106.153.16.343.16.565 0 .328-.138.61-.389.824.427.389.595.763.595 1.205 0 .809-.618 1.298-1.534 1.298-1.084 0-1.824-.542-2.45-2.32l.855-.389c.435 1.266.84 1.831 1.442 1.831.374 0 .611-.206.611-.557 0-.267-.107-.496-.328-.694a4.229 4.229 0 0 1-.74.107l-.153-.825c.725-.053 1.022-.19 1.022-.572a.62.62 0 0 0-.221-.473h-2.686v-.855zm6.173 4.93c-.412 0-.992-.153-1.015-.611-.015-.221.077-.381.473-.633l1.939-1.244v-.168h-1.42v.214c0 .381-.19.58-.496.58-.458 0-1.007-.618-1.007-1.068 0-.298.153-.504.679-.504h2.244v-.641h-3.205v-.855h4.975v.855h-.71v3.892h-1.06v-1.412l-.954.633.099.161c.092.145.137.251.13.381 0 .252-.252.412-.672.42zm7.196-4.075v3.892h-1.068v-2.221h-.969c-.504 0-.771.183-.771.58 0 .382.275.725.794 1.206l-.786.61c-.679-.664-1.076-1.228-1.076-1.938 0-.893.603-1.313 1.694-1.313h1.114v-.816h-3.075v-.855h4.846v.855h-.703zm3.832 0v3.892h-1.068v-3.892h-.588v-.855h.565a1.574 1.574 0 0 1-.214-.778c0-.824.664-1.313 1.771-1.313 1.701 0 3.006.916 3.769 2.145h-1.045c-.565-.741-1.458-1.29-2.472-1.29-.634 0-.954.267-.954.702 0 .198.068.374.168.534h.77v.855h-.702zm3.228 3.503c.221-.145.351-.313.351-.496 0-.237-.199-.413-.664-.413-.55 0-.847.222-.847.588 0 .458.511.733 1.679 1.122l-.451.832c-1.549-.443-2.289-1.069-2.289-1.939 0-.427.153-.748.42-.976-.29-.252-.428-.527-.428-.825 0-.618.474-.954 1.328-.954h.939v-.442h-2.679v-.855h4.434v.855h-.702v1.259h-1.832c-.305 0-.442.107-.442.298 0 .106.053.206.16.297.229-.053.489-.084.763-.084 1.175 0 1.664.557 1.664 1.198 0 .397-.16.725-.534 1.038l-.87-.503zm3.795.564c-.839-.832-1.381-1.495-1.633-1.953-.168-.283-.229-.504-.229-.702 0-.321.191-.542.573-.542.244 0 .442.107.626.267.145-.168.206-.374.206-.633 0-.184-.031-.359-.092-.504h-1.564v-.855h5.746v.855h-.702v3.892h-1.069v-1.725a3.838 3.838 0 0 1-.686.061c-.42 0-.878-.084-1.313-.313a2.272 2.272 0 0 1-.389.214c.351.412.824.855 1.312 1.297l-.786.641zm1.176-2.701c.236 0 .465-.023.686-.076v-1.29h-1.35c.061.183.091.374.091.618 0 .259-.061.481-.16.664.237.061.458.084.733.084zm4-1.366v3.892h-1.068v-3.892h-.588v-.855h2.358v.855h-.702zm5.418 0h-.702v3.892h-1.061v-.901c-.305.161-.664.244-1.106.244-1.046 0-1.694-.541-1.694-1.411 0-.916.671-1.389 1.709-1.389.328 0 .603.03.855.091l-.084.779a2.988 2.988 0 0 0-.634-.069h-.061l.748.946c.099-.068.191-.145.267-.221v-1.961h-3.067v-.855h4.83v.855zm-3.564 1.854c0 .397.29.58.733.58.084 0 .168-.007.244-.023l-.786-.992a.532.532 0 0 0-.191.435z" fill="#fff"/>
                    <circle cx="118.97" cy="372.526" r=".549" fill="#fff" fill-opacity=".38"/>
                    <circle cx="118.97" cy="374.175" r=".549" fill="#fff" fill-opacity=".38"/>
                    <circle cx="118.97" cy="375.823" r=".549" fill="#fff" fill-opacity=".38"/>
                    <circle cx="118.97" cy="377.472" r=".549" fill="#fff" fill-opacity=".38"/>
                    <circle cx="118.97" cy="379.12" r=".549" fill="#fff" fill-opacity=".38"/>
                    <circle cx="118.97" cy="380.768" r=".549" fill="#fff" fill-opacity=".38"/>
                    <circle cx="118.97" cy="382.416" r=".549" fill="#fff" fill-opacity=".38"/>
                    <circle cx="118.97" cy="384.065" r=".549" fill="#fff" fill-opacity=".38"/>
                    <circle cx="118.97" cy="385.713" r=".549" fill="#fff" fill-opacity=".38"/>
                    <circle cx="118.97" cy="387.361" r=".549" fill="#fff" fill-opacity=".38"/>
                    <circle cx="118.97" cy="389.01" r=".549" fill="#fff" fill-opacity=".38"/>
                    <circle cx="118.97" cy="390.658" r=".549" fill="#fff" fill-opacity=".38"/>
                    <circle cx="118.97" cy="392.307" r=".549" fill="#fff" fill-opacity=".38"/>
                    <circle cx="118.97" cy="393.955" r=".549" fill="#fff" fill-opacity=".38"/>
                    <circle cx="118.97" cy="395.603" r=".549" fill="#fff" fill-opacity=".38"/>
                    <circle cx="118.97" cy="397.252" r=".549" fill="#fff" fill-opacity=".38"/>
                    <circle cx="118.97" cy="398.9" r=".549" fill="#fff" fill-opacity=".38"/>
                    <circle cx="118.97" cy="400.548" r=".549" fill="#fff" fill-opacity=".38"/>
                    <circle cx="118.97" cy="402.197" r=".549" fill="#fff" fill-opacity=".38"/>
                    <circle cx="118.97" cy="403.845" r=".549" fill="#fff" fill-opacity=".38"/>
                    <circle cx="118.97" cy="405.493" r=".549" fill="#fff" fill-opacity=".38"/>
                    <circle cx="118.97" cy="407.142" r=".549" fill="#fff" fill-opacity=".38"/>
                    <circle cx="118.97" cy="408.79" r=".549" fill="#fff" fill-opacity=".38"/>
                    <circle cx="118.97" cy="410.439" r=".549" fill="#fff" fill-opacity=".38"/>
                    <circle cx="118.97" cy="412.087" r=".549" fill="#fff" fill-opacity=".38"/>
                    <circle cx="118.97" cy="413.735" r=".549" fill="#fff" fill-opacity=".38"/>
                    <circle cx="118.97" cy="415.384" r=".549" fill="#fff" fill-opacity=".38"/>
                    <circle cx="118.97" cy="417.032" r=".549" fill="#fff" fill-opacity=".38"/>
                    <circle cx="118.97" cy="418.68" r=".549" fill="#fff" fill-opacity=".38"/>
                    <circle cx="118.97" cy="420.328" r=".549" fill="#fff" fill-opacity=".38"/>
                    <circle cx="118.97" cy="421.977" r=".549" fill="#fff" fill-opacity=".38"/>
                    <circle cx="118.97" cy="423.625" r=".549" fill="#fff" fill-opacity=".38"/>
                    <circle cx="118.97" cy="425.274" r=".549" fill="#fff" fill-opacity=".38"/>
                    <circle cx="118.97" cy="426.922" r=".549" fill="#fff" fill-opacity=".38"/>
                    <circle cx="118.97" cy="428.57" r=".549" fill="#fff" fill-opacity=".38"/>
                    <circle cx="118.97" cy="430.219" r=".549" fill="#fff" fill-opacity=".38"/>
                    <circle cx="118.97" cy="431.867" r=".549" fill="#fff" fill-opacity=".38"/>
                    <circle cx="118.97" cy="433.515" r=".549" fill="#fff" fill-opacity=".38"/>
                    <circle cx="118.97" cy="435.164" r=".549" fill="#fff" fill-opacity=".38"/>
                    <circle cx="118.97" cy="436.812" r=".549" fill="#fff" fill-opacity=".38"/>
                    <circle cx="118.97" cy="438.46" r=".549" fill="#fff" fill-opacity=".38"/>
                    <circle cx="118.97" cy="440.109" r=".549" fill="#fff" fill-opacity=".38"/>
                    <circle cx="118.97" cy="441.757" r=".549" fill="#fff" fill-opacity=".38"/>
                    <circle cx="118.97" cy="443.405" r=".549" fill="#fff" fill-opacity=".38"/>
                    <circle cx="118.97" cy="445.054" r=".549" fill="#fff" fill-opacity=".38"/>
                    <circle cx="118.97" cy="446.702" r=".549" fill="#fff" fill-opacity=".38"/>
                    <circle cx="118.97" cy="448.351" r=".549" fill="#fff" fill-opacity=".38"/>
                    <circle cx="118.97" cy="449.999" r=".549" fill="#fff" fill-opacity=".38"/>
                    <circle cx="118.97" cy="451.647" r=".549" fill="#fff" fill-opacity=".38"/>
                    <circle cx="118.97" cy="453.296" r=".549" fill="#fff" fill-opacity=".38"/>
                    <circle cx="118.97" cy="454.944" r=".549" fill="#fff" fill-opacity=".38"/>
                    <circle cx="118.97" cy="456.592" r=".549" fill="#fff" fill-opacity=".38"/>
                    <circle cx="118.97" cy="458.241" r=".549" fill="#fff" fill-opacity=".38"/>
                    <circle cx="118.97" cy="459.889" r=".549" fill="#fff" fill-opacity=".38"/>
                    <circle cx="118.97" cy="461.537" r=".549" fill="#fff" fill-opacity=".38"/>
                    <circle cx="118.97" cy="463.186" r=".549" fill="#fff" fill-opacity=".38"/>
                    <circle cx="118.97" cy="464.834" r=".549" fill="#fff" fill-opacity=".38"/>
                    <circle cx="118.97" cy="466.483" r=".549" fill="#fff" fill-opacity=".38"/>
                    <circle cx="118.97" cy="468.131" r=".549" fill="#fff" fill-opacity=".38"/>
                    <circle cx="118.97" cy="469.779" r=".549" fill="#fff" fill-opacity=".38"/>
                    <circle cx="118.97" cy="471.427" r=".549" fill="#fff" fill-opacity=".38"/>
                    <circle cx="118.97" cy="473.076" r=".549" fill="#fff" fill-opacity=".38"/>
                    <circle cx="118.97" cy="474.724" r=".549" fill="#fff" fill-opacity=".38"/>
                    <circle cx="118.97" cy="476.372" r=".549" fill="#fff" fill-opacity=".38"/>
                    <circle cx="118.97" cy="478.021" r=".549" fill="#fff" fill-opacity=".38"/>
                    <circle cx="118.97" cy="479.669" r=".549" fill="#fff" fill-opacity=".38"/>
                    <circle cx="118.97" cy="481.318" r=".549" fill="#fff" fill-opacity=".38"/>
                    <circle cx="118.97" cy="482.966" r=".549" fill="#fff" fill-opacity=".38"/>
                    <circle cx="118.97" cy="484.614" r=".549" fill="#fff" fill-opacity=".38"/>
                    <circle cx="118.97" cy="486.263" r=".549" fill="#fff" fill-opacity=".38"/>
                    <circle cx="118.97" cy="487.911" r=".549" fill="#fff" fill-opacity=".38"/>
                    <circle cx="118.97" cy="489.559" r=".549" fill="#fff" fill-opacity=".38"/>
                    <circle cx="118.97" cy="491.208" r=".549" fill="#fff" fill-opacity=".38"/>
                    <circle cx="118.97" cy="492.856" r=".549" fill="#fff" fill-opacity=".38"/>
                    <circle cx="118.97" cy="494.505" r=".549" fill="#fff" fill-opacity=".38"/>
                    <circle cx="118.97" cy="496.153" r=".549" fill="#fff" fill-opacity=".38"/>
                    <circle cx="118.97" cy="497.801" r=".549" fill="#fff" fill-opacity=".38"/>
                    <circle cx="118.97" cy="499.449" r=".549" fill="#fff" fill-opacity=".38"/>
                    <circle cx="118.97" cy="501.098" r=".549" fill="#fff" fill-opacity=".38"/>
                    <circle cx="118.97" cy="502.746" r=".549" fill="#fff" fill-opacity=".38"/>
                    <circle cx="118.97" cy="504.395" r=".549" fill="#fff" fill-opacity=".38"/>
                    <circle cx="118.97" cy="506.043" r=".549" fill="#fff" fill-opacity=".38"/>
                    <circle cx="118.97" cy="507.691" r=".549" fill="#fff" fill-opacity=".38"/>
                    <circle cx="118.97" cy="509.339" r=".549" fill="#fff" fill-opacity=".38"/>
                    <circle cx="118.97" cy="510.988" r=".549" fill="#fff" fill-opacity=".38"/>
                    <circle cx="118.97" cy="512.636" r=".549" fill="#fff" fill-opacity=".38"/>
                    <circle cx="118.97" cy="514.285" r=".549" fill="#fff" fill-opacity=".38"/>
                    <circle cx="118.97" cy="515.933" r=".549" fill="#fff" fill-opacity=".38"/>
                </g>
                <rect x="106.508" y="372.759" width="198.985" height="142.627" rx="21.47" stroke="url(#ca82tggnmm)" stroke-width="1.015" shape-rendering="crispEdges"/>
            </g>
            <path d="m121.008 585.894 12.656-36.96h11.76l12.656 36.96h-8.736l-9.352-30.576h-.84l-9.408 30.576h-8.736zm7.112-7.28v-5.488h24.024v5.488H128.12zm43.552 8.064c-3.435 0-6.03-1.158-7.784-3.472-1.718-2.352-2.576-5.918-2.576-10.696v-16.016h8.064v15.008c0 2.874.429 5.021 1.288 6.44.858 1.381 2.165 2.072 3.92 2.072 1.045 0 1.96-.262 2.744-.784.784-.523 1.456-1.251 2.016-2.184.56-.934.97-2.035 1.232-3.304.298-1.27.466-2.632.504-4.088v-13.16h8.064v29.4h-6.496l-.056-9.184h-1.008c-.56 2.314-1.27 4.218-2.128 5.712-.822 1.456-1.886 2.538-3.192 3.248-1.27.672-2.8 1.008-4.592 1.008zm24.868-.784v-40.04h7.952v22.232a36.837 36.837 0 0 0 3.304-2.52 26.948 26.948 0 0 0 2.912-2.912 24.997 24.997 0 0 0 2.352-3.08 24.385 24.385 0 0 0 1.792-3.08h9.24c-.56 1.418-1.307 2.856-2.24 4.312a21.684 21.684 0 0 1-3.248 3.976c-1.232 1.194-2.67 2.221-4.312 3.08-1.643.858-3.454 1.437-5.432 1.736v.952c2.501-.448 4.573-.411 6.216.112 1.642.522 2.986 1.362 4.032 2.52a12.775 12.775 0 0 1 2.576 3.92 64.253 64.253 0 0 1 1.736 4.424l1.288 4.368h-8.792l-.728-2.744c-.523-1.83-1.102-3.435-1.736-4.816-.635-1.382-1.475-2.446-2.52-3.192-1.008-.784-2.408-1.176-4.2-1.176h-2.24v11.928h-7.952zm48.598.448-1.904-4.648c-.523-1.307-1.083-2.427-1.68-3.36-.56-.971-1.288-1.718-2.184-2.24-.896-.523-2.128-.784-3.696-.784h-7.896v-5.88h7.28c.746 0 1.586-.038 2.52-.112a7.826 7.826 0 0 0 2.744-.84c.896-.448 1.624-1.195 2.184-2.24.56-1.083.84-2.576.84-4.48 0-1.344-.187-2.446-.56-3.304-.374-.859-.859-1.512-1.456-1.96a5.158 5.158 0 0 0-1.96-1.008 8.417 8.417 0 0 0-2.072-.392 31.272 31.272 0 0 0-1.736-.056v-1.96l10.808.112v2.632c1.306.224 2.352.672 3.136 1.344.784.672 1.344 1.437 1.68 2.296.336.821.504 1.717.504 2.688 0 1.306-.206 2.501-.616 3.584-.374 1.045-.99 1.997-1.848 2.856-.822.821-1.923 1.493-3.304 2.016-1.344.485-2.987.84-4.928 1.064v.784c2.277.112 4.088.597 5.432 1.456 1.344.821 2.408 1.885 3.192 3.192a34.37 34.37 0 0 1 2.128 4.032l2.296 5.208h-8.904zm-17.36-21.896v-4.256h28.448v4.256h-28.448zm0-9.408v-6.104h28.448v6.104h-28.448zm41.22 31.64c-1.643 0-3.099-.318-4.368-.952a7.29 7.29 0 0 1-2.968-2.856c-.709-1.232-1.064-2.763-1.064-4.592 0-1.606.299-2.95.896-4.032.635-1.083 1.549-1.96 2.744-2.632 1.195-.672 2.669-1.232 4.424-1.68 1.755-.448 3.752-.84 5.992-1.176a73.768 73.768 0 0 0 2.912-.504c.784-.187 1.363-.467 1.736-.84.373-.411.56-.99.56-1.736 0-1.046-.373-1.942-1.12-2.688-.747-.747-1.923-1.12-3.528-1.12a8.051 8.051 0 0 0-3.024.56 6.49 6.49 0 0 0-2.352 1.68c-.635.746-1.101 1.698-1.4 2.856l-7.112-2.184c.448-1.531 1.083-2.856 1.904-3.976a11.582 11.582 0 0 1 3.08-2.8c1.195-.784 2.557-1.363 4.088-1.736 1.531-.374 3.192-.56 4.984-.56 2.875 0 5.208.466 7 1.4 1.829.896 3.192 2.314 4.088 4.256.896 1.904 1.344 4.368 1.344 7.392v5.04c0 1.306.019 2.632.056 3.976.075 1.344.149 2.706.224 4.088l.336 4.032h-7.112a95.498 95.498 0 0 1-.448-3.192 124.135 124.135 0 0 1-.28-3.696h-1.008a12.934 12.934 0 0 1-2.24 3.864c-.971 1.157-2.165 2.09-3.584 2.8-1.381.672-2.968 1.008-4.76 1.008zm3.416-5.824c.709 0 1.419-.131 2.128-.392a9.476 9.476 0 0 0 2.128-1.064 8.664 8.664 0 0 0 1.904-1.792 9.22 9.22 0 0 0 1.456-2.408l-.112-4.704 1.288.28c-.672.485-1.456.877-2.352 1.176-.896.261-1.829.466-2.8.616-.933.149-1.867.317-2.8.504-.933.186-1.773.429-2.52.728-.709.298-1.288.709-1.736 1.232-.411.485-.616 1.176-.616 2.072 0 1.157.373 2.072 1.12 2.744.747.672 1.717 1.008 2.912 1.008z" fill="#fff"/>
            <path d="M73.987 620.894v-10.56h1.217v10.56h-1.216zm4.142 0v-8.24h1.136l-.192 2.656h.24c.16-.651.363-1.184.608-1.6.256-.427.576-.742.96-.944.384-.203.827-.304 1.328-.304.896 0 1.574.325 2.032.976.47.64.704 1.584.704 2.832v4.624h-1.184v-4.544c0-.95-.154-1.654-.464-2.112-.298-.459-.746-.688-1.344-.688-.522 0-.981.17-1.376.512-.384.341-.682.789-.896 1.344a5.556 5.556 0 0 0-.368 1.76v3.728H78.13zm10.145 0v-5.984h-1.52v-.992l2.016.128v-.272a1.744 1.744 0 0 1-.592-.432 1.907 1.907 0 0 1-.368-.64 2.372 2.372 0 0 1-.128-.784c0-.427.09-.806.272-1.136.192-.331.464-.592.816-.784.352-.203.768-.304 1.248-.304.373 0 .71.058 1.008.176.31.106.565.245.768.416l-.176 1.12a2.098 2.098 0 0 0-.704-.432 2.146 2.146 0 0 0-.848-.176c-.363 0-.662.122-.896.368-.224.234-.336.602-.336 1.104 0 .256.026.49.08.704.064.213.15.4.256.56.117.149.234.272.352.368h2.08v1.008h-2.16v5.984h-1.168zm5.316 0v-8.24h1.184v8.24H93.59zm.592-9.744c-.298 0-.522-.059-.672-.176-.15-.128-.224-.315-.224-.56 0-.235.075-.416.224-.544.15-.128.368-.192.656-.192.299 0 .523.064.672.192.16.117.24.298.24.544 0 .245-.08.432-.24.56-.15.117-.368.176-.656.176zm3.412 9.744v-8.24h1.136l-.192 2.656h.24c.16-.651.362-1.184.608-1.6.256-.427.576-.742.96-.944.384-.203.826-.304 1.328-.304.896 0 1.573.325 2.032.976.469.64.704 1.584.704 2.832v4.624h-1.184v-4.544c0-.95-.155-1.654-.464-2.112-.299-.459-.747-.688-1.344-.688-.523 0-.982.17-1.376.512-.384.341-.683.789-.896 1.344a5.56 5.56 0 0 0-.368 1.76v3.728h-1.184zm9.519 0v-8.24h1.184v8.24h-1.184zm.592-9.744c-.298 0-.522-.059-.672-.176-.149-.128-.224-.315-.224-.56 0-.235.075-.416.224-.544.15-.128.368-.192.656-.192.299 0 .523.064.672.192.16.117.24.298.24.544 0 .245-.08.432-.24.56-.149.117-.368.176-.656.176zm5.812 9.904c-.715 0-1.248-.198-1.6-.592-.342-.395-.512-.982-.512-1.76v-5.024h-1.248v-1.024h.752c.245 0 .421-.043.528-.128.117-.096.186-.251.208-.464l.144-1.264h.752v1.856h2.464v1.04h-2.464v5.008c0 .437.101.757.304.96.202.192.49.288.864.288.202 0 .416-.027.64-.08.224-.064.458-.187.704-.368v1.232a6.561 6.561 0 0 1-.832.24 3.5 3.5 0 0 1-.704.08zm6.903.032c-.64 0-1.2-.096-1.68-.288a3.34 3.34 0 0 1-1.216-.864 3.59 3.59 0 0 1-.736-1.328 5.67 5.67 0 0 1-.24-1.696c0-.64.08-1.227.24-1.76a4.4 4.4 0 0 1 .736-1.424c.32-.406.709-.715 1.168-.928.469-.224 1.008-.336 1.616-.336.512 0 .981.09 1.408.272.427.17.795.437 1.104.8.309.362.544.826.704 1.392.16.554.229 1.216.208 1.984l-6.464.048v-.912l5.728-.048-.4.688c.043-.704-.032-1.291-.224-1.76-.181-.47-.453-.822-.816-1.056-.352-.235-.773-.352-1.264-.352-.523 0-.981.133-1.376.4-.384.266-.683.656-.896 1.168-.213.501-.32 1.104-.32 1.808 0 1.013.224 1.797.672 2.352.459.544 1.152.816 2.08.816.352 0 .661-.038.928-.112.267-.086.491-.203.672-.352.192-.15.352-.326.48-.528.128-.203.224-.427.288-.672l1.04.256a3.69 3.69 0 0 1-.464 1.04 2.921 2.921 0 0 1-.72.768 3.296 3.296 0 0 1-.992.464c-.373.106-.795.16-1.264.16zm10.005-.192v-8.24h1.184v8.24h-1.184zm.592-9.744c-.298 0-.522-.059-.672-.176-.149-.128-.224-.315-.224-.56 0-.235.075-.416.224-.544.15-.128.368-.192.656-.192.299 0 .523.064.672.192.16.117.24.298.24.544 0 .245-.08.432-.24.56-.149.117-.368.176-.656.176zm3.412 9.744v-8.24h1.136l-.192 2.656h.24c.16-.651.362-1.184.608-1.6.256-.427.576-.742.96-.944.384-.203.826-.304 1.328-.304.896 0 1.573.325 2.032.976.469.64.704 1.584.704 2.832v4.624h-1.184v-4.544c0-.95-.155-1.654-.464-2.112-.299-.459-.747-.688-1.344-.688-.523 0-.982.17-1.376.512-.384.341-.683.789-.896 1.344a5.54 5.54 0 0 0-.368 1.76v3.728h-1.184zm12.943.192c-.725 0-1.333-.118-1.824-.352a3.115 3.115 0 0 1-1.184-.96 4.154 4.154 0 0 1-.656-1.36 5.827 5.827 0 0 1-.208-1.552c0-.598.075-1.158.224-1.68a4.36 4.36 0 0 1 .704-1.408c.32-.416.715-.736 1.184-.96.47-.235 1.024-.352 1.664-.352.608 0 1.147.112 1.616.336.48.213.87.517 1.168.912.299.384.486.848.56 1.392l-1.136.288a2.065 2.065 0 0 0-.272-.848c-.16-.299-.4-.544-.72-.736-.309-.192-.714-.288-1.216-.288-.437 0-.816.085-1.136.256-.32.17-.586.41-.8.72a3.2 3.2 0 0 0-.48 1.056c-.106.405-.16.842-.16 1.312 0 .618.091 1.168.272 1.648.192.48.486.858.88 1.136.395.277.907.416 1.536.416.448 0 .838-.075 1.168-.224.331-.16.592-.384.784-.672.203-.288.336-.646.4-1.072l1.104.256c-.085.48-.234.89-.448 1.232a2.78 2.78 0 0 1-.768.848c-.298.224-.64.389-1.024.496-.373.106-.784.16-1.232.16zm8.911 0c-.778 0-1.466-.171-2.064-.512a3.648 3.648 0 0 1-1.376-1.488c-.32-.651-.48-1.435-.48-2.352 0-.96.171-1.755.512-2.384.352-.63.822-1.099 1.408-1.408a4.012 4.012 0 0 1 1.952-.48c.736 0 1.398.17 1.984.512.598.33 1.067.821 1.408 1.472.352.64.528 1.429.528 2.368 0 .938-.17 1.728-.512 2.368-.341.629-.805 1.104-1.392 1.424-.586.32-1.242.48-1.968.48zm.048-1.024c.544 0 1.014-.134 1.408-.4.395-.267.699-.64.912-1.12.214-.491.32-1.062.32-1.712 0-.672-.112-1.254-.336-1.744-.224-.502-.544-.886-.96-1.152-.405-.278-.896-.416-1.472-.416-.533 0-.997.128-1.392.384-.394.245-.704.608-.928 1.088-.224.469-.336 1.04-.336 1.712 0 1.034.251 1.856.752 2.464.502.597 1.179.896 2.032.896zm6.203.832v-8.24h1.104l-.16 2.656h.24c.138-.63.325-1.152.56-1.568.234-.427.522-.747.864-.96.352-.214.746-.32 1.184-.32.544 0 .986.138 1.328.416.341.266.592.613.752 1.04.16.426.234.874.224 1.344h.24c.106-.587.277-1.088.512-1.504.234-.427.533-.747.896-.96a2.323 2.323 0 0 1 1.248-.336c.405 0 .762.085 1.072.256.32.17.586.416.8.736.224.32.389.72.496 1.2.106.48.16 1.029.16 1.648v4.592h-1.168v-4.432c0-.651-.064-1.19-.192-1.616-.118-.427-.299-.747-.544-.96-.235-.214-.534-.32-.896-.32-.416 0-.79.144-1.12.432-.331.277-.608.666-.832 1.168a6.16 6.16 0 0 0-.432 1.728v4h-1.152v-4.272c0-.683-.059-1.248-.176-1.696-.118-.459-.299-.8-.544-1.024a1.304 1.304 0 0 0-.912-.336 1.65 1.65 0 0 0-1.168.464c-.331.298-.598.709-.8 1.232a6.375 6.375 0 0 0-.4 1.712v3.92h-1.184zm17.646.192c-.64 0-1.2-.096-1.68-.288a3.34 3.34 0 0 1-1.216-.864 3.604 3.604 0 0 1-.736-1.328 5.67 5.67 0 0 1-.24-1.696c0-.64.08-1.227.24-1.76a4.4 4.4 0 0 1 .736-1.424c.32-.406.71-.715 1.168-.928.47-.224 1.008-.336 1.616-.336.512 0 .982.09 1.408.272.427.17.795.437 1.104.8.31.362.544.826.704 1.392.16.554.23 1.216.208 1.984l-6.464.048v-.912l5.728-.048-.4.688c.043-.704-.032-1.291-.224-1.76-.181-.47-.453-.822-.816-1.056-.352-.235-.773-.352-1.264-.352-.522 0-.981.133-1.376.4-.384.266-.682.656-.896 1.168-.213.501-.32 1.104-.32 1.808 0 1.013.224 1.797.672 2.352.459.544 1.152.816 2.08.816.352 0 .662-.038.928-.112.267-.086.491-.203.672-.352.192-.15.352-.326.48-.528.128-.203.224-.427.288-.672l1.04.256c-.106.384-.261.73-.464 1.04a2.921 2.921 0 0 1-.72.768 3.285 3.285 0 0 1-.992.464c-.373.106-.794.16-1.264.16zm4.268 2.016c.192-.491.325-.928.4-1.312a5.85 5.85 0 0 0 .144-1.056c.021-.331.032-.635.032-.912h1.152c0 .49-.037.938-.112 1.344a5.821 5.821 0 0 1-.272 1.088c-.107.32-.219.602-.336.848h-1.008zm7.129-2.208 3.76-10.56h1.728l3.744 10.56h-1.264l-3.248-9.536h-.176l-3.248 9.536h-1.296zm1.68-2.464v-.976h6.016v.976h-6.016zm12.238 2.656c-.715 0-1.317-.187-1.808-.56-.491-.374-.864-.88-1.12-1.52-.245-.651-.368-1.392-.368-2.224 0-.822.123-1.558.368-2.208.256-.662.629-1.179 1.12-1.552.491-.374 1.088-.56 1.792-.56.597 0 1.083.133 1.456.4.384.256.683.581.896.976.224.394.389.805.496 1.232h.256a56.269 56.269 0 0 1-.128-.96c-.043-.342-.08-.678-.112-1.008a15.094 15.094 0 0 1-.032-.912v-2.416h1.184V620.894h-1.104l.112-2.16h-.24a4.604 4.604 0 0 1-.544 1.184 2.579 2.579 0 0 1-.88.848c-.363.213-.811.32-1.344.32zm.176-1.056c.405 0 .768-.096 1.088-.288.331-.203.613-.459.848-.768.235-.31.411-.646.528-1.008.117-.363.176-.715.176-1.056v-.16c0-.224-.032-.475-.096-.752a3.162 3.162 0 0 0-.288-.848 3.19 3.19 0 0 0-.512-.8 2.195 2.195 0 0 0-.72-.576 1.984 1.984 0 0 0-.96-.224c-.512 0-.944.144-1.296.432-.341.288-.597.682-.768 1.184-.171.49-.256 1.05-.256 1.68 0 .64.085 1.2.256 1.68.181.469.443.837.784 1.104.341.266.747.4 1.216.4zm8.651.864-2.992-8.224h1.296l2.416 7.2h.208l2.4-7.2h1.312l-3.008 8.224h-1.632zm8.266.192c-.448 0-.853-.08-1.216-.24a1.987 1.987 0 0 1-.864-.784c-.213-.352-.32-.79-.32-1.312 0-.374.064-.71.192-1.008.139-.299.352-.555.64-.768.288-.224.672-.411 1.152-.56.48-.15 1.067-.267 1.76-.352.427-.054.768-.107 1.024-.16.256-.064.443-.155.56-.272.128-.128.192-.32.192-.576 0-.438-.149-.806-.448-1.104-.298-.31-.768-.464-1.408-.464-.309 0-.634.053-.976.16-.341.106-.64.293-.896.56-.256.266-.416.645-.48 1.136l-1.104-.4c.075-.374.203-.71.384-1.008.182-.299.422-.56.72-.784a3.27 3.27 0 0 1 1.04-.512 4.805 4.805 0 0 1 1.344-.176c.672 0 1.227.112 1.664.336.448.224.779.57.992 1.04.224.458.336 1.05.336 1.776v1.968c0 .32.006.677.016 1.072a49.525 49.525 0 0 0 .176 2.24h-1.104a35.235 35.235 0 0 1-.128-2.08h-.192a4.458 4.458 0 0 1-.624 1.12 3.078 3.078 0 0 1-1.008.832c-.394.213-.869.32-1.424.32zm.256-1.008c.235 0 .48-.038.736-.112.256-.086.512-.214.768-.384.256-.182.496-.416.72-.704.235-.299.454-.656.656-1.072v-1.68l.448.08c-.17.181-.405.32-.704.416a7.214 7.214 0 0 1-.976.208c-.362.053-.73.112-1.104.176-.362.064-.698.16-1.008.288a1.833 1.833 0 0 0-.736.512c-.181.213-.272.512-.272.896 0 .458.134.805.4 1.04.278.224.635.336 1.072.336zm6.782.816v-8.24h1.136l-.192 2.656h.24c.16-.651.363-1.184.608-1.6.256-.427.576-.742.96-.944.384-.203.827-.304 1.328-.304.896 0 1.573.325 2.032.976.469.64.704 1.584.704 2.832v4.624h-1.184v-4.544c0-.95-.155-1.654-.464-2.112-.299-.459-.747-.688-1.344-.688-.523 0-.981.17-1.376.512-.384.341-.683.789-.896 1.344a5.567 5.567 0 0 0-.368 1.76v3.728h-1.184zm12.944.192c-.725 0-1.333-.118-1.824-.352a3.108 3.108 0 0 1-1.184-.96 4.134 4.134 0 0 1-.656-1.36 5.787 5.787 0 0 1-.208-1.552c0-.598.075-1.158.224-1.68a4.36 4.36 0 0 1 .704-1.408c.32-.416.715-.736 1.184-.96.469-.235 1.024-.352 1.664-.352.608 0 1.147.112 1.616.336.48.213.869.517 1.168.912.299.384.485.848.56 1.392l-1.136.288a2.065 2.065 0 0 0-.272-.848c-.16-.299-.4-.544-.72-.736-.309-.192-.715-.288-1.216-.288-.437 0-.816.085-1.136.256-.32.17-.587.41-.8.72a3.2 3.2 0 0 0-.48 1.056c-.107.405-.16.842-.16 1.312 0 .618.091 1.168.272 1.648.192.48.485.858.88 1.136.395.277.907.416 1.536.416.448 0 .837-.075 1.168-.224.331-.16.592-.384.784-.672.203-.288.336-.646.4-1.072l1.104.256c-.085.48-.235.89-.448 1.232a2.806 2.806 0 0 1-.768.848c-.299.224-.64.389-1.024.496-.373.106-.784.16-1.232.16zm8.863 0c-.64 0-1.2-.096-1.68-.288a3.34 3.34 0 0 1-1.216-.864 3.59 3.59 0 0 1-.736-1.328 5.67 5.67 0 0 1-.24-1.696c0-.64.08-1.227.24-1.76a4.4 4.4 0 0 1 .736-1.424c.32-.406.709-.715 1.168-.928.469-.224 1.008-.336 1.616-.336.512 0 .981.09 1.408.272.427.17.795.437 1.104.8.309.362.544.826.704 1.392.16.554.229 1.216.208 1.984l-6.464.048v-.912l5.728-.048-.4.688c.043-.704-.032-1.291-.224-1.76-.181-.47-.453-.822-.816-1.056-.352-.235-.773-.352-1.264-.352-.523 0-.981.133-1.376.4-.384.266-.683.656-.896 1.168-.213.501-.32 1.104-.32 1.808 0 1.013.224 1.797.672 2.352.459.544 1.152.816 2.08.816.352 0 .661-.038.928-.112.267-.086.491-.203.672-.352.192-.15.352-.326.48-.528.128-.203.224-.427.288-.672l1.04.256a3.69 3.69 0 0 1-.464 1.04 2.921 2.921 0 0 1-.72.768 3.296 3.296 0 0 1-.992.464c-.373.106-.795.16-1.264.16zm8.584 0c-.714 0-1.317-.187-1.808-.56-.49-.374-.864-.88-1.12-1.52-.245-.651-.368-1.392-.368-2.224 0-.822.123-1.558.368-2.208.256-.662.63-1.179 1.12-1.552.491-.374 1.088-.56 1.792-.56.598 0 1.083.133 1.456.4.384.256.683.581.896.976.224.394.39.805.496 1.232h.256a68.5 68.5 0 0 1-.128-.96c-.042-.342-.08-.678-.112-1.008a15.094 15.094 0 0 1-.032-.912v-2.416h1.184V620.894h-1.104l.112-2.16h-.24a4.604 4.604 0 0 1-.544 1.184 2.579 2.579 0 0 1-.88.848c-.362.213-.81.32-1.344.32zm.176-1.056c.406 0 .768-.096 1.088-.288.331-.203.614-.459.848-.768.235-.31.411-.646.528-1.008.118-.363.176-.715.176-1.056v-.16c0-.224-.032-.475-.096-.752a3.162 3.162 0 0 0-.288-.848 3.163 3.163 0 0 0-.512-.8 2.175 2.175 0 0 0-.72-.576 1.984 1.984 0 0 0-.96-.224c-.512 0-.944.144-1.296.432-.341.288-.597.682-.768 1.184-.17.49-.256 1.05-.256 1.68 0 .64.086 1.2.256 1.68.182.469.443.837.784 1.104.342.266.747.4 1.216.4zm12.856 1.056c-.448 0-.854-.08-1.216-.24a1.976 1.976 0 0 1-.864-.784c-.214-.352-.32-.79-.32-1.312 0-.374.064-.71.192-1.008.138-.299.352-.555.64-.768.288-.224.672-.411 1.152-.56.48-.15 1.066-.267 1.76-.352.426-.054.768-.107 1.024-.16.256-.064.442-.155.56-.272.128-.128.192-.32.192-.576a1.5 1.5 0 0 0-.448-1.104c-.299-.31-.768-.464-1.408-.464-.31 0-.635.053-.976.16-.342.106-.64.293-.896.56-.256.266-.416.645-.48 1.136l-1.104-.4c.074-.374.202-.71.384-1.008.181-.299.421-.56.72-.784a3.25 3.25 0 0 1 1.04-.512 4.795 4.795 0 0 1 1.344-.176c.672 0 1.226.112 1.664.336.448.224.778.57.992 1.04.224.458.336 1.05.336 1.776v1.968c0 .32.005.677.016 1.072.021.384.048.773.08 1.168.032.384.064.741.096 1.072h-1.104a40.16 40.16 0 0 1-.08-1.056 29.34 29.34 0 0 1-.048-1.024h-.192c-.15.394-.358.768-.624 1.12a3.1 3.1 0 0 1-1.008.832c-.395.213-.87.32-1.424.32zm.256-1.008c.234 0 .48-.038.736-.112.256-.086.512-.214.768-.384.256-.182.496-.416.72-.704.234-.299.453-.656.656-1.072v-1.68l.448.08c-.171.181-.406.32-.704.416a7.248 7.248 0 0 1-.976.208 44.85 44.85 0 0 0-1.104.176c-.363.064-.699.16-1.008.288a1.826 1.826 0 0 0-.736.512c-.182.213-.272.512-.272.896 0 .458.133.805.4 1.04.277.224.634.336 1.072.336zm10.221 1.008c-.725 0-1.333-.118-1.824-.352a3.108 3.108 0 0 1-1.184-.96 4.134 4.134 0 0 1-.656-1.36 5.787 5.787 0 0 1-.208-1.552c0-.598.075-1.158.224-1.68a4.36 4.36 0 0 1 .704-1.408c.32-.416.715-.736 1.184-.96.469-.235 1.024-.352 1.664-.352.608 0 1.147.112 1.616.336.48.213.869.517 1.168.912.299.384.485.848.56 1.392l-1.136.288a2.065 2.065 0 0 0-.272-.848c-.16-.299-.4-.544-.72-.736-.309-.192-.715-.288-1.216-.288-.437 0-.816.085-1.136.256-.32.17-.587.41-.8.72a3.2 3.2 0 0 0-.48 1.056c-.107.405-.16.842-.16 1.312 0 .618.091 1.168.272 1.648.192.48.485.858.88 1.136.395.277.907.416 1.536.416.448 0 .837-.075 1.168-.224.331-.16.592-.384.784-.672.203-.288.336-.646.4-1.072l1.104.256c-.085.48-.235.89-.448 1.232a2.806 2.806 0 0 1-.768.848c-.299.224-.64.389-1.024.496-.373.106-.784.16-1.232.16zm8.863 0c-.725 0-1.333-.118-1.824-.352a3.115 3.115 0 0 1-1.184-.96 4.154 4.154 0 0 1-.656-1.36 5.827 5.827 0 0 1-.208-1.552c0-.598.075-1.158.224-1.68a4.36 4.36 0 0 1 .704-1.408c.32-.416.715-.736 1.184-.96.47-.235 1.024-.352 1.664-.352.608 0 1.147.112 1.616.336.48.213.87.517 1.168.912.299.384.486.848.56 1.392l-1.136.288a2.065 2.065 0 0 0-.272-.848c-.16-.299-.4-.544-.72-.736-.309-.192-.714-.288-1.216-.288-.437 0-.816.085-1.136.256-.32.17-.586.41-.8.72a3.2 3.2 0 0 0-.48 1.056c-.106.405-.16.842-.16 1.312 0 .618.091 1.168.272 1.648.192.48.486.858.88 1.136.395.277.907.416 1.536.416.448 0 .838-.075 1.168-.224.331-.16.592-.384.784-.672.203-.288.336-.646.4-1.072l1.104.256c-.085.48-.234.89-.448 1.232a2.78 2.78 0 0 1-.768.848c-.298.224-.64.389-1.024.496-.373.106-.784.16-1.232.16zm8.911 0c-.778 0-1.466-.171-2.064-.512a3.648 3.648 0 0 1-1.376-1.488c-.32-.651-.48-1.435-.48-2.352 0-.96.171-1.755.512-2.384.352-.63.822-1.099 1.408-1.408a4.012 4.012 0 0 1 1.952-.48c.736 0 1.398.17 1.984.512.598.33 1.067.821 1.408 1.472.352.64.528 1.429.528 2.368 0 .938-.17 1.728-.512 2.368-.341.629-.805 1.104-1.392 1.424-.586.32-1.242.48-1.968.48zm.048-1.024c.544 0 1.014-.134 1.408-.4.395-.267.699-.64.912-1.12.214-.491.32-1.062.32-1.712 0-.672-.112-1.254-.336-1.744-.224-.502-.544-.886-.96-1.152-.405-.278-.896-.416-1.472-.416-.533 0-.997.128-1.392.384-.394.245-.704.608-.928 1.088-.224.469-.336 1.04-.336 1.712 0 1.034.251 1.856.752 2.464.502.597 1.179.896 2.032.896zm8.811 1.024c-.896 0-1.579-.31-2.048-.928-.459-.63-.688-1.568-.688-2.816v-4.688h1.2v4.608c0 .928.144 1.621.432 2.08.288.448.746.672 1.376.672.341 0 .65-.086.928-.256.277-.171.522-.406.736-.704.213-.31.389-.678.528-1.104a7.67 7.67 0 0 0 .304-1.408v-3.888h1.168v8.24h-1.104l.176-2.672h-.24c-.118.661-.31 1.205-.576 1.632-.256.416-.571.725-.944.928-.374.202-.79.304-1.248.304zm6.755-.192v-8.24h1.136l-.192 2.656h.24c.16-.651.362-1.184.608-1.6.256-.427.576-.742.96-.944.384-.203.826-.304 1.328-.304.896 0 1.573.325 2.032.976.469.64.704 1.584.704 2.832v4.624h-1.184v-4.544c0-.95-.155-1.654-.464-2.112-.299-.459-.747-.688-1.344-.688-.523 0-.982.17-1.376.512-.384.341-.683.789-.896 1.344a5.54 5.54 0 0 0-.368 1.76v3.728h-1.184zm11.888.16c-.715 0-1.248-.198-1.6-.592-.342-.395-.512-.982-.512-1.76v-5.024h-1.248v-1.024h.752c.245 0 .421-.043.528-.128.117-.096.186-.251.208-.464l.144-1.264h.752v1.856h2.464v1.04h-2.464v5.008c0 .437.101.757.304.96.202.192.49.288.864.288.202 0 .416-.027.64-.08.224-.064.458-.187.704-.368v1.232a6.561 6.561 0 0 1-.832.24 3.5 3.5 0 0 1-.704.08zm6.548.032a5.6 5.6 0 0 1-1.536-.192 3.257 3.257 0 0 1-1.104-.544 2.322 2.322 0 0 1-.656-.848 2.624 2.624 0 0 1-.192-1.088l1.056-.192c-.042.394.032.73.224 1.008.203.277.496.49.88.64.384.138.848.208 1.392.208.683 0 1.211-.118 1.584-.352.374-.235.56-.56.56-.976 0-.32-.106-.571-.32-.752-.202-.182-.485-.326-.848-.432a11.014 11.014 0 0 0-1.232-.288 20.962 20.962 0 0 1-1.136-.288 5.697 5.697 0 0 1-1.024-.432 2.159 2.159 0 0 1-.72-.656c-.181-.278-.272-.624-.272-1.04 0-.502.128-.928.384-1.28s.624-.624 1.104-.816c.48-.203 1.051-.304 1.712-.304.672 0 1.238.106 1.696.32.47.213.832.512 1.088.896.256.384.395.832.416 1.344l-1.072.224c0-.395-.09-.72-.272-.976a1.591 1.591 0 0 0-.768-.592c-.33-.128-.72-.192-1.168-.192-.608 0-1.093.117-1.456.352-.352.234-.528.554-.528.96 0 .309.102.56.304.752.214.181.496.325.848.432.352.096.742.186 1.168.272.427.085.832.181 1.216.288a4.41 4.41 0 0 1 1.024.416c.31.17.55.394.72.672.182.277.272.629.272 1.056 0 .544-.144.997-.432 1.36-.277.352-.666.613-1.168.784-.501.17-1.082.256-1.744.256z" fill="#fff" fill-opacity=".8"/>
        </g>
    </g>
    <defs>
        <linearGradient id="wde99zu3gf" x1="146.609" y1="444.333" x2="306" y2="444.333" gradientUnits="userSpaceOnUse">
            <stop stop-color="#1ABFED"/>
            <stop offset="1" stop-color="#1A32B4"/>
        </linearGradient>
        <linearGradient id="cqjygmdf8g" x1="230.365" y1="503.476" x2="25.29" y2="503.476" gradientUnits="userSpaceOnUse">
            <stop stop-color="#1AC3EF"/>
            <stop offset="1" stop-color="#1A3AB7"/>
        </linearGradient>
        <linearGradient id="0ruknhxa2h" x1="161.177" y1="437.401" x2="149.37" y2="437.204" gradientUnits="userSpaceOnUse">
            <stop stop-color="#fff"/>
            <stop offset="1" stop-color="#fff"/>
        </linearGradient>
        <linearGradient id="9l8o9pjj7i" x1="167.949" y1="423.856" x2="150.484" y2="442.035" gradientUnits="userSpaceOnUse">
            <stop stop-color="#fff"/>
            <stop offset="1" stop-color="#fff"/>
        </linearGradient>
        <linearGradient id="x1urjhucuk" x1="252.915" y1="423.976" x2="252.915" y2="449.447" gradientUnits="userSpaceOnUse">
            <stop stop-color="#98E4FF"/>
            <stop offset="1" stop-color="#4BBBE3"/>
        </linearGradient>
        <linearGradient id="ca82tggnmm" x1="190.264" y1="553.977" x2="331.888" y2="42.302" gradientUnits="userSpaceOnUse">
            <stop stop-color="#1AC3EF"/>
            <stop offset="1" stop-color="#1A3AB7"/>
        </linearGradient>
        <clipPath id="bahme85kka">
            <path fill="#fff" d="M0 0h412v917H0z"/>
        </clipPath>
        <clipPath id="zsuq5fy6mc">
            <path fill="#fff" transform="translate(30 372.251)" d="M0 0h352v251.642H0z"/>
        </clipPath>
        <clipPath id="crdtvxah8e">
            <rect x="106" y="372.251" width="200" height="143.642" rx="21.978" fill="#fff"/>
        </clipPath>
        <radialGradient id="blbuccr39b" cx="0" cy="0" r="1" gradientUnits="userSpaceOnUse" gradientTransform="rotate(120 159.623 128.825) scale(848 901.378)">
            <stop stop-color="#1ACAF2"/>
            <stop offset="1" stop-color="#1A2AB1"/>
        </radialGradient>
        <radialGradient id="pckd1720jl" cx="0" cy="0" r="1" gradientUnits="userSpaceOnUse" gradientTransform="matrix(59.0118 46.09313 -47.9613 61.40357 226.812 413.875)">
            <stop stop-color="#4BBBE3" stop-opacity="0"/>
            <stop offset=".5" stop-color="#98E4FF"/>
            <stop offset="1" stop-color="#4BBBE3" stop-opacity="0"/>
        </radialGradient>
        <filter id="bgvb3nc6od" x="75.543" y="351.947" width="260.914" height="204.556" filterUnits="userSpaceOnUse" color-interpolation-filters="sRGB">
            <feFlood flood-opacity="0" result="BackgroundImageFix"/>
            <feColorMatrix in="SourceAlpha" values="0 0 0 0 0 0 0 0 0 0 0 0 0 0 0 0 0 0 127 0" result="hardAlpha"/>
            <feOffset dy="10.152"/>
            <feGaussianBlur stdDeviation="15.228"/>
            <feComposite in2="hardAlpha" operator="out"/>
            <feColorMatrix values="0 0 0 0 0 0 0 0 0 0 0 0 0 0 0 0 0 0 0.15 0"/>
            <feBlend in2="BackgroundImageFix" result="effect1_dropShadow_2001_10270"/>
            <feBlend in="SourceGraphic" in2="effect1_dropShadow_2001_10270" result="shape"/>
        </filter>
        <filter id="trs0yoab9j" x="236.128" y="422.96" width="32.352" height="35.624" filterUnits="userSpaceOnUse" color-interpolation-filters="sRGB">
            <feFlood flood-opacity="0" result="BackgroundImageFix"/>
            <feColorMatrix in="SourceAlpha" values="0 0 0 0 0 0 0 0 0 0 0 0 0 0 0 0 0 0 127 0" result="hardAlpha"/>
            <feOffset dy="4.061"/>
            <feGaussianBlur stdDeviation="2.03"/>
            <feComposite in2="hardAlpha" operator="out"/>
            <feColorMatrix values="0 0 0 0 0 0 0 0 0 0 0 0 0 0 0 0 0 0 0.25 0"/>
            <feBlend in2="BackgroundImageFix" result="effect1_dropShadow_2001_10270"/>
            <feBlend in="SourceGraphic" in2="effect1_dropShadow_2001_10270" result="shape"/>
            <feColorMatrix in="SourceAlpha" values="0 0 0 0 0 0 0 0 0 0 0 0 0 0 0 0 0 0 127 0" result="hardAlpha"/>
            <feOffset dy="3.046"/>
            <feGaussianBlur stdDeviation="1.015"/>
            <feComposite in2="hardAlpha" operator="arithmetic" k2="-1" k3="1"/>
            <feColorMatrix values="0 0 0 0 1 0 0 0 0 1 0 0 0 0 1 0 0 0 0.54 0"/>
            <feBlend in2="shape" result="effect2_innerShadow_2001_10270"/>
        </filter>
    </defs>
</svg>
