<svg width="29" height="29" viewBox="0 0 29 29" fill="none" xmlns="http://www.w3.org/2000/svg">
    <path opacity=".4" d="M14.5 26.167c6.443 0 11.667-5.224 11.667-11.667S20.943 2.833 14.5 2.833 2.833 8.057 2.833 14.5 8.057 26.167 14.5 26.167z" fill="#000" fill-opacity=".6"/>
    <path d="M18.828 19.085a.781.781 0 0 1-.443-.128l-3.617-2.159c-.898-.536-1.563-1.715-1.563-2.753V9.262c0-.479.397-.875.875-.875s.875.396.875.875v4.783c0 .42.35 1.038.712 1.248l3.616 2.159c.42.245.549.781.304 1.201a.899.899 0 0 1-.759.432z" fill="#000" fill-opacity=".6"/>
    <path d="M14.08 8.137c.617 0 1.125.508 1.125 1.125v4.783c0 .15.067.367.188.579.12.212.27.379.399.453l.003.002 3.613 2.156h.001c.545.318.705 1.01.394 1.544l-.004.007a1.15 1.15 0 0 1-.97.549c-.189 0-.387-.044-.572-.164l-3.616-2.158c-.974-.582-1.686-1.842-1.686-2.968V9.262c0-.617.509-1.125 1.125-1.125z" stroke="#000" stroke-opacity=".6" stroke-width=".5"/>
</svg>
