<svg width="29" height="29" viewBox="0 0 29 29" fill="none" xmlns="http://www.w3.org/2000/svg">
    <path d="M26.167 13.415v6.51c0 3.442-2.8 6.242-6.242 6.242H9.075a6.249 6.249 0 0 1-6.242-6.242v-8.412h23.03c.175.525.269 1.062.292 1.634.012.081.012.186.012.268z" fill="#000" fill-opacity=".6"/>
    <path opacity=".4" d="M25.863 11.513H2.833V7.99A5.158 5.158 0 0 1 7.99 2.833h2.718c1.902 0 2.497.619 3.255 1.634l1.634 2.17c.361.478.408.548 1.085.548h3.255c2.765-.012 5.121 1.808 5.926 4.328z" fill="#000" fill-opacity=".6"/>
</svg>
