<svg width="29" height="29" viewBox="0 0 29 29" fill="none" xmlns="http://www.w3.org/2000/svg">
    <path opacity=".4" d="M18.56 2.833H9.285c-4.037 0-6.44 2.404-6.44 6.44v9.275c0 4.037 2.415 6.44 6.44 6.44h9.275c4.037 0 6.44-2.403 6.44-6.44V9.273c0-4.036-2.415-6.44-6.44-6.44z" fill="#000" fill-opacity=".6"/>
    <path d="m26.12 22.48-1.902.642a1.756 1.756 0 0 0-1.12 1.12l-.641 1.901c-.549 1.645-2.859 1.61-3.372-.035l-2.158-6.941c-.42-1.377.851-2.66 2.216-2.229l6.954 2.159c1.633.513 1.656 2.835.023 3.383z" fill="#000" fill-opacity=".6"/>
</svg>
