<svg width="18" height="18" viewBox="0 0 18 18" fill="none" xmlns="http://www.w3.org/2000/svg">
    <path d="M6.75 14.25c0 .63.098 1.245.278 1.814-2.88-.997-5.055-3.645-5.28-6.742a7.738 7.738 0 0 1 4.74-7.657c.795-.33 1.2-.09 1.372.082.165.165.398.563.068 1.32a6.144 6.144 0 0 0-.503 2.46c.008 1.53.608 2.948 1.583 4.035A5.989 5.989 0 0 0 6.75 14.25z" fill="#E0E0E0"/>
    <path opacity=".4" d="M15.908 13.29a7.876 7.876 0 0 1-6.353 3.203c-.12 0-.24-.008-.36-.015a7.5 7.5 0 0 1-2.168-.413 6.043 6.043 0 0 1-.277-1.815c0-1.898.885-3.592 2.258-4.688a6.307 6.307 0 0 0 4.432 2.116c.473.022.945-.016 1.41-.098.84-.15 1.178.165 1.298.367.127.203.262.646-.24 1.343z" fill="#E0E0E0"/>
</svg>
