<svg width="29" height="29" viewBox="0 0 29 29" fill="none" xmlns="http://www.w3.org/2000/svg">
    <path opacity=".4" d="M2.833 15.527v-2.054c0-1.213.992-2.216 2.217-2.216 2.112 0 2.975-1.494 1.913-3.325A2.216 2.216 0 0 1 7.78 4.91l2.018-1.155c.922-.548 2.112-.222 2.66.7l.129.222c1.05 1.831 2.776 1.831 3.838 0l.128-.222c.549-.922 1.739-1.248 2.66-.7l2.019 1.155a2.216 2.216 0 0 1 .816 3.022c-1.061 1.831-.198 3.325 1.914 3.325 1.213 0 2.216.991 2.216 2.216v2.054a2.223 2.223 0 0 1-2.216 2.216c-2.112 0-2.975 1.494-1.914 3.325a2.213 2.213 0 0 1-.816 3.022l-2.019 1.155c-.921.548-2.111.222-2.66-.7l-.128-.222c-1.05-1.831-2.777-1.831-3.838 0l-.129.222c-.548.922-1.738 1.248-2.66.7L7.78 24.09a2.216 2.216 0 0 1-.817-3.022c1.062-1.831.199-3.325-1.913-3.325a2.223 2.223 0 0 1-2.217-2.216z" fill="#000" fill-opacity=".6"/>
    <path d="M14.5 18.292a3.792 3.792 0 1 0 0-7.584 3.792 3.792 0 0 0 0 7.584z" fill="#000" fill-opacity=".6"/>
</svg>
