<svg width="28" height="28" viewBox="0 0 28 28" fill="none" xmlns="http://www.w3.org/2000/svg">
    <path opacity=".4" d="m7.962 6.543 11.15-3.72c5.006-1.668 7.726 1.063 6.07 6.069L21.46 20.04c-2.497 7.502-6.6 7.502-9.097 0l-1.1-3.313-3.313-1.1C.459 13.143.459 9.052 7.962 6.543z" fill="#000" fill-opacity=".6"/>
    <path d="M14.14 14.443a.865.865 0 0 1-.618-.257.88.88 0 0 1 0-1.236l4.434-4.457a.88.88 0 0 1 1.236 0 .88.88 0 0 1 0 1.237l-4.433 4.456a.916.916 0 0 1-.618.257z" fill="#000" fill-opacity=".6"/>
    <path d="M17.78 8.316a1.13 1.13 0 0 1 1.59 0 1.13 1.13 0 0 1 .075 1.505l-.076.085-4.432 4.456-.007.007a1.167 1.167 0 0 1-.79.324c-.284 0-.57-.105-.794-.33a1.13 1.13 0 0 1 0-1.59l4.432-4.457h.001z" stroke="#000" stroke-opacity=".6" stroke-width=".5"/>
</svg>
