<svg width="24" height="24" viewBox="0 0 24 24" fill="none" xmlns="http://www.w3.org/2000/svg">
<path d="M22.9449 5.77432C22.1983 3.24265 20.0866 1.13098 17.5549 0.384318C15.6299 -0.175682 14.2999 -0.129015 13.3783 0.559318C12.2699 1.38765 12.1416 2.88099 12.1416 3.94265V6.84765C12.1416 9.71765 13.4483 11.176 16.0149 11.176H19.3633C20.4133 11.176 21.9183 11.0477 22.7466 9.93932C23.4583 9.02932 23.5166 7.69932 22.9449 5.77432Z" fill="white"/>
<path opacity="0.4" d="M19.7254 13.2527C19.422 12.9027 18.9787 12.7043 18.5237 12.7043H14.347C12.2937 12.7043 10.6254 11.036 10.6254 8.98267V4.80601C10.6254 4.35101 10.427 3.90767 10.077 3.60434C9.7387 3.30101 9.27203 3.16101 8.8287 3.21934C6.08703 3.56934 3.56703 5.07434 1.92203 7.33767C0.265367 9.61267 -0.3413 12.3893 0.1837 15.166C0.942033 19.1793 4.15037 22.3877 8.17537 23.146C8.81703 23.2743 9.4587 23.3327 10.1004 23.3327C12.212 23.3327 14.2537 22.6793 15.992 21.4077C18.2554 19.7627 19.7604 17.2427 20.1104 14.501C20.1687 14.046 20.0287 13.591 19.7254 13.2527Z" fill="white"/>
</svg>
