<svg width="103" height="25" viewBox="0 0 103 25" fill="none" xmlns="http://www.w3.org/2000/svg">
<path d="M90.6334 25.0018C89.6274 25.0018 88.7357 24.8075 87.9583 24.4188C87.181 24.0072 86.5751 23.4242 86.1406 22.6697C85.7062 21.9152 85.489 20.9777 85.489 19.8574C85.489 18.8742 85.6719 18.0511 86.0378 17.3881C86.4264 16.725 86.9866 16.1877 87.7183 15.7762C88.4499 15.3646 89.353 15.0217 90.4276 14.7473C91.5023 14.4729 92.7255 14.2329 94.0973 14.0271C94.829 13.9128 95.4234 13.8099 95.8807 13.7184C96.3609 13.6041 96.7152 13.4326 96.9439 13.204C97.1725 12.9525 97.2868 12.5981 97.2868 12.1408C97.2868 11.5006 97.0582 10.9519 96.6009 10.4946C96.1437 10.0373 95.4234 9.80867 94.4403 9.80867C93.7772 9.80867 93.1599 9.92299 92.5883 10.1516C92.0396 10.3803 91.5594 10.7232 91.1479 11.1805C90.7592 11.6378 90.4734 12.2208 90.2905 12.9296L85.9349 11.5921C86.2092 10.6546 86.5979 9.84296 87.1009 9.15704C87.6268 8.47112 88.2556 7.89952 88.9872 7.44224C89.7189 6.96209 90.5534 6.6077 91.4908 6.37906C92.4282 6.15042 93.4457 6.0361 94.5432 6.0361C96.3037 6.0361 97.7327 6.3219 98.8302 6.8935C99.9505 7.44224 100.785 8.31107 101.334 9.5C101.883 10.6661 102.157 12.1751 102.157 14.0271V17.1137C102.157 17.914 102.168 18.7256 102.191 19.5487C102.237 20.3718 102.283 21.2064 102.328 22.0523C102.397 22.8755 102.466 23.6986 102.534 24.5217H98.1786C98.0871 23.9501 97.9956 23.2984 97.9042 22.5668C97.8356 21.8123 97.7784 21.0578 97.7327 20.3032H97.1154C96.7953 21.1721 96.338 21.9609 95.7435 22.6697C95.1491 23.3785 94.4174 23.9501 93.5486 24.3845C92.7026 24.796 91.7309 25.0018 90.6334 25.0018ZM92.7255 21.435C93.1599 21.435 93.5943 21.355 94.0287 21.1949C94.486 21.0349 94.9204 20.8177 95.332 20.5433C95.7664 20.2461 96.1551 19.8803 96.498 19.4458C96.8639 19.0114 97.1611 18.5199 97.3897 17.9711L97.3212 15.0903L98.11 15.2617C97.6984 15.559 97.2183 15.799 96.6695 15.982C96.1208 16.142 95.5492 16.2678 94.9547 16.3592C94.3831 16.4507 93.8115 16.5536 93.2399 16.6679C92.6683 16.7822 92.1539 16.9308 91.6966 17.1137C91.2622 17.2966 90.9078 17.5481 90.6334 17.8682C90.3819 18.1655 90.2562 18.5884 90.2562 19.1372C90.2562 19.846 90.4848 20.4061 90.9421 20.8177C91.3994 21.2292 91.9938 21.435 92.7255 21.435Z" fill="url(#paint0_linear_3798_13210)"/>
<path d="M90.6334 25.0018C89.6274 25.0018 88.7357 24.8075 87.9583 24.4188C87.181 24.0072 86.5751 23.4242 86.1406 22.6697C85.7062 21.9152 85.489 20.9777 85.489 19.8574C85.489 18.8742 85.6719 18.0511 86.0378 17.3881C86.4264 16.725 86.9866 16.1877 87.7183 15.7762C88.4499 15.3646 89.353 15.0217 90.4276 14.7473C91.5023 14.4729 92.7255 14.2329 94.0973 14.0271C94.829 13.9128 95.4234 13.8099 95.8807 13.7184C96.3609 13.6041 96.7152 13.4326 96.9439 13.204C97.1725 12.9525 97.2868 12.5981 97.2868 12.1408C97.2868 11.5006 97.0582 10.9519 96.6009 10.4946C96.1437 10.0373 95.4234 9.80867 94.4403 9.80867C93.7772 9.80867 93.1599 9.92299 92.5883 10.1516C92.0396 10.3803 91.5594 10.7232 91.1479 11.1805C90.7592 11.6378 90.4734 12.2208 90.2905 12.9296L85.9349 11.5921C86.2092 10.6546 86.5979 9.84296 87.1009 9.15704C87.6268 8.47112 88.2556 7.89952 88.9872 7.44224C89.7189 6.96209 90.5534 6.6077 91.4908 6.37906C92.4282 6.15042 93.4457 6.0361 94.5432 6.0361C96.3037 6.0361 97.7327 6.3219 98.8302 6.8935C99.9505 7.44224 100.785 8.31107 101.334 9.5C101.883 10.6661 102.157 12.1751 102.157 14.0271V17.1137C102.157 17.914 102.168 18.7256 102.191 19.5487C102.237 20.3718 102.283 21.2064 102.328 22.0523C102.397 22.8755 102.466 23.6986 102.534 24.5217H98.1786C98.0871 23.9501 97.9956 23.2984 97.9042 22.5668C97.8356 21.8123 97.7784 21.0578 97.7327 20.3032H97.1154C96.7953 21.1721 96.338 21.9609 95.7435 22.6697C95.1491 23.3785 94.4174 23.9501 93.5486 24.3845C92.7026 24.796 91.7309 25.0018 90.6334 25.0018ZM92.7255 21.435C93.1599 21.435 93.5943 21.355 94.0287 21.1949C94.486 21.0349 94.9204 20.8177 95.332 20.5433C95.7664 20.2461 96.1551 19.8803 96.498 19.4458C96.8639 19.0114 97.1611 18.5199 97.3897 17.9711L97.3212 15.0903L98.11 15.2617C97.6984 15.559 97.2183 15.799 96.6695 15.982C96.1208 16.142 95.5492 16.2678 94.9547 16.3592C94.3831 16.4507 93.8115 16.5536 93.2399 16.6679C92.6683 16.7822 92.1539 16.9308 91.6966 17.1137C91.2622 17.2966 90.9078 17.5481 90.6334 17.8682C90.3819 18.1655 90.2562 18.5884 90.2562 19.1372C90.2562 19.846 90.4848 20.4061 90.9421 20.8177C91.3994 21.2292 91.9938 21.435 92.7255 21.435Z" fill="black" fill-opacity="0.87"/>
<path d="M90.6334 25.0018C89.6274 25.0018 88.7357 24.8075 87.9583 24.4188C87.181 24.0072 86.5751 23.4242 86.1406 22.6697C85.7062 21.9152 85.489 20.9777 85.489 19.8574C85.489 18.8742 85.6719 18.0511 86.0378 17.3881C86.4264 16.725 86.9866 16.1877 87.7183 15.7762C88.4499 15.3646 89.353 15.0217 90.4276 14.7473C91.5023 14.4729 92.7255 14.2329 94.0973 14.0271C94.829 13.9128 95.4234 13.8099 95.8807 13.7184C96.3609 13.6041 96.7152 13.4326 96.9439 13.204C97.1725 12.9525 97.2868 12.5981 97.2868 12.1408C97.2868 11.5006 97.0582 10.9519 96.6009 10.4946C96.1437 10.0373 95.4234 9.80867 94.4403 9.80867C93.7772 9.80867 93.1599 9.92299 92.5883 10.1516C92.0396 10.3803 91.5594 10.7232 91.1479 11.1805C90.7592 11.6378 90.4734 12.2208 90.2905 12.9296L85.9349 11.5921C86.2092 10.6546 86.5979 9.84296 87.1009 9.15704C87.6268 8.47112 88.2556 7.89952 88.9872 7.44224C89.7189 6.96209 90.5534 6.6077 91.4908 6.37906C92.4282 6.15042 93.4457 6.0361 94.5432 6.0361C96.3037 6.0361 97.7327 6.3219 98.8302 6.8935C99.9505 7.44224 100.785 8.31107 101.334 9.5C101.883 10.6661 102.157 12.1751 102.157 14.0271V17.1137C102.157 17.914 102.168 18.7256 102.191 19.5487C102.237 20.3718 102.283 21.2064 102.328 22.0523C102.397 22.8755 102.466 23.6986 102.534 24.5217H98.1786C98.0871 23.9501 97.9956 23.2984 97.9042 22.5668C97.8356 21.8123 97.7784 21.0578 97.7327 20.3032H97.1154C96.7953 21.1721 96.338 21.9609 95.7435 22.6697C95.1491 23.3785 94.4174 23.9501 93.5486 24.3845C92.7026 24.796 91.7309 25.0018 90.6334 25.0018ZM92.7255 21.435C93.1599 21.435 93.5943 21.355 94.0287 21.1949C94.486 21.0349 94.9204 20.8177 95.332 20.5433C95.7664 20.2461 96.1551 19.8803 96.498 19.4458C96.8639 19.0114 97.1611 18.5199 97.3897 17.9711L97.3212 15.0903L98.11 15.2617C97.6984 15.559 97.2183 15.799 96.6695 15.982C96.1208 16.142 95.5492 16.2678 94.9547 16.3592C94.3831 16.4507 93.8115 16.5536 93.2399 16.6679C92.6683 16.7822 92.1539 16.9308 91.6966 17.1137C91.2622 17.2966 90.9078 17.5481 90.6334 17.8682C90.3819 18.1655 90.2562 18.5884 90.2562 19.1372C90.2562 19.846 90.4848 20.4061 90.9421 20.8177C91.3994 21.2292 91.9938 21.435 92.7255 21.435Z" fill="url(#paint1_radial_3798_13210)"/>
<path d="M76.0206 24.796L74.8546 21.9495C74.5345 21.1492 74.1915 20.4633 73.8257 19.8917C73.4827 19.2972 73.0369 18.84 72.4881 18.5199C71.9394 18.1998 71.1849 18.0397 70.2246 18.0397H65.3889V14.4386H69.8474C70.3046 14.4386 70.8191 14.4158 71.3907 14.37C71.9851 14.3014 72.5453 14.13 73.0712 13.8556C73.6199 13.5812 74.0658 13.1239 74.4087 12.4838C74.7517 11.8207 74.9232 10.9061 74.9232 9.74007C74.9232 8.91697 74.8088 8.24248 74.5802 7.71661C74.3516 7.19074 74.0543 6.79061 73.6885 6.51625C73.3227 6.21901 72.9226 6.01324 72.4881 5.89892C72.0537 5.76173 71.6307 5.68171 71.2192 5.65885C70.8076 5.63598 70.4532 5.62455 70.156 5.62455V4.42419L76.7751 4.49278V6.10469C77.5754 6.24188 78.2156 6.51625 78.6957 6.9278C79.1759 7.33935 79.5188 7.80806 79.7246 8.33393C79.9304 8.83694 80.0333 9.38568 80.0333 9.98015C80.0333 10.7804 79.9075 11.512 79.656 12.1751C79.4274 12.8153 79.0501 13.3983 78.5242 13.9242C78.0212 14.4272 77.3467 14.8388 76.5008 15.1588C75.6777 15.4561 74.6717 15.6733 73.4827 15.8105V16.2906C74.8774 16.3592 75.9863 16.6564 76.8094 17.1823C77.6325 17.6853 78.2842 18.3369 78.7643 19.1372C79.2445 19.9146 79.6789 20.7377 80.0676 21.6065L81.4737 24.796H76.0206ZM65.3889 11.3863V8.77978H82.8112V11.3863H65.3889ZM65.3889 5.62455V1.88628H82.8112V5.62455H65.3889Z" fill="url(#paint2_linear_3798_13210)"/>
<path d="M76.0206 24.796L74.8546 21.9495C74.5345 21.1492 74.1915 20.4633 73.8257 19.8917C73.4827 19.2972 73.0369 18.84 72.4881 18.5199C71.9394 18.1998 71.1849 18.0397 70.2246 18.0397H65.3889V14.4386H69.8474C70.3046 14.4386 70.8191 14.4158 71.3907 14.37C71.9851 14.3014 72.5453 14.13 73.0712 13.8556C73.6199 13.5812 74.0658 13.1239 74.4087 12.4838C74.7517 11.8207 74.9232 10.9061 74.9232 9.74007C74.9232 8.91697 74.8088 8.24248 74.5802 7.71661C74.3516 7.19074 74.0543 6.79061 73.6885 6.51625C73.3227 6.21901 72.9226 6.01324 72.4881 5.89892C72.0537 5.76173 71.6307 5.68171 71.2192 5.65885C70.8076 5.63598 70.4532 5.62455 70.156 5.62455V4.42419L76.7751 4.49278V6.10469C77.5754 6.24188 78.2156 6.51625 78.6957 6.9278C79.1759 7.33935 79.5188 7.80806 79.7246 8.33393C79.9304 8.83694 80.0333 9.38568 80.0333 9.98015C80.0333 10.7804 79.9075 11.512 79.656 12.1751C79.4274 12.8153 79.0501 13.3983 78.5242 13.9242C78.0212 14.4272 77.3467 14.8388 76.5008 15.1588C75.6777 15.4561 74.6717 15.6733 73.4827 15.8105V16.2906C74.8774 16.3592 75.9863 16.6564 76.8094 17.1823C77.6325 17.6853 78.2842 18.3369 78.7643 19.1372C79.2445 19.9146 79.6789 20.7377 80.0676 21.6065L81.4737 24.796H76.0206ZM65.3889 11.3863V8.77978H82.8112V11.3863H65.3889ZM65.3889 5.62455V1.88628H82.8112V5.62455H65.3889Z" fill="black" fill-opacity="0.87"/>
<path d="M76.0206 24.796L74.8546 21.9495C74.5345 21.1492 74.1915 20.4633 73.8257 19.8917C73.4827 19.2972 73.0369 18.84 72.4881 18.5199C71.9394 18.1998 71.1849 18.0397 70.2246 18.0397H65.3889V14.4386H69.8474C70.3046 14.4386 70.8191 14.4158 71.3907 14.37C71.9851 14.3014 72.5453 14.13 73.0712 13.8556C73.6199 13.5812 74.0658 13.1239 74.4087 12.4838C74.7517 11.8207 74.9232 10.9061 74.9232 9.74007C74.9232 8.91697 74.8088 8.24248 74.5802 7.71661C74.3516 7.19074 74.0543 6.79061 73.6885 6.51625C73.3227 6.21901 72.9226 6.01324 72.4881 5.89892C72.0537 5.76173 71.6307 5.68171 71.2192 5.65885C70.8076 5.63598 70.4532 5.62455 70.156 5.62455V4.42419L76.7751 4.49278V6.10469C77.5754 6.24188 78.2156 6.51625 78.6957 6.9278C79.1759 7.33935 79.5188 7.80806 79.7246 8.33393C79.9304 8.83694 80.0333 9.38568 80.0333 9.98015C80.0333 10.7804 79.9075 11.512 79.656 12.1751C79.4274 12.8153 79.0501 13.3983 78.5242 13.9242C78.0212 14.4272 77.3467 14.8388 76.5008 15.1588C75.6777 15.4561 74.6717 15.6733 73.4827 15.8105V16.2906C74.8774 16.3592 75.9863 16.6564 76.8094 17.1823C77.6325 17.6853 78.2842 18.3369 78.7643 19.1372C79.2445 19.9146 79.6789 20.7377 80.0676 21.6065L81.4737 24.796H76.0206ZM65.3889 11.3863V8.77978H82.8112V11.3863H65.3889ZM65.3889 5.62455V1.88628H82.8112V5.62455H65.3889Z" fill="url(#paint3_radial_3798_13210)"/>
<path d="M46.2578 24.5217V0H51.1279V13.6155C51.8367 13.1354 52.5112 12.6209 53.1513 12.0722C53.8144 11.5006 54.4089 10.9061 54.9347 10.2888C55.4835 9.67148 55.9636 9.04272 56.3752 8.40253C56.8096 7.76233 57.1754 7.13357 57.4726 6.51625H63.1315C62.7885 7.38508 62.3312 8.26534 61.7596 9.15704C61.2109 10.0259 60.5479 10.8375 59.7705 11.5921C59.016 12.3237 58.1357 12.9525 57.1297 13.4783C56.1237 14.0042 55.0148 14.3586 53.803 14.5415V15.1245C55.3349 14.8502 56.6038 14.873 57.6098 15.1931C58.6158 15.5132 59.4389 16.0277 60.0791 16.7365C60.7422 17.4224 61.2681 18.2226 61.6568 19.1372C62.0454 20.0289 62.3998 20.932 62.7199 21.8466L63.5087 24.5217H58.1243L57.6784 22.8412C57.3583 21.7208 57.0039 20.7377 56.6152 19.8917C56.2266 19.0457 55.7121 18.3941 55.0719 17.9368C54.4546 17.4567 53.5972 17.2166 52.4997 17.2166H51.1279V24.5217H46.2578Z" fill="url(#paint4_linear_3798_13210)"/>
<path d="M46.2578 24.5217V0H51.1279V13.6155C51.8367 13.1354 52.5112 12.6209 53.1513 12.0722C53.8144 11.5006 54.4089 10.9061 54.9347 10.2888C55.4835 9.67148 55.9636 9.04272 56.3752 8.40253C56.8096 7.76233 57.1754 7.13357 57.4726 6.51625H63.1315C62.7885 7.38508 62.3312 8.26534 61.7596 9.15704C61.2109 10.0259 60.5479 10.8375 59.7705 11.5921C59.016 12.3237 58.1357 12.9525 57.1297 13.4783C56.1237 14.0042 55.0148 14.3586 53.803 14.5415V15.1245C55.3349 14.8502 56.6038 14.873 57.6098 15.1931C58.6158 15.5132 59.4389 16.0277 60.0791 16.7365C60.7422 17.4224 61.2681 18.2226 61.6568 19.1372C62.0454 20.0289 62.3998 20.932 62.7199 21.8466L63.5087 24.5217H58.1243L57.6784 22.8412C57.3583 21.7208 57.0039 20.7377 56.6152 19.8917C56.2266 19.0457 55.7121 18.3941 55.0719 17.9368C54.4546 17.4567 53.5972 17.2166 52.4997 17.2166H51.1279V24.5217H46.2578Z" fill="black" fill-opacity="0.87"/>
<path d="M46.2578 24.5217V0H51.1279V13.6155C51.8367 13.1354 52.5112 12.6209 53.1513 12.0722C53.8144 11.5006 54.4089 10.9061 54.9347 10.2888C55.4835 9.67148 55.9636 9.04272 56.3752 8.40253C56.8096 7.76233 57.1754 7.13357 57.4726 6.51625H63.1315C62.7885 7.38508 62.3312 8.26534 61.7596 9.15704C61.2109 10.0259 60.5479 10.8375 59.7705 11.5921C59.016 12.3237 58.1357 12.9525 57.1297 13.4783C56.1237 14.0042 55.0148 14.3586 53.803 14.5415V15.1245C55.3349 14.8502 56.6038 14.873 57.6098 15.1931C58.6158 15.5132 59.4389 16.0277 60.0791 16.7365C60.7422 17.4224 61.2681 18.2226 61.6568 19.1372C62.0454 20.0289 62.3998 20.932 62.7199 21.8466L63.5087 24.5217H58.1243L57.6784 22.8412C57.3583 21.7208 57.0039 20.7377 56.6152 19.8917C56.2266 19.0457 55.7121 18.3941 55.0719 17.9368C54.4546 17.4567 53.5972 17.2166 52.4997 17.2166H51.1279V24.5217H46.2578Z" fill="url(#paint5_radial_3798_13210)"/>
<path d="M31.028 25.0018C28.9245 25.0018 27.3355 24.293 26.2608 22.8755C25.2091 21.435 24.6832 19.2515 24.6832 16.3249V6.51625H29.6219V15.7076C29.6219 17.4681 29.8848 18.7828 30.4107 19.6516C30.9365 20.4976 31.7368 20.9206 32.8114 20.9206C33.4516 20.9206 34.0117 20.7605 34.4919 20.4404C34.972 20.1203 35.3836 19.6745 35.7265 19.1029C36.0695 18.5313 36.321 17.8568 36.4811 17.0794C36.664 16.302 36.7669 15.4675 36.7897 14.5758V6.51625H41.7284V24.5217H37.75L37.7157 18.8971H37.0984C36.7554 20.3147 36.321 21.4807 35.7951 22.3953C35.2921 23.287 34.6405 23.9501 33.8403 24.3845C33.0629 24.796 32.1255 25.0018 31.028 25.0018Z" fill="url(#paint6_linear_3798_13210)"/>
<path d="M31.028 25.0018C28.9245 25.0018 27.3355 24.293 26.2608 22.8755C25.2091 21.435 24.6832 19.2515 24.6832 16.3249V6.51625H29.6219V15.7076C29.6219 17.4681 29.8848 18.7828 30.4107 19.6516C30.9365 20.4976 31.7368 20.9206 32.8114 20.9206C33.4516 20.9206 34.0117 20.7605 34.4919 20.4404C34.972 20.1203 35.3836 19.6745 35.7265 19.1029C36.0695 18.5313 36.321 17.8568 36.4811 17.0794C36.664 16.302 36.7669 15.4675 36.7897 14.5758V6.51625H41.7284V24.5217H37.75L37.7157 18.8971H37.0984C36.7554 20.3147 36.321 21.4807 35.7951 22.3953C35.2921 23.287 34.6405 23.9501 33.8403 24.3845C33.0629 24.796 32.1255 25.0018 31.028 25.0018Z" fill="black" fill-opacity="0.87"/>
<path d="M31.028 25.0018C28.9245 25.0018 27.3355 24.293 26.2608 22.8755C25.2091 21.435 24.6832 19.2515 24.6832 16.3249V6.51625H29.6219V15.7076C29.6219 17.4681 29.8848 18.7828 30.4107 19.6516C30.9365 20.4976 31.7368 20.9206 32.8114 20.9206C33.4516 20.9206 34.0117 20.7605 34.4919 20.4404C34.972 20.1203 35.3836 19.6745 35.7265 19.1029C36.0695 18.5313 36.321 17.8568 36.4811 17.0794C36.664 16.302 36.7669 15.4675 36.7897 14.5758V6.51625H41.7284V24.5217H37.75L37.7157 18.8971H37.0984C36.7554 20.3147 36.321 21.4807 35.7951 22.3953C35.2921 23.287 34.6405 23.9501 33.8403 24.3845C33.0629 24.796 32.1255 25.0018 31.028 25.0018Z" fill="url(#paint7_radial_3798_13210)"/>
<path d="M0 24.5217L7.7509 1.88628H14.9531L22.704 24.5217H17.3538L11.6264 5.79603H11.1119L5.35018 24.5217H0ZM4.3556 20.0632V16.7022H19.0686V20.0632H4.3556Z" fill="url(#paint8_linear_3798_13210)"/>
<path d="M0 24.5217L7.7509 1.88628H14.9531L22.704 24.5217H17.3538L11.6264 5.79603H11.1119L5.35018 24.5217H0ZM4.3556 20.0632V16.7022H19.0686V20.0632H4.3556Z" fill="black" fill-opacity="0.87"/>
<path d="M0 24.5217L7.7509 1.88628H14.9531L22.704 24.5217H17.3538L11.6264 5.79603H11.1119L5.35018 24.5217H0ZM4.3556 20.0632V16.7022H19.0686V20.0632H4.3556Z" fill="url(#paint9_radial_3798_13210)"/>
<defs>
<linearGradient id="paint0_linear_3798_13210" x1="126.873" y1="22.7581" x2="-82.338" y2="22.7581" gradientUnits="userSpaceOnUse">
<stop stop-color="white"/>
<stop offset="1" stop-color="white"/>
</linearGradient>
<radialGradient id="paint1_radial_3798_13210" cx="0" cy="0" r="1" gradientTransform="matrix(-120.702 21.5225 -215.482 -15.3198 102.534 -7.77275e-07)" gradientUnits="userSpaceOnUse">
<stop stop-color="#22D3EE"/>
<stop offset="1" stop-color="#1D4ED8"/>
</radialGradient>
<linearGradient id="paint2_linear_3798_13210" x1="126.873" y1="22.7581" x2="-82.338" y2="22.7581" gradientUnits="userSpaceOnUse">
<stop stop-color="white"/>
<stop offset="1" stop-color="white"/>
</linearGradient>
<radialGradient id="paint3_radial_3798_13210" cx="0" cy="0" r="1" gradientTransform="matrix(-120.702 21.5225 -215.482 -15.3198 102.534 -7.77275e-07)" gradientUnits="userSpaceOnUse">
<stop stop-color="#22D3EE"/>
<stop offset="1" stop-color="#1D4ED8"/>
</radialGradient>
<linearGradient id="paint4_linear_3798_13210" x1="126.873" y1="22.7581" x2="-82.338" y2="22.7581" gradientUnits="userSpaceOnUse">
<stop stop-color="white"/>
<stop offset="1" stop-color="white"/>
</linearGradient>
<radialGradient id="paint5_radial_3798_13210" cx="0" cy="0" r="1" gradientTransform="matrix(-120.702 21.5225 -215.482 -15.3198 102.534 -7.77275e-07)" gradientUnits="userSpaceOnUse">
<stop stop-color="#22D3EE"/>
<stop offset="1" stop-color="#1D4ED8"/>
</radialGradient>
<linearGradient id="paint6_linear_3798_13210" x1="126.873" y1="22.7581" x2="-82.338" y2="22.7581" gradientUnits="userSpaceOnUse">
<stop stop-color="white"/>
<stop offset="1" stop-color="white"/>
</linearGradient>
<radialGradient id="paint7_radial_3798_13210" cx="0" cy="0" r="1" gradientTransform="matrix(-120.702 21.5225 -215.482 -15.3198 102.534 -7.77275e-07)" gradientUnits="userSpaceOnUse">
<stop stop-color="#22D3EE"/>
<stop offset="1" stop-color="#1D4ED8"/>
</radialGradient>
<linearGradient id="paint8_linear_3798_13210" x1="126.873" y1="22.7581" x2="-82.338" y2="22.7581" gradientUnits="userSpaceOnUse">
<stop stop-color="white"/>
<stop offset="1" stop-color="white"/>
</linearGradient>
<radialGradient id="paint9_radial_3798_13210" cx="0" cy="0" r="1" gradientTransform="matrix(-120.702 21.5225 -215.482 -15.3198 102.534 -7.77275e-07)" gradientUnits="userSpaceOnUse">
<stop stop-color="#22D3EE"/>
<stop offset="1" stop-color="#1D4ED8"/>
</radialGradient>
</defs>
</svg>
