<svg width="40" height="40" viewBox="0 0 40 40" fill="none" xmlns="http://www.w3.org/2000/svg">
<path opacity="0.4" d="M20 8.83349V35.5502C19.7166 35.5502 19.4166 35.5002 19.1833 35.3668L19.1166 35.3335C15.9166 33.5835 10.3333 31.7502 6.71665 31.2668L6.23331 31.2001C4.63331 31.0002 3.33331 29.5002 3.33331 27.9002V7.76682C3.33331 5.78348 4.94998 4.28349 6.93331 4.45015C10.4333 4.73349 15.7333 6.50015 18.7 8.35015L19.1166 8.60015C19.3666 8.75015 19.6833 8.83349 20 8.83349Z" fill="white" fill-opacity="0.87"/>
<path opacity="0.6" d="M36.6667 7.78257V27.8992C36.6667 29.4992 35.3667 30.9992 33.7667 31.1992L33.2167 31.2659C29.5833 31.7492 23.9833 33.5992 20.7833 35.3659C20.5667 35.4992 20.3 35.5492 20 35.5492V8.83257C20.3167 8.83257 20.6333 8.74923 20.8833 8.59923L21.1667 8.4159C24.1333 6.54923 29.45 4.7659 32.95 4.4659H33.05C35.0333 4.29923 36.6667 5.78257 36.6667 7.78257Z" fill="white" fill-opacity="0.87"/>
<path d="M12.9167 15.4004H9.16669C8.48335 15.4004 7.91669 14.8337 7.91669 14.1504C7.91669 13.4671 8.48335 12.9004 9.16669 12.9004H12.9167C13.6 12.9004 14.1667 13.4671 14.1667 14.1504C14.1667 14.8337 13.6 15.4004 12.9167 15.4004Z" fill="white" fill-opacity="0.87"/>
<path d="M14.1667 20.4004H9.16669C8.48335 20.4004 7.91669 19.8337 7.91669 19.1504C7.91669 18.4671 8.48335 17.9004 9.16669 17.9004H14.1667C14.85 17.9004 15.4167 18.4671 15.4167 19.1504C15.4167 19.8337 14.85 20.4004 14.1667 20.4004Z" fill="white" fill-opacity="0.87"/>
</svg>
