<svg width="36" height="36" viewBox="0 0 36 36" fill="none" xmlns="http://www.w3.org/2000/svg">
<path opacity="0.4" d="M31.561 10.785L18.0009 18.63L4.44095 10.785C5.04095 9.675 5.91095 8.7 6.88595 8.16L14.8959 3.72C16.6059 2.76 19.3959 2.76 21.1059 3.72L29.1159 8.16C30.091 8.7 30.961 9.675 31.561 10.785Z" fill="white" fill-opacity="0.87"/>
<path opacity="0.6" d="M18.0009 18.6302V33.0002C16.8759 33.0002 15.7509 32.7602 14.8959 32.2802L6.88594 27.8402C5.07094 26.8352 3.58594 24.3152 3.58594 22.2452V13.7552C3.58594 12.7952 3.91594 11.7452 4.44094 10.7852L18.0009 18.6302Z" fill="white" fill-opacity="0.87"/>
<path d="M32.4159 13.7552V22.2452C32.4159 24.3152 30.9309 26.8352 29.1159 27.8402L21.1059 32.2802C20.2509 32.7602 19.1259 33.0002 18.0009 33.0002V18.6302L31.5609 10.7852C32.0859 11.7452 32.4159 12.7952 32.4159 13.7552Z" fill="white" fill-opacity="0.87"/>
</svg>
