<svg width="30" height="30" viewBox="0 0 30 30" fill="none" xmlns="http://www.w3.org/2000/svg">
<path d="M26.3625 8.7249C25.3 7.5499 23.525 6.9624 20.95 6.9624H20.65V6.9124C20.65 4.8124 20.65 2.2124 15.95 2.2124H14.05C9.34999 2.2124 9.34999 4.8249 9.34999 6.9124V6.9749H9.04998C6.46249 6.9749 4.69999 7.5624 3.63749 8.7374C2.39999 10.1124 2.43749 11.9624 2.56249 13.2249L2.57499 13.3124L2.69999 14.6249C2.71249 14.6374 2.73749 14.6624 2.76249 14.6749C3.17499 14.9499 3.59999 15.2249 4.04999 15.4749C4.22499 15.5874 4.41249 15.6874 4.59999 15.7874C6.73749 16.9624 9.08749 17.7499 11.475 18.1374C11.5875 19.3124 12.1 20.6874 14.8375 20.6874C17.575 20.6874 18.1125 19.3249 18.2 18.1124C20.75 17.6999 23.2125 16.8124 25.4375 15.5124C25.5125 15.4749 25.5625 15.4374 25.625 15.3999C26.2 15.0749 26.7375 14.7249 27.2625 14.3374C27.2875 14.3249 27.3125 14.2999 27.325 14.2749L27.375 13.8249L27.4375 13.2374C27.45 13.1624 27.45 13.0999 27.4625 13.0124C27.5625 11.7499 27.5375 10.0249 26.3625 8.7249ZM16.3625 17.2874C16.3625 18.6124 16.3625 18.8124 14.825 18.8124C13.2875 18.8124 13.2875 18.5749 13.2875 17.2999V15.7249H16.3625V17.2874ZM11.1375 6.9624V6.9124C11.1375 4.7874 11.1375 3.9999 14.05 3.9999H15.95C18.8625 3.9999 18.8625 4.7999 18.8625 6.9124V6.9749H11.1375V6.9624Z" fill="white"/>
<path opacity="0.4" d="M25.625 15.375C25.5625 15.4125 25.5 15.45 25.4375 15.4875C23.2125 16.7875 20.75 17.6625 18.2 18.0875C18.1 19.2875 17.575 20.6625 14.8375 20.6625C12.1 20.6625 11.575 19.3 11.475 18.1125C9.08751 17.7375 6.73751 16.95 4.60001 15.7625C4.41251 15.6625 4.22501 15.5625 4.05001 15.45C3.60001 15.2 3.17501 14.925 2.76251 14.65C2.73751 14.6375 2.71251 14.6125 2.70001 14.6L3.46251 22.7375C3.72501 25.225 4.75001 27.7875 10.25 27.7875H19.775C25.275 27.7875 26.3 25.225 26.5625 22.725L27.35 14.25C27.3375 14.275 27.3125 14.3 27.2875 14.3125C26.75 14.7 26.2 15.0625 25.625 15.375Z" fill="white"/>
</svg>
