<svg width="19" height="18" viewBox="0 0 19 18" fill="none" xmlns="http://www.w3.org/2000/svg">
    <path opacity=".4" d="M16.25 4.5v5.188a1 1 0 0 1-1 1H4.5a1 1 0 0 1-1-1V4.5a3 3 0 0 1 3-3h6.75a3 3 0 0 1 3 3z" fill="#fff"/>
    <path d="M6.5 9.563h-.75A.567.567 0 0 1 5.187 9c0-.307.255-.563.563-.563h.75c.308 0 .563.256.563.563a.567.567 0 0 1-.563.563zM6.5 7.688h-.75a.567.567 0 0 1-.563-.563c0-.308.255-.563.563-.563h.75c.308 0 .563.255.563.563a.567.567 0 0 1-.563.563zM6.5 5.813h-.75a.567.567 0 0 1-.563-.563c0-.308.255-.563.563-.563h.75c.308 0 .563.255.563.563a.567.567 0 0 1-.563.563zM4.5 11.813a1 1 0 0 0-1 1v.687a3 3 0 0 0 3 3h6.75a3 3 0 0 0 3-3v-.688a1 1 0 0 0-1-1H4.5zm9.283 2.782a.789.789 0 0 1-.533.217.789.789 0 0 1-.533-.217.789.789 0 0 1-.217-.533c0-.194.082-.39.217-.532.278-.277.78-.277 1.066 0a.789.789 0 0 1 .217.533c0 .194-.082.39-.217.532z" fill="#fff"/>
</svg>
