<svg width="16" height="16" viewBox="0 0 16 16" fill="none" xmlns="http://www.w3.org/2000/svg">
<mask id="mask0_3205_10844" style="mask-type:alpha" maskUnits="userSpaceOnUse" x="0" y="0" width="16" height="16">
<rect width="16" height="16" transform="matrix(-1 0 0 1 16 0)" fill="#D9D9D9"/>
</mask>
<g mask="url(#mask0_3205_10844)">
<path d="M12.1483 14C12.4742 14 12.7532 13.8825 12.9853 13.6475C13.2174 13.4125 13.3335 13.13 13.3335 12.8V4.4C13.3335 4.07 13.2174 3.7875 12.9853 3.5525C12.7532 3.3175 12.4742 3.2 12.1483 3.2H11.5557V2H10.3705V3.2H5.62979V2H4.44461V3.2H3.85202C3.52609 3.2 3.24708 3.3175 3.01498 3.5525C2.78288 3.7875 2.66683 4.07 2.66683 4.4V12.8C2.66683 13.13 2.78288 13.4125 3.01498 13.6475C3.24708 13.8825 3.52609 14 3.85202 14H12.1483ZM12.1483 12.8H3.85202V6.8H12.1483V12.8ZM12.1483 5.6H3.85202V4.4H12.1483V5.6ZM8.00016 9.2C8.16806 9.2 8.3088 9.1425 8.42239 9.0275C8.53597 8.9125 8.59276 8.77 8.59276 8.6C8.59276 8.43 8.53597 8.2875 8.42239 8.1725C8.3088 8.0575 8.16806 8 8.00016 8C7.83226 8 7.69152 8.0575 7.57794 8.1725C7.46436 8.2875 7.40757 8.43 7.40757 8.6C7.40757 8.77 7.46436 8.9125 7.57794 9.0275C7.69152 9.1425 7.83226 9.2 8.00016 9.2ZM10.3705 9.2C10.5384 9.2 10.6792 9.1425 10.7928 9.0275C10.9063 8.9125 10.9631 8.77 10.9631 8.6C10.9631 8.43 10.9063 8.2875 10.7928 8.1725C10.6792 8.0575 10.5384 8 10.3705 8C10.2026 8 10.0619 8.0575 9.94831 8.1725C9.83473 8.2875 9.77794 8.43 9.77794 8.6C9.77794 8.77 9.83473 8.9125 9.94831 9.0275C10.0619 9.1425 10.2026 9.2 10.3705 9.2ZM5.62979 9.2C5.79769 9.2 5.93843 9.1425 6.05201 9.0275C6.1656 8.9125 6.22239 8.77 6.22239 8.6C6.22239 8.43 6.1656 8.2875 6.05201 8.1725C5.93843 8.0575 5.79769 8 5.62979 8C5.46189 8 5.32115 8.0575 5.20757 8.1725C5.09399 8.2875 5.0372 8.43 5.0372 8.6C5.0372 8.77 5.09399 8.9125 5.20757 9.0275C5.32115 9.1425 5.46189 9.2 5.62979 9.2ZM8.00016 11.6C8.16806 11.6 8.3088 11.5425 8.42239 11.4275C8.53597 11.3125 8.59276 11.17 8.59276 11C8.59276 10.83 8.53597 10.6875 8.42239 10.5725C8.3088 10.4575 8.16806 10.4 8.00016 10.4C7.83226 10.4 7.69152 10.4575 7.57794 10.5725C7.46436 10.6875 7.40757 10.83 7.40757 11C7.40757 11.17 7.46436 11.3125 7.57794 11.4275C7.69152 11.5425 7.83226 11.6 8.00016 11.6ZM10.3705 11.6C10.5384 11.6 10.6792 11.5425 10.7928 11.4275C10.9063 11.3125 10.9631 11.17 10.9631 11C10.9631 10.83 10.9063 10.6875 10.7928 10.5725C10.6792 10.4575 10.5384 10.4 10.3705 10.4C10.2026 10.4 10.0619 10.4575 9.94831 10.5725C9.83473 10.6875 9.77794 10.83 9.77794 11C9.77794 11.17 9.83473 11.3125 9.94831 11.4275C10.0619 11.5425 10.2026 11.6 10.3705 11.6ZM5.62979 11.6C5.79769 11.6 5.93843 11.5425 6.05201 11.4275C6.1656 11.3125 6.22239 11.17 6.22239 11C6.22239 10.83 6.1656 10.6875 6.05201 10.5725C5.93843 10.4575 5.79769 10.4 5.62979 10.4C5.46189 10.4 5.32115 10.4575 5.20757 10.5725C5.09399 10.6875 5.0372 10.83 5.0372 11C5.0372 11.17 5.09399 11.3125 5.20757 11.4275C5.32115 11.5425 5.46189 11.6 5.62979 11.6Z" fill="white" fill-opacity="0.87"/>
</g>
</svg>
