<svg width="24" height="24" viewBox="0 0 24 24" fill="none" xmlns="http://www.w3.org/2000/svg">
<path d="M16.75 3.56V2C16.75 1.59 16.41 1.25 16 1.25C15.59 1.25 15.25 1.59 15.25 2V3.5H8.75V2C8.75 1.59 8.41 1.25 8 1.25C7.59 1.25 7.25 1.59 7.25 2V3.56C4.55 3.81 3.24 5.42 3.04 7.81C3.02 8.1 3.26 8.34 3.54 8.34H20.46C20.75 8.34 20.99 8.09 20.96 7.81C20.76 5.42 19.45 3.81 16.75 3.56Z" fill="white" fill-opacity="0.87"/>
<path d="M20 9.8399C20.55 9.8399 20.9999 10.29 21 10.8399V17.0001C21 20 19.5 22.0001 16 22.0001H8C4.50001 22.0001 3.00001 20 3 17.0001V10.8399C3.00007 10.29 3.45004 9.8399 4 9.8399H20ZM8.7002 16.5196C8.50022 16.4796 8.3001 16.5002 8.12012 16.5801C7.99012 16.6301 7.89004 16.7001 7.79004 16.7901C7.61004 16.9801 7.5 17.2401 7.5 17.5001C7.5 17.7601 7.61004 18.02 7.79004 18.21C7.89004 18.3 7.99012 18.37 8.12012 18.42C8.2401 18.47 8.37002 18.5001 8.5 18.5001C8.57 18.5001 8.6302 18.4905 8.7002 18.4805C8.76014 18.4705 8.81994 18.4499 8.87988 18.42C8.93977 18.4 8.99968 18.37 9.05957 18.3301C9.10957 18.3001 9.15996 18.25 9.20996 18.21C9.38996 18.02 9.5 17.7601 9.5 17.5001C9.5 17.2401 9.38996 16.9801 9.20996 16.7901C9.15997 16.7501 9.10957 16.71 9.05957 16.67C9.02957 16.65 8.99973 16.6322 8.96973 16.6172L8.79004 16.543C8.76002 16.533 8.73022 16.5246 8.7002 16.5196ZM12.71 16.7901C12.34 16.4201 11.66 16.4201 11.29 16.7901C11.11 16.9801 11 17.2401 11 17.5001C11 17.7601 11.11 18.02 11.29 18.21C11.48 18.39 11.74 18.5001 12 18.5001C12.26 18.5001 12.52 18.39 12.71 18.21C12.89 18.02 13 17.7601 13 17.5001C13 17.2401 12.89 16.9801 12.71 16.7901ZM16.21 16.7901C15.84 16.4201 15.16 16.4201 14.79 16.7901C14.61 16.9801 14.5 17.2401 14.5 17.5001C14.5 17.7601 14.61 18.02 14.79 18.21C14.98 18.39 15.24 18.5001 15.5 18.5001C15.76 18.5001 16.02 18.39 16.21 18.21C16.39 18.02 16.5 17.7601 16.5 17.5001C16.5 17.2401 16.39 16.9801 16.21 16.7901ZM8.87988 13.0801C8.5099 12.9202 8.07002 13.0101 7.79004 13.2901C7.61004 13.4801 7.5 13.7401 7.5 14.0001C7.5 14.2601 7.61004 14.52 7.79004 14.71C7.98004 14.89 8.24 15.0001 8.5 15.0001C8.76 15.0001 9.01996 14.89 9.20996 14.71C9.38996 14.52 9.5 14.2601 9.5 14.0001C9.5 13.7401 9.38996 13.4801 9.20996 13.2901C9.11996 13.2001 9.00988 13.1301 8.87988 13.0801ZM12.71 13.2901C12.43 13.0101 11.9901 12.9202 11.6201 13.0801C11.4901 13.1301 11.38 13.2001 11.29 13.2901C11.11 13.4801 11 13.7401 11 14.0001C11 14.2601 11.11 14.52 11.29 14.71C11.48 14.89 11.74 15.0001 12 15.0001C12.07 15.0001 12.1302 14.9905 12.2002 14.9805C12.2302 14.9755 12.26 14.9671 12.29 14.9571L12.4697 14.8829C12.4997 14.8679 12.5296 14.8501 12.5596 14.8301C12.6096 14.7901 12.66 14.75 12.71 14.71C12.89 14.52 13 14.2601 13 14.0001C13 13.7401 12.89 13.4801 12.71 13.2901ZM15.7002 13.0196C15.5002 12.9796 15.3001 13.0002 15.1201 13.0801C14.9901 13.1301 14.89 13.2001 14.79 13.2901C14.61 13.4801 14.5 13.7401 14.5 14.0001C14.5 14.2601 14.61 14.52 14.79 14.71C14.98 14.89 15.24 15.0001 15.5 15.0001C15.56 15.0001 15.6302 14.9905 15.7002 14.9805C15.7601 14.9705 15.8199 14.9499 15.8799 14.92C15.9398 14.9 15.9997 14.87 16.0596 14.8301C16.1096 14.7901 16.16 14.75 16.21 14.71C16.39 14.52 16.5 14.2601 16.5 14.0001C16.5 13.7401 16.39 13.4801 16.21 13.2901C16.16 13.2501 16.1096 13.21 16.0596 13.17C16.0296 13.15 15.9997 13.1322 15.9697 13.1172L15.79 13.043C15.76 13.033 15.7302 13.0246 15.7002 13.0196Z" fill="white" fill-opacity="0.87"/>
</svg>
