<svg width="41" height="41" viewBox="0 0 41 41" fill="none" xmlns="http://www.w3.org/2000/svg">
    <path opacity=".4" d="M11.933 37.166H29.4c4.6 0 6.433-2.816 6.65-6.25l.867-13.766c.233-3.6-2.634-6.65-6.25-6.65a2.739 2.739 0 0 1-2.417-1.484L27.05 6.6c-.767-1.517-2.767-2.767-4.467-2.767h-3.816c-1.717 0-3.717 1.25-4.484 2.767l-1.2 2.416c-.466.9-1.4 1.484-2.416 1.484-3.617 0-6.484 3.05-6.25 6.65l.866 13.766c.2 3.434 2.05 6.25 6.65 6.25z" fill="#fff"/>
    <path d="M23.166 15.083h-5a1.26 1.26 0 0 1-1.25-1.25c0-.683.567-1.25 1.25-1.25h5c.684 0 1.25.567 1.25 1.25a1.26 1.26 0 0 1-1.25 1.25zM20.666 30.717a5.633 5.633 0 1 0 0-11.267 5.633 5.633 0 0 0 0 11.267z" fill="#fff"/>
</svg>
