<svg width="32" height="32" viewBox="0 0 32 32" fill="none" xmlns="http://www.w3.org/2000/svg">
<path d="M28.3333 29.332H3.66663C3.11996 29.332 2.66663 28.8787 2.66663 28.332C2.66663 27.7854 3.11996 27.332 3.66663 27.332H28.3333C28.88 27.332 29.3333 27.7854 29.3333 28.332C29.3333 28.8787 28.88 29.332 28.3333 29.332Z" fill="white" fill-opacity="0.87"/>
<path opacity="0.4" d="M27.4533 18.2663L17.8133 27.9063C15.92 29.7996 12.8666 29.7996 10.9866 27.9196L4.83997 21.773L21.32 5.29297L27.4666 11.4396C29.3466 13.3196 29.3466 16.373 27.4533 18.2663Z" fill="white" fill-opacity="0.87"/>
<path d="M21.32 5.29355L4.82663 21.7735L3.61329 20.5602C1.73329 18.6802 1.73329 15.6269 3.62663 13.7335L13.2666 4.09355C15.16 2.20021 18.2133 2.20021 20.0933 4.08021L21.32 5.29355Z" fill="white" fill-opacity="0.87"/>
<path d="M17.1867 23.4665L15.3867 25.2665C15.0133 25.6398 14.4133 25.6398 14.04 25.2665C13.6667 24.8932 13.6667 24.2932 14.04 23.9198L15.84 22.1198C16.2133 21.7465 16.8133 21.7465 17.1867 22.1198C17.56 22.4932 17.56 23.0932 17.1867 23.4665Z" fill="white" fill-opacity="0.87"/>
<path d="M23.0267 17.6267L19.44 21.2133C19.0667 21.5867 18.4667 21.5867 18.0934 21.2133C17.72 20.84 17.72 20.24 18.0934 19.8667L21.68 16.28C22.0534 15.9067 22.6534 15.9067 23.0267 16.28C23.3867 16.6533 23.3867 17.2533 23.0267 17.6267Z" fill="white" fill-opacity="0.87"/>
</svg>
