<svg width="48" height="48" viewBox="0 0 48 48" fill="none" xmlns="http://www.w3.org/2000/svg">
<path d="M24 4.5C26.7132 4.5 29.1456 5.70217 30.7939 7.59766C33.3001 7.42256 35.8703 8.29225 37.7891 10.2109C39.7078 12.1297 40.5783 14.7 40.4033 17.2061C42.2986 18.8544 43.5 21.287 43.5 24C43.5 26.7135 42.2982 29.1466 40.4023 30.7949C40.5769 33.3005 39.7063 35.8697 37.7881 37.7881C35.8696 39.7066 33.2997 40.577 30.7939 40.4023C29.1456 42.298 26.7133 43.5 24 43.5C21.2869 43.5 18.8544 42.2986 17.2061 40.4033C14.6999 40.5784 12.1298 39.7078 10.2109 37.7891C8.29219 35.8703 7.42167 33.3001 7.59668 30.7939C5.70143 29.1456 4.5 26.713 4.5 24C4.5 21.2869 5.70139 18.8544 7.59668 17.2061C7.42181 14.7002 8.2925 12.1305 10.2109 10.2119C12.1296 8.29324 14.7 7.42273 17.2061 7.59766C18.8544 5.70204 21.2867 4.5 24 4.5ZM28.6621 19.3379C28.2114 18.8874 27.4653 18.8874 27.0146 19.3379L24 22.3516L20.9854 19.3379C20.5347 18.8874 19.7886 18.8874 19.3379 19.3379C18.8873 19.7884 18.8874 20.5339 19.3379 20.9844L22.3525 23.998L19.3379 27.0117C18.8873 27.4622 18.8873 28.2077 19.3379 28.6582C19.5709 28.8911 19.866 28.9999 20.1611 29C20.4564 29 20.7523 28.8912 20.9854 28.6582L24 25.6445L27.0146 28.6582C27.2477 28.8912 27.5436 29 27.8389 29C28.134 28.9999 28.4291 28.8911 28.6621 28.6582C29.1127 28.2077 29.1127 27.4622 28.6621 27.0117L25.6475 23.998L28.6621 20.9844C29.1126 20.5339 29.1127 19.7884 28.6621 19.3379Z" fill="white"/>
</svg>
