<svg width="56" height="95" viewBox="0 0 56 95" fill="none" xmlns="http://www.w3.org/2000/svg">
<path opacity="0.4" d="M42.1638 0H12.9523C3.44476 0 0 3.44476 0 13.1245V81.2088C0 90.8886 3.44476 94.3333 12.9523 94.3333H42.1294C51.6713 94.3333 55.1161 90.8886 55.1161 81.2088V13.1245C55.1161 3.44476 51.6713 0 42.1638 0Z" fill="white" fill-opacity="0.87"/>
<path d="M34.4476 14.6398H20.6685C19.2562 14.6398 18.085 13.4686 18.085 12.0562C18.085 10.6439 19.2562 9.47266 20.6685 9.47266H34.4476C35.8599 9.47266 37.0311 10.6439 37.0311 12.0562C37.0311 13.4686 35.8599 14.6398 34.4476 14.6398Z" fill="white" fill-opacity="0.87"/>
<path d="M27.558 85.0332C30.8873 85.0332 33.5863 82.3342 33.5863 79.0049C33.5863 75.6755 30.8873 72.9766 27.558 72.9766C24.2286 72.9766 21.5297 75.6755 21.5297 79.0049C21.5297 82.3342 24.2286 85.0332 27.558 85.0332Z" fill="white" fill-opacity="0.87"/>
<path opacity="0.4" d="M35.5498 39.7886L32.2959 36.5347C31.2995 35.5383 29.9534 34.9766 28.5437 34.9766H23.3183C20.1385 34.9766 18.0187 37.0964 18.0187 40.2762V54.0552C18.0187 57.235 20.1385 59.3548 23.3183 59.3548H31.7977C34.9775 59.3548 37.0973 57.235 37.0973 54.0552V43.5302C37.0973 42.1205 36.5356 40.7744 35.5498 39.7886Z" fill="white" fill-opacity="0.87"/>
<path d="M27.028 50.0821V46.1074H25.4381C23.6892 46.1074 22.2583 47.5383 22.2583 49.2872V50.3471H26.763C26.9114 50.3471 27.028 50.2305 27.028 50.0821Z" fill="white" fill-opacity="0.87"/>
<path d="M28.353 50.3471H32.8577V49.2872C32.8577 47.5383 31.4268 46.1074 29.6779 46.1074H28.088V50.0821C28.088 50.2305 28.2046 50.3471 28.353 50.3471Z" fill="white" fill-opacity="0.87"/>
<path d="M26.763 51.4062H22.2583V52.4662C22.2583 54.2151 23.6892 55.646 25.4381 55.646H27.028V51.6712C27.028 51.5228 26.9114 51.4062 26.763 51.4062Z" fill="white" fill-opacity="0.87"/>
<path d="M28.088 51.6712V55.646H29.6779C31.4268 55.646 32.8577 54.2151 32.8577 52.4662V51.4062H28.353C28.2046 51.4062 28.088 51.5228 28.088 51.6712Z" fill="white" fill-opacity="0.87"/>
</svg>
