<svg width="16" height="16" viewBox="0 0 16 16" fill="none" xmlns="http://www.w3.org/2000/svg">
<mask id="mask0_3205_10849" style="mask-type:alpha" maskUnits="userSpaceOnUse" x="0" y="0" width="16" height="16">
<rect width="16" height="16" transform="matrix(-1 0 0 1 16 0)" fill="#D9D9D9"/>
</mask>
<g mask="url(#mask0_3205_10849)">
<path d="M8 14C8.83 14 9.61 13.8425 10.34 13.5275C11.07 13.2125 11.705 12.785 12.245 12.245C12.785 11.705 13.2125 11.07 13.5275 10.34C13.8425 9.61 14 8.83 14 8C14 7.17 13.8425 6.39 13.5275 5.66C13.2125 4.93 12.785 4.295 12.245 3.755C11.705 3.215 11.07 2.7875 10.34 2.4725C9.61 2.1575 8.83 2 8 2C7.17 2 6.39 2.1575 5.66 2.4725C4.93 2.7875 4.295 3.215 3.755 3.755C3.215 4.295 2.7875 4.93 2.4725 5.66C2.1575 6.39 2 7.17 2 8C2 8.83 2.1575 9.61 2.4725 10.34C2.7875 11.07 3.215 11.705 3.755 12.245C4.295 12.785 4.93 13.2125 5.66 13.5275C6.39 13.8425 7.17 14 8 14ZM8 12.8C6.66 12.8 5.525 12.335 4.595 11.405C3.665 10.475 3.2 9.34 3.2 8H8V3.2C9.34 3.2 10.475 3.665 11.405 4.595C12.335 5.525 12.8 6.66 12.8 8C12.8 9.34 12.335 10.475 11.405 11.405C10.475 12.335 9.34 12.8 8 12.8Z" fill="white" fill-opacity="0.87"/>
</g>
</svg>
