<svg width="18" height="18" viewBox="0 0 18 18" fill="none" xmlns="http://www.w3.org/2000/svg">
    <path opacity=".4" d="M12.578 14.235H5.423a.754.754 0 0 1-.705-.495l-3.12-8.738c-.248-.697.547-1.29 1.14-.862l3 2.145a.755.755 0 0 0 1.14-.345l1.417-3.78c.24-.653 1.163-.653 1.403 0l1.417 3.78a.75.75 0 0 0 1.14.345l3-2.145c.6-.428 1.388.172 1.14.862l-3.12 8.738a.737.737 0 0 1-.697.495z" fill="#000"/>
    <path d="M12.75 16.5h-7.5a.567.567 0 0 1-.563-.563c0-.307.255-.562.563-.562h7.5c.307 0 .563.255.563.563a.567.567 0 0 1-.563.562zM10.875 11.063h-3.75a.567.567 0 0 1-.563-.563c0-.307.255-.563.563-.563h3.75c.307 0 .563.256.563.563a.567.567 0 0 1-.563.563z" fill="#000"/>
</svg>
