<svg width="20" height="20" viewBox="0 0 20 20" fill="none" xmlns="http://www.w3.org/2000/svg">
    <path d="M17.558 4.359a92.785 92.785 0 0 0-4.033-.309v-.008l-.183-1.083c-.125-.767-.309-1.917-2.259-1.917H8.9c-1.942 0-2.125 1.1-2.258 1.908l-.175 1.067c-.775.05-1.55.1-2.325.175l-1.7.167a.626.626 0 0 0-.567.683.62.62 0 0 0 .683.558l1.7-.166c4.367-.434 8.767-.267 13.184.175h.066a.631.631 0 0 0 .625-.567.639.639 0 0 0-.575-.683z" fill="#fff"/>
    <path opacity=".399" d="M16.025 6.783a1.054 1.054 0 0 0-.758-.325H4.733a1.04 1.04 0 0 0-1.041 1.108l.516 8.55c.092 1.267.209 2.85 3.117 2.85h5.35c2.908 0 3.025-1.575 3.117-2.85l.516-8.541a1.08 1.08 0 0 0-.283-.792z" fill="#fff"/>
    <path fill-rule="evenodd" clip-rule="evenodd" d="M7.983 14.167c0-.345.28-.625.625-.625h2.775a.625.625 0 1 1 0 1.25H8.608a.625.625 0 0 1-.625-.625zM7.292 10.833c0-.345.28-.625.625-.625h4.166a.625.625 0 0 1 0 1.25H7.916a.625.625 0 0 1-.625-.625z" fill="#fff"/>
</svg>
