<svg width="40" height="41" viewBox="0 0 40 41" fill="none" xmlns="http://www.w3.org/2000/svg">
    <path opacity=".4" d="M34.167 17.483H29.35c-3.95 0-7.167-3.217-7.167-7.167V5.5c0-.917-.75-1.667-1.666-1.667H13.45c-5.133 0-9.283 3.333-9.283 9.283v14.767c0 5.95 4.15 9.283 9.283 9.283h13.1c5.133 0 9.283-3.333 9.283-9.283V19.15c0-.917-.75-1.667-1.666-1.667z" fill="#fff"/>
    <path d="M26.333 4.183c-.683-.683-1.866-.217-1.866.733v5.817c0 2.433 2.066 4.45 4.583 4.45 1.583.017 3.783.017 5.667.017.95 0 1.45-1.117.783-1.784C33.1 11 28.8 6.65 26.333 4.183zM19.217 21.283l-3.334-3.333c-.016-.017-.033-.017-.033-.034-.1-.1-.233-.183-.367-.25h-.033c-.133-.05-.267-.066-.4-.083h-.133a1.074 1.074 0 0 0-.434.117c-.133.066-.266.133-.366.25l-3.334 3.333a1.258 1.258 0 0 0 0 1.767 1.258 1.258 0 0 0 1.767 0l1.2-1.2v6.983c0 .683.567 1.25 1.25 1.25a1.26 1.26 0 0 0 1.25-1.25V21.85l1.2 1.2c.25.25.567.366.883.366.317 0 .634-.116.884-.366a1.257 1.257 0 0 0 0-1.767z" fill="#fff"/>
</svg>
