<svg width="20" height="20" viewBox="0 0 20 20" fill="none" xmlns="http://www.w3.org/2000/svg">
    <path opacity=".4" d="M17.084 8.492h-2.409a3.589 3.589 0 0 1-3.583-3.583V2.5a.836.836 0 0 0-.834-.833H6.726c-2.566 0-4.641 1.667-4.641 4.642v7.383c0 2.975 2.075 4.642 4.641 4.642h6.55c2.567 0 4.642-1.667 4.642-4.642V9.325a.836.836 0 0 0-.834-.833z" fill="#fff"/>
    <path d="M13.167 1.842c-.342-.342-.934-.108-.934.367v2.908c0 1.217 1.034 2.225 2.292 2.225.792.008 1.892.008 2.833.008.475 0 .725-.558.392-.891-1.2-1.209-3.35-3.384-4.583-4.617zM9.167 14.791a.618.618 0 0 1-.442-.183.629.629 0 0 1 0-.883l.6-.6H5.834a.63.63 0 0 1-.625-.626.63.63 0 0 1 .625-.625h3.491l-.6-.6a.618.618 0 0 1-.183-.441c0-.159.058-.317.183-.442a.629.629 0 0 1 .883 0l1.667 1.667c.108.108.167.25.175.383v.133a.645.645 0 0 1-.15.325l-.033.034L9.6 14.6a.565.565 0 0 1-.433.191z" fill="#fff"/>
</svg>
