<svg width="28" height="28" viewBox="0 0 28 28" fill="none" xmlns="http://www.w3.org/2000/svg">
<path d="M23.7114 8.18613C23.7308 8.41946 23.7114 8.6625 23.6531 8.90556L20.3767 22.0597C20.1433 23.0416 19.2683 23.7222 18.2572 23.7222H5.48221C4.01416 23.7222 2.97389 22.2833 3.40167 20.8736L7.49472 7.71942C7.77666 6.80553 8.62251 6.18335 9.57529 6.18335H21.5336C22.4669 6.18335 23.2253 6.73751 23.5461 7.51529C23.6433 7.71946 23.6919 7.95279 23.7114 8.18613Z" fill="url(#paint0_radial_2516_4550)"/>
<path d="M24.6852 21.4083C24.7824 22.6625 23.7907 23.7222 22.5366 23.7222H18.2588C19.2699 23.7222 20.1449 23.0416 20.3782 22.0597L23.6546 8.90552C23.7129 8.66247 23.7324 8.41942 23.7129 8.18609L23.7227 8.16663L24.6852 21.4083Z" fill="white"/>
<path d="M11.7448 9.26549C11.6865 9.26549 11.6282 9.25575 11.5698 9.24603C11.1809 9.14881 10.9379 8.75995 11.0351 8.36133L12.0462 4.16133C12.1434 3.77244 12.5323 3.53912 12.9309 3.62662C13.3198 3.72384 13.5629 4.1127 13.4657 4.51131L12.4545 8.71132C12.3768 9.04188 12.0754 9.26549 11.7448 9.26549Z" fill="white"/>
<path d="M18.2579 9.27505C18.2093 9.27505 18.151 9.27503 18.1023 9.25559C17.7135 9.16809 17.4607 8.77918 17.5385 8.39029L18.4523 4.17088C18.5398 3.77227 18.9287 3.5292 19.3176 3.60698C19.7065 3.69448 19.9593 4.08338 19.8815 4.47227L18.9676 8.69168C18.8996 9.04168 18.5982 9.27505 18.2579 9.27505Z" fill="white"/>
<path d="M17.5968 14.7292H9.81901C9.4204 14.7292 9.08984 14.3987 9.08984 14C9.08984 13.6014 9.4204 13.2709 9.81901 13.2709H17.5968C17.9954 13.2709 18.326 13.6014 18.326 14C18.326 14.3987 17.9954 14.7292 17.5968 14.7292Z" fill="white"/>
<path d="M16.6251 18.6182H8.84733C8.44872 18.6182 8.11816 18.2877 8.11816 17.8891C8.11816 17.4905 8.44872 17.1599 8.84733 17.1599H16.6251C17.0237 17.1599 17.3543 17.4905 17.3543 17.8891C17.3543 18.2877 17.0237 18.6182 16.6251 18.6182Z" fill="white"/>
<defs>
<radialGradient id="paint0_radial_2516_4550" cx="0" cy="0" r="1" gradientTransform="matrix(-24.031 15.0981 -42.9013 -10.7469 23.7187 6.18335)" gradientUnits="userSpaceOnUse">
<stop stop-color="#22D3EE"/>
<stop offset="1" stop-color="#1D4ED8"/>
</radialGradient>
</defs>
</svg>
