<svg width="32" height="32" viewBox="0 0 32 32" fill="none" xmlns="http://www.w3.org/2000/svg">
<path opacity="0.4" d="M21.5868 2.66602H10.4134C5.56008 2.66602 2.66675 5.55935 2.66675 10.4127V21.5727C2.66675 26.4394 5.56008 29.3327 10.4134 29.3327H21.5734C26.4268 29.3327 29.3201 26.4394 29.3201 21.586V10.4127C29.3334 5.55935 26.4401 2.66602 21.5868 2.66602Z" fill="white" fill-opacity="0.87"/>
<path d="M21 13H11C10.4533 13 10 12.5467 10 12C10 11.4533 10.4533 11 11 11H21C21.5467 11 22 11.4533 22 12C22 12.5467 21.5467 13 21 13Z" fill="white" fill-opacity="0.87"/>
<path d="M21 21H11C10.4533 21 10 20.5467 10 20C10 19.4533 10.4533 19 11 19H21C21.5467 19 22 19.4533 22 20C22 20.5467 21.5467 21 21 21Z" fill="white" fill-opacity="0.87"/>
</svg>
