<svg width="20" height="20" viewBox="0 0 20 20" fill="none" xmlns="http://www.w3.org/2000/svg">
    <path opacity=".4" d="M17.084 8.492h-2.409a3.589 3.589 0 0 1-3.583-3.583V2.5a.836.836 0 0 0-.834-.833H6.726c-2.566 0-4.641 1.667-4.641 4.642v7.383c0 2.975 2.075 4.642 4.641 4.642h6.55c2.567 0 4.642-1.667 4.642-4.642V9.325a.836.836 0 0 0-.834-.833z" fill="#fff"/>
    <path d="M13.167 1.842c-.342-.342-.934-.108-.934.367v2.908c0 1.217 1.034 2.225 2.292 2.225.792.008 1.892.008 2.833.008.475 0 .725-.558.392-.891-1.2-1.209-3.35-3.384-4.583-4.617zM10.233 12.267a.629.629 0 0 0-.883 0l-.6.6V9.375a.63.63 0 0 0-.625-.625.63.63 0 0 0-.625.625v3.492l-.6-.6a.629.629 0 0 0-.883 0 .629.629 0 0 0 0 .883l1.666 1.667c.009.008.017.008.017.016.05.05.117.092.183.125a.818.818 0 0 0 .242.042.56.56 0 0 0 .233-.05.803.803 0 0 0 .209-.133l1.666-1.667a.629.629 0 0 0 0-.883z" fill="#fff"/>
</svg>
