<svg width="20" height="20" viewBox="0 0 20 20" fill="none" xmlns="http://www.w3.org/2000/svg">
<path d="M20.0001 14.19V5.81C20.0001 2.17 17.8301 1.3992e-06 14.1901 1.24009e-06L5.82006 8.74228e-07C2.17006 7.14682e-07 6.24344e-05 2.17 6.22752e-05 5.81L6.19094e-05 14.18C6.17503e-05 17.82 2.17006 19.99 5.81006 19.99H14.1901C17.8301 20 20.0001 17.83 20.0001 14.19Z" fill="white" fill-opacity="0.12"/>
<path d="M5.72006 8.74C5.72006 8.55 5.79006 8.36 5.94006 8.21C6.23006 7.92 6.71006 7.92 7.00006 8.21L10.0001 11.21L13.0001 8.21C13.2901 7.92 13.7701 7.92 14.0601 8.21C14.3501 8.5 14.3501 8.98 14.0601 9.27L10.5301 12.8C10.2401 13.09 9.76006 13.09 9.47006 12.8L5.94006 9.27C5.79006 9.12 5.72006 8.93 5.72006 8.74Z" fill="white" fill-opacity="0.87"/>
</svg>
