<svg width="20" height="20" viewBox="0 0 20 20" fill="none" xmlns="http://www.w3.org/2000/svg">
    <path opacity=".4" d="M17.5 18.333h-15a.63.63 0 0 1-.625-.625.63.63 0 0 1 .625-.625h15a.63.63 0 0 1 .625.625.63.63 0 0 1-.625.625zM15.85 2.9c-1.617-1.617-3.2-1.658-4.858 0L9.983 3.908a.347.347 0 0 0-.083.334 6.774 6.774 0 0 0 4.608 4.608.334.334 0 0 0 .342-.083l1-1.009c.825-.816 1.225-1.608 1.225-2.408.008-.825-.392-1.625-1.225-2.45z" fill="#fff"/>
    <path d="M13.008 9.609a9.267 9.267 0 0 1-.7-.367 7.339 7.339 0 0 1-.533-.35 5.036 5.036 0 0 1-.467-.358 1.017 1.017 0 0 1-.141-.125 7.047 7.047 0 0 1-.859-.867c-.025-.017-.066-.075-.125-.15-.083-.1-.225-.267-.35-.458a4.575 4.575 0 0 1-.325-.492c-.133-.225-.25-.45-.366-.683a9.298 9.298 0 0 1-.292-.717l-5.233 5.233a1.003 1.003 0 0 0-.234.459l-.45 3.191c-.083.567.075 1.1.425 1.459.3.291.717.45 1.167.45.1 0 .2-.009.3-.025l3.2-.45a.927.927 0 0 0 .458-.234l5.234-5.233a11.378 11.378 0 0 1-.709-.283z" fill="#fff"/>
</svg>
