<svg width="20" height="20" viewBox="0 0 20 20" fill="none" xmlns="http://www.w3.org/2000/svg">
    <path d="M14.334 10.333c-2.209 0-4 1.792-4 4 0 .75.208 1.458.583 2.058a3.974 3.974 0 0 0 3.417 1.942 3.963 3.963 0 0 0 3.416-1.942 3.95 3.95 0 0 0 .584-2.058c0-2.208-1.792-4-4-4zm1.983 3.475-2.133 1.967a.636.636 0 0 1-.425.166.618.618 0 0 1-.442-.183l-.983-.983a.629.629 0 0 1 0-.884.629.629 0 0 1 .883 0l.558.559 1.692-1.567a.63.63 0 0 1 .883.033.64.64 0 0 1-.033.892z" fill="#E0E0E0"/>
    <path opacity=".4" d="M18.333 7.241c0 .992-.158 1.909-.433 2.759a8.94 8.94 0 0 1-.667 1.583 3.97 3.97 0 0 0-2.9-1.25c-2.208 0-4 1.792-4 4 0 1.025.392 1.958 1.025 2.667a8.552 8.552 0 0 1-.841.341c-.284.1-.75.1-1.034 0C7.475 16.658 3.416 14.166 2.1 10a8.899 8.899 0 0 1-.433-2.759c0-2.575 2.075-4.658 4.633-4.658 1.508 0 2.858.733 3.7 1.858a4.624 4.624 0 0 1 3.7-1.858c2.558 0 4.633 2.083 4.633 4.658z" fill="#E0E0E0"/>
</svg>
