<svg width="48" height="48" viewBox="0 0 48 48" fill="none" xmlns="http://www.w3.org/2000/svg">
    <path d="M16.2 42.442a24.318 24.318 0 0 1-4.415-14.005c0-6.748 5.468-12.218 12.212-12.218 6.745 0 12.213 5.47 12.213 12.218" stroke="#E0E0E0" stroke-width="2" stroke-linecap="round" stroke-linejoin="round"/>
    <path d="M16.2 42.442a24.318 24.318 0 0 1-4.415-14.005c0-6.748 5.468-12.218 12.213-12.218 6.744 0 12.212 5.47 12.212 12.218" stroke="#E0E0E0" stroke-width="2" stroke-linecap="round" stroke-linejoin="round"/>
    <path d="M36.872 40.624c-.22.012-.436.032-.658.032-6.744 0-12.212-5.47-12.212-12.218" stroke="#E0E0E0" stroke-width="2" stroke-linecap="round" stroke-linejoin="round"/>
    <path d="M36.872 40.624c-.22.012-.435.032-.657.032-6.745 0-12.213-5.47-12.213-12.218" stroke="#E0E0E0" stroke-width="2" stroke-linecap="round" stroke-linejoin="round"/>
    <path d="M26.539 44c-5.189-3.236-8.645-8.995-8.645-15.563a6.109 6.109 0 1 1 12.215 0 6.108 6.108 0 1 0 12.214 0c0-10.123-8.203-18.328-18.32-18.328s-18.32 8.205-18.32 18.328c0 2.257.253 4.454.717 6.572" stroke="#E0E0E0" stroke-width="2" stroke-linecap="round" stroke-linejoin="round"/>
    <path d="M26.539 44c-5.189-3.236-8.645-8.995-8.645-15.563a6.109 6.109 0 1 1 12.215 0 6.108 6.108 0 1 0 12.214 0c0-10.123-8.203-18.328-18.32-18.328s-18.32 8.205-18.32 18.328c0 2.257.253 4.454.717 6.572" stroke="#E0E0E0" stroke-width="2" stroke-linecap="round" stroke-linejoin="round"/>
    <path d="M41.051 11.726C36.887 6.996 30.798 4 24.001 4c-6.798 0-12.887 2.996-17.052 7.726" stroke="#E0E0E0" stroke-width="2" stroke-linecap="round" stroke-linejoin="round"/>
    <path d="M41.051 11.726C36.887 6.996 30.798 4 24.001 4c-6.798 0-12.887 2.996-17.052 7.726" stroke="#E0E0E0" stroke-width="2" stroke-linecap="round" stroke-linejoin="round"/>
</svg>
