<svg width="20" height="20" viewBox="0 0 20 20" fill="none" xmlns="http://www.w3.org/2000/svg">
    <path d="m17.55 9.85-.134-.183a2.673 2.673 0 0 0-.825-.675 2.84 2.84 0 0 0-1.408-.367H4.808c-.5 0-.975.125-1.408.367a2.818 2.818 0 0 0-.858.716 2.946 2.946 0 0 0-.625 2.109l.308 3.891c.108 1.175.25 2.625 2.892 2.625h9.766c2.642 0 2.775-1.45 2.892-2.633l.308-3.875c.075-.7-.108-1.4-.533-1.975zm-5.559 4.6H8a.585.585 0 0 1-.583-.583c0-.317.258-.584.583-.584h3.992c.324 0 .583.267.583.584a.58.58 0 0 1-.583.583z" fill="#fff"/>
    <path opacity=".4" d="M2.817 9.425a2.84 2.84 0 0 1 1.992-.8h10.383c.5 0 .975.125 1.408.367.217.117.409.267.584.442v-1.25c0-2.975-.909-3.884-3.884-3.884h-1.983c-.367 0-.375-.008-.592-.291l-1-1.342c-.475-.617-.85-1-2.041-1H6.7c-2.975 0-3.883.908-3.883 3.883v3.875z" fill="#fff"/>
</svg>
