<svg width="42" height="42" viewBox="0 0 42 42" fill="none" xmlns="http://www.w3.org/2000/svg">
    <path opacity=".4" d="M38.273 16.52H3.727v-5.285A7.737 7.737 0 0 1 11.463 3.5h4.077c2.852 0 3.745.928 4.883 2.45l2.45 3.255c.542.717.612.822 1.627.822h4.883c4.147-.017 7.682 2.713 8.89 6.493z" fill="#fff"/>
    <path d="M38.483 18.97a8.898 8.898 0 0 0-.438-2.45H3.5v12.617c0 5.163 4.2 9.362 9.363 9.362h16.274c5.163 0 9.363-4.2 9.363-9.362v-9.765c0-.122 0-.28-.017-.402zM25.095 31.114a1.375 1.375 0 0 1-.927.385c-.333 0-.665-.123-.928-.386l-2.17-2.17-2.24 2.24a1.298 1.298 0 0 1-.927.386c-.333 0-.665-.123-.928-.386a1.32 1.32 0 0 1 0-1.855l2.24-2.24-2.17-2.17a1.32 1.32 0 0 1 0-1.855 1.32 1.32 0 0 1 1.855 0l2.17 2.17 2.1-2.1a1.32 1.32 0 0 1 1.855 0 1.32 1.32 0 0 1 0 1.855l-2.1 2.1 2.17 2.17a1.32 1.32 0 0 1 0 1.855z" fill="#fff"/>
</svg>
