<svg width="40" height="40" viewBox="0 0 40 40" fill="none" xmlns="http://www.w3.org/2000/svg">
    <path d="M36.667 23.167v3.817c0 6.066-3.617 9.683-9.684 9.683H13.017c-4.25 0-7.317-1.783-8.75-4.95l.183-.133 8.2-5.5c1.333-.9 3.217-.8 4.4.233l.567.467c1.3 1.116 3.4 1.116 4.7 0l6.933-5.95c1.3-1.117 3.4-1.117 4.7 0l2.717 2.333z" fill="#000" fill-opacity=".87"/>
    <path opacity=".4" d="M34.95 13.333h-4.9c-2.117 0-3.383-1.267-3.383-3.383v-4.9c0-.667.133-1.234.366-1.717H13.017c-6.067 0-9.684 3.617-9.684 9.683v13.967c0 1.817.317 3.4.934 4.733l.183-.133 8.2-5.5c1.333-.9 3.217-.8 4.4.233l.567.467c1.3 1.117 3.4 1.117 4.7 0l6.933-5.95c1.3-1.117 3.4-1.117 4.7 0l2.717 2.333V12.966c-.484.234-1.05.367-1.717.367z" fill="#000" fill-opacity=".87"/>
    <path d="M15 17.3a3.967 3.967 0 1 0 0-7.934 3.967 3.967 0 0 0 0 7.933zM34.95 1.667h-4.9c-2.117 0-3.383 1.267-3.383 3.383v4.9c0 2.117 1.266 3.384 3.383 3.384h4.9c2.117 0 3.383-1.267 3.383-3.384v-4.9c0-2.116-1.266-3.383-3.383-3.383zm1.567 6.55a1.078 1.078 0 0 1-.684.3h-2.35l.017 2.317a1.054 1.054 0 0 1-.317.716.984.984 0 0 1-.683.284c-.55 0-1-.45-1-1V8.5l-2.333.017c-.55 0-1-.467-1-1.017 0-.55.45-1 1-1l2.333.017V4.184c0-.55.45-1.017 1-1.017s1 .467 1 1.017L33.483 6.5h2.35c.55 0 1 .45 1 1a1.134 1.134 0 0 1-.316.717z" fill="#000" fill-opacity=".87"/>
</svg>
