<svg width="20" height="20" viewBox="0 0 20 20" fill="none" xmlns="http://www.w3.org/2000/svg">
    <path opacity=".4" d="M18.333 6.508v5.075l-1.358-1.167c-.65-.558-1.7-.558-2.35 0l-3.467 2.976c-.65.558-1.7.558-2.35 0l-.283-.234c-.592-.516-1.533-.566-2.2-.117l-4.1 2.75-.092.067c-.308-.667-.466-1.458-.466-2.367V6.509c0-3.033 1.808-4.841 4.841-4.841h6.984c3.033 0 4.841 1.808 4.841 4.841z" fill="#fff"/>
    <path d="M7.5 8.65a1.983 1.983 0 1 0 0-3.967 1.983 1.983 0 0 0 0 3.967zM18.333 11.584v1.908c0 3.033-1.808 4.841-4.841 4.841H6.508c-2.125 0-3.658-.891-4.375-2.474l.092-.067 4.1-2.75c.667-.45 1.608-.4 2.2.117l.283.233c.65.558 1.7.558 2.35 0l3.467-2.975c.65-.559 1.7-.559 2.35 0l1.358 1.167z" fill="#fff"/>
</svg>
