<svg width="37" height="25" viewBox="0 0 37 25" fill="none" xmlns="http://www.w3.org/2000/svg">
    <g clip-path="url(#n7ql0lx12a)">
        <path d="M.795.499h36v24h-36v-24z" fill="#fff"/>
        <path d="M.795.499h36v8h-36v-8z" fill="#FF6820"/>
        <path d="M.795 16.499h36v8h-36v-8z" fill="#046A38"/>
        <path d="M18.795 16.2a3.7 3.7 0 1 0 0-7.4 3.7 3.7 0 0 0 0 7.4z" fill="#07038D"/>
        <path d="M18.795 15.7a3.2 3.2 0 1 0 0-6.4 3.2 3.2 0 0 0 0 6.4z" fill="#fff"/>
        <path d="M18.795 13.14a.64.64 0 1 0 0-1.28.64.64 0 0 0 0 1.28z" fill="#07038D"/>
        <path d="m18.795 9.299.12 1.925-.12.954-.12-.954.12-1.925zM19.194 9.465a.14.14 0 1 0 .037-.278.14.14 0 0 0-.037.278zM18.795 15.7l-.12-1.926.12-.954.12.954-.12 1.925zM18.395 15.533a.14.14 0 1 0-.036.278.14.14 0 0 0 .036-.278zM19.623 9.408l-.383 1.891-.362.89.13-.952.615-1.829zM19.966 9.672a.14.14 0 1 0 .107-.26.14.14 0 0 0-.107.26zM17.967 15.591l.382-1.891.363-.89-.131.952-.614 1.829zM17.624 15.327a.14.14 0 1 0-.107.259.14.14 0 0 0 .107-.259zM20.395 9.729l-.86 1.728-.58.765.373-.885 1.067-1.608zM20.658 10.073a.14.14 0 1 0 .17-.222.14.14 0 0 0-.17.222zM17.194 15.271l.86-1.728.58-.765-.373.885-1.067 1.608zM16.931 14.927a.14.14 0 1 0-.17.222.14.14 0 0 0 .17-.222zM21.058 10.237l-1.277 1.447-.76.59.59-.76 1.447-1.277zM21.222 10.637a.14.14 0 1 0 .222-.17.14.14 0 0 0-.222.17zM16.532 14.763l1.277-1.447.759-.59-.59.76-1.446 1.277zM16.367 14.363a.14.14 0 1 0-.222.17.14.14 0 0 0 .222-.17zM21.567 10.9l-1.608 1.066-.886.373.766-.58 1.728-.86zM21.622 11.328a.14.14 0 1 0 .259-.107.14.14 0 0 0-.259.107zM16.024 14.1l1.608-1.066.885-.373-.765.58-1.728.86zM15.968 13.67a.14.14 0 1 0-.258.108.14.14 0 0 0 .258-.107zM21.886 11.672l-1.829.614-.952.13.89-.362 1.891-.382zM21.829 12.1a.14.14 0 1 0 .278-.037.14.14 0 0 0-.278.037zM15.704 13.327l1.829-.614.952-.13-.89.362-1.891.382zM15.761 12.898a.14.14 0 1 0-.277.036.14.14 0 0 0 .277-.036zM21.995 12.5l-1.926.12-.954-.12.954-.12 1.926.12zM21.829 12.9a.14.14 0 1 0 .277.036.14.14 0 0 0-.277-.037zM15.595 12.5l1.925-.12.954.12-.954.12-1.925-.12zM15.76 12.1a.14.14 0 1 0-.277-.037.14.14 0 0 0 .278.037zM21.886 13.329l-1.89-.383-.89-.362.951.13 1.83.615zM21.622 13.67a.14.14 0 1 0 .259.108.14.14 0 0 0-.259-.107zM15.704 11.672l1.891.383.89.362-.952-.13-1.829-.615zM15.968 11.33a.14.14 0 1 0-.259-.107.14.14 0 0 0 .259.107zM21.567 14.1l-1.728-.859-.766-.58.886.372 1.608 1.067zM21.223 14.363a.14.14 0 1 0 .222.17.14.14 0 0 0-.222-.17zM16.024 10.9l1.727.859.766.58-.886-.372-1.607-1.067zM16.368 10.637a.14.14 0 1 0-.223-.17.14.14 0 0 0 .223.17zM21.058 14.764l-1.447-1.277-.59-.76.76.59 1.277 1.447zM20.658 14.928a.14.14 0 1 0 .17.223.14.14 0 0 0-.17-.223zM16.533 10.237l1.446 1.277.59.76-.76-.59-1.276-1.447zM16.932 10.072a.14.14 0 1 0-.17-.222.14.14 0 0 0 .17.223zM20.395 15.27l-1.067-1.607-.372-.886.58.766.86 1.728zM19.966 15.327a.14.14 0 1 0 .107.259.14.14 0 0 0-.107-.259zM17.195 9.727l1.067 1.608.373.886-.58-.766-.86-1.728zM17.624 9.672a.14.14 0 1 0-.107-.259.14.14 0 0 0 .107.259zM19.623 15.592l-.614-1.83-.13-.952.362.89.382 1.892zM19.195 15.534a.14.14 0 1 0 .036.277.14.14 0 0 0-.037-.277zM17.967 9.407l.614 1.83.13.951-.362-.89-.382-1.89zM18.396 9.464a.14.14 0 1 0-.037-.277.14.14 0 0 0 .037.277z" fill="#07038D"/>
    </g>
    <defs>
        <clipPath id="n7ql0lx12a">
            <path fill="#fff" transform="translate(.795 .5)" d="M0 0h36v24H0z"/>
        </clipPath>
    </defs>
</svg>
