<svg width="40" height="40" viewBox="0 0 40 40" fill="none" xmlns="http://www.w3.org/2000/svg">
<path opacity="0.4" d="M17.9167 4.0832C19.0833 3.09987 20.9667 3.09987 22.1 4.0832L24.7333 6.3332C25.2333 6.74987 26.1833 7.09987 26.85 7.09987H29.6833C31.45 7.09987 32.9 8.54987 32.9 10.3165V13.1499C32.9 13.8165 33.25 14.7499 33.6667 15.2499L35.9167 17.8832C36.9 19.0499 36.9 20.9332 35.9167 22.0665L33.6667 24.6999C33.25 25.1999 32.9 26.1332 32.9 26.7999V29.6332C32.9 31.3999 31.45 32.8499 29.6833 32.8499H26.85C26.1833 32.8499 25.25 33.1999 24.75 33.6165L22.1167 35.8665C20.95 36.8499 19.0667 36.8499 17.9333 35.8665L15.3 33.6165C14.8 33.1999 13.85 32.8499 13.2 32.8499H10.2833C8.51667 32.8499 7.06667 31.3999 7.06667 29.6332V26.7832C7.06667 26.1332 6.73334 25.1832 6.31667 24.6999L4.06667 22.0499C3.10001 20.8999 3.10001 19.0332 4.06667 17.8832L6.31667 15.2332C6.73334 14.7332 7.06667 13.7999 7.06667 13.1499V10.3332C7.06667 8.56654 8.51667 7.11654 10.2833 7.11654H13.1667C13.8333 7.11654 14.7667 6.76654 15.2667 6.34987L17.9167 4.0832Z" fill="white" fill-opacity="0.87"/>
<path d="M20 12.3014C20.9167 12.3014 21.6667 13.0514 21.6667 13.9681C21.6667 14.8848 20.9334 15.6348 20 15.6348C19.0834 15.6348 18.3334 14.8848 18.3334 13.9681C18.3334 13.0514 19.0667 12.3014 20 12.3014Z" fill="white" fill-opacity="0.87"/>
<path d="M20.0001 17.5505C20.6834 17.5505 21.2501 18.1172 21.2501 18.8005L21.2501 26.8672C21.2501 27.5505 20.6834 28.1172 20.0001 28.1172C19.3167 28.1172 18.7501 27.5505 18.7501 26.8672L18.7501 18.8172C18.7501 18.1172 19.3001 17.5505 20.0001 17.5505Z" fill="white" fill-opacity="0.87"/>
</svg>
