<svg width="28" height="28" viewBox="0 0 28 28" fill="none" xmlns="http://www.w3.org/2000/svg">
<path d="M25.667 7.00001V9.82335C25.667 11.6667 24.5003 12.8333 22.657 12.8333H18.667V4.67835C18.667 3.38335 19.7287 2.32168 21.0237 2.33335C22.2953 2.34501 23.462 2.85835 24.302 3.69835C25.142 4.55001 25.667 5.71668 25.667 7.00001Z" fill="white"/>
<path d="M2.33301 8.16665V24.5C2.33301 25.4683 3.42967 26.0166 4.19967 25.4333L6.19467 23.94C6.66134 23.59 7.31467 23.6366 7.73467 24.0566L9.67134 26.005C10.1263 26.46 10.873 26.46 11.328 26.005L13.288 24.045C13.6963 23.6366 14.3497 23.59 14.8047 23.94L16.7997 25.4333C17.5697 26.005 18.6663 25.4566 18.6663 24.5V4.66665C18.6663 3.38331 19.7163 2.33331 20.9997 2.33331H8.16634H6.99967C3.49967 2.33331 2.33301 4.42165 2.33301 6.99998V8.16665Z" fill="url(#paint0_radial_2052_1551)"/>
<path d="M14 14.3033H10.5C10.0217 14.3033 9.625 14.7 9.625 15.1783C9.625 15.6567 10.0217 16.0533 10.5 16.0533H14C14.4783 16.0533 14.875 15.6567 14.875 15.1783C14.875 14.7 14.4783 14.3033 14 14.3033Z" fill="white"/>
<path d="M10.5 11.3867H14C14.4783 11.3867 14.875 10.99 14.875 10.5117C14.875 10.0333 14.4783 9.63666 14 9.63666H10.5C10.0217 9.63666 9.625 10.0333 9.625 10.5117C9.625 10.99 10.0217 11.3867 10.5 11.3867Z" fill="white"/>
<path d="M6.96452 9.34497C6.31118 9.34497 5.79785 9.86997 5.79785 10.5116C5.79785 11.1533 6.32285 11.6783 6.96452 11.6783C7.60618 11.6783 8.13118 11.1533 8.13118 10.5116C8.13118 9.86997 7.60618 9.34497 6.96452 9.34497Z" fill="white"/>
<path d="M6.96452 14.0117C6.31118 14.0117 5.79785 14.5367 5.79785 15.1783C5.79785 15.82 6.32285 16.345 6.96452 16.345C7.60618 16.345 8.13118 15.82 8.13118 15.1783C8.13118 14.5367 7.60618 14.0117 6.96452 14.0117Z" fill="white"/>
<defs>
<radialGradient id="paint0_radial_2052_1551" cx="0" cy="0" r="1" gradientTransform="matrix(-21.9741 20.6713 -39.2292 -14.7138 20.9997 2.33331)" gradientUnits="userSpaceOnUse">
<stop stop-color="#22D3EE"/>
<stop offset="1" stop-color="#1D4ED8"/>
</radialGradient>
</defs>
</svg>
