<svg width="53" height="25" viewBox="0 0 53 25" fill="none" xmlns="http://www.w3.org/2000/svg">
    <path fill-rule="evenodd" clip-rule="evenodd" d="M52.784 9.196a.786.786 0 0 1-.424.587.691.691 0 0 1-.264.068.862.862 0 0 1-.499.673c-.32.156-.74.172-1.147.187-.534.02-1.27.066-1.775.234-.492.688.361.96.783.371.439.179 1.049.573.696 1.096a1.419 1.419 0 0 0-.098.162c-.08.162-.073.359-.064.567.01.214.017.436-.066.65a.63.63 0 0 1-.309.345c-.217.105-.477.079-.728.054a2.857 2.857 0 0 0-.32-.02l-.127.003-.038-.123c-.041-.139-.05-.248-.056-.327-.005-.057-.008-.095-.023-.128l-.041-.053a1.332 1.332 0 0 0-.268-.152c-.038.184-.027.166-.023.313.078.317.1.556-.29.958-.1.102-.237.19-.367.276-.148.096-.315.212-.411.363-.083.13-.05.235-.037.511l-.29-.221c-.247-.19-.363-.458-.474-.715-.082-.189-.155-.36-.27-.487-.134.353-.424.735-.636.94-.094.09-.195.195-.292.295-.158.163-.321.333-.474.462l-.186.157-.084-.229c-.045-.125-.043-.323-.04-.552l.002-.179c-.146.193-.19.35-.313.56l-.028.09c-.096.312-.194.635-.419.892-.117.133-.26.255-.399.372-.055.047-.109.092-.16.138-.22.146-.207.151-.14.424.083.326.122.665.16.994.03.26.061.53.114.785.07.343.31.698.543 1.043.289.428.587.87.61 1.34.16.041.534.084.728.107.233.027.319.038.368.052.372.116.437.151.529.382a1.991 1.991 0 0 0 .176.35c.092.148.194.316.226.482.05.257.006.47-.129.633-.189.23-.546.343-1.092.343-.387 0-.783-.05-1.176-.057-.35-.006-.711-.013-1.008-.087-.595-.15-.681-.495-.772-.86a3.474 3.474 0 0 0-.096-.335c-.093-.261-.33-.389-.605-.536-.26-.14-.527-.284-.696-.559-.08-.128-.127-.252-.173-.37-.067-.171-.13-.333-.284-.494-.116-.124-.248-.233-.386-.349-.202-.168-.412-.343-.58-.57-.348-.474-.785-1.1-1.092-1.764-.032-.063-.056-.13-.083-.202l-.001-.001a1.717 1.717 0 0 0-.591-.47 2.147 2.147 0 0 0-.133-.052c-.016.001-.031.004-.047.006a2.146 2.146 0 0 1-.28.023 2.383 2.383 0 0 1-1.897-.904c-.327-.405-.857.076-1.044.358-.028.04-.052.077-.073.105-.226.323-.42.68-.606 1.026-.191.356-.39.725-.63 1.066-.104.145-.211.291-.314.431-.265.359-.538.729-.748 1.124-.16.306-.262.584-.307.85a2.481 2.481 0 0 0-.054.515.486.486 0 0 1 .148.001.735.735 0 0 1 .37.24c.064.074.09.155.109.215.009.024.017.05.025.065.015.004.047.007.07.01.027.003.057.007.089.014.117.025.227.068.334.109l.049.02c.201.078.475.183.585.416.115.24.13.437.049.605-.14.291-.533.383-.848.457a6.763 6.763 0 0 1-1.487.185c-.478 0-.883-.07-1.204-.21-.255-.112-.699-.348-.803-.68-.096-.298.04-.53.148-.715.04-.067.076-.13.1-.193a.73.73 0 0 0 .057-.183l-.06-.028a.93.93 0 0 1-.32-.21c-.295-.305-.155-.87-.125-.982.077-.273.18-.507.28-.734.154-.352.3-.685.317-1.114.032-.725.225-1.398.41-2.049.11-.38.221-.773.302-1.175.057-.284.018-.385-.01-.42-.034-.039-.109-.059-.226-.059-.088 0-.197.011-.354.035a5.776 5.776 0 0 1-.867.055c-.25 0-.5-.009-.721-.018-.969-.035-1.216-.086-2.171-.482a10.965 10.965 0 0 0-.65-.254c-.146-.05-.297-.113-.456-.181-.36-.152-.731-.31-1.053-.31l-.02.001c-.298.006-.455.25-.638.533-.054.083-.109.167-.169.248-.554.745-.432 2.026-.938 2.959-.075.137-.16.267-.24.392-.252.387-.468.722-.374 1.19.09.454.51.788.916 1.112.15.12.293.234.42.353.5.47.88.63 1.502.63a4.617 4.617 0 0 0 .383-.02c.086-.005.168-.013.25-.013.195 0 .428.036.672.297.172.184.436.598.413.928-.045.63-.828.648-1.399.662-.155.004-.303.007-.406.023-.5.073-.989.185-1.497.185-.17 0-.324-.012-.476-.035-.503-.082-.56-.284-.853-.61-.193-.215-.416-.335-.674-.474l-.142-.077c-.598-.332-2.606-1.974-2.999-2.58-.274-.424-.182-.988-.101-1.486.03-.18.057-.349.065-.494.018-.37-.076-2.167-.648-2.405a.235.235 0 0 0-.053-.016l-.038-.003c-.033.005-.063.038-.133.13a.956.956 0 0 1-.322.299c-.285.148-.59.192-.885.234-.346.05-.673.098-.925.31-.152.128-.28.27-.406.42-.22.455-.68.883-1.053 1.061-.434.21-.659.127-1.153.468-.316.218-.5.54-.692.91-.186.354-.558 1.992-.444 2.358.096-.004.197-.043.304-.084.151-.06.325-.127.523-.11.386.03.738.29.994.48.275.203.473.612.48.996.007.295-.098.544-.296.704-.107.087-.262.139-.43.174-.58.123-1.59.213-2.111.173-.571-.045-1.093-.218-1.262-.675-.107-.29-.163-.569-.217-.837-.089-.438-.172-.85-.469-1.242-.636-.842.02-1.901-.145-2.901-.013-.075-.045-.171-.079-.274-.073-.223-.157-.475-.102-.689.12-.463.555-.62.94-.757.2-.072.39-.141.522-.242-.139-1.026.33-2.08.71-2.93.117-.263.21-.544.31-.841.164-.487.332-.991.612-1.413l.098-.148c.317-.478.645-.972.943-1.472l.126-.208c.172-.282.334-.548.454-.87.168-.455.34-.815.558-1.154-.431.024-1.254.034-2.851.05-1.529.016-3.261.034-3.61.09-1.014.164-3.469.75-4.399 2.644-.34.692-.521 1.812-.119 2.637.293.602 1.271 1.604 1.877 1.657.232-.245.612-.297 1.03-.177.828.238 2.25 1.668 2.806 2.32l.176.206-.263.068c-.648.167-1.32.34-1.982.34a3.33 3.33 0 0 1-1.319-.262c-.517-.218-.859-.363-1.106-.908-.026-.058-.036-.137-.051-.284-.009-.081-.024-.222-.043-.289-1.098-.396-1.871-1.062-2.299-1.98-.394-.847-.48-1.871-.253-3.046a3.872 3.872 0 0 1 1.365-2.276c3.888-3.2 8.34-1.574 12.616-3.089 1.418-.501 2.608-.89 3.94-.962l.03-.001c.347-.017.716-.026 1.097-.026 1.13 0 2.274.076 3.38.148 1.102.073 2.24.148 3.36.148.142 0 .282 0 .424-.003 1.455-.026 2.9-.263 4.3-.493.595-.099 1.212-.2 1.825-.284l.071-.01c.68-.093 1.344-.247 2.01-.38l.165-.073c.399-.168 1.126-.6 1.464-.886a2.97 2.97 0 0 1 .202-.272c.197-.23.421-.463.742-.619.094-.045.191-.082.296-.112.413-.117.821-.222 1.284-.211l.209.002c.268.001.52.003.82.08.251.063.446.04.718-.082.167-.075.33-.158.496-.24.096-.049.192-.097.287-.143.533-.257 1.162-.521 1.899-.385.718.133 1.522-.246 2.297-.141.288.039.569.094.83.343.114.11.182.25.243.376.043.087.091.187.133.213.08.051.196.075.318.101.175.037.372.079.544.21.276.209.496.527.639.918.044.119.07.254.1.398.107.536.2.781.58.728a.447.447 0 0 0 .13-.043c.115-.057.242-.162.332-.277l.263-.339.04.427c.034.363-.093.66-.362.85.187.152.435.382.639.672.081.106.145.224.207.339l.064.117-.016.01c.041.103.075.213.098.326.023.125.026.191.027.233v.026c.007.023.075.133.116.2.093.15.231.3.364.444l.104.113c.16.179.303.345.44.508.27.318.525.62.869.941.041.04.082.075.119.108.212.188.395.349.337.735z" fill="#6F4D00"/>
    <path fill-rule="evenodd" clip-rule="evenodd" d="M21.242 11.18c-.048-.86.106-1.594-.275-2.542-.062-.152-.198-.253-.323-.359.66.566.204 1.932.486 3.628.283 1.697 2.315 2.672 2.315 2.672a8.23 8.23 0 0 1-.897-.765c-.72-.717-1.247-1.603-1.305-2.635zM16.285 15.892s1.552-2.855 4.479-2.967c0 0-3.02-.497-4.48 2.967zM48.249 4.849a2.801 2.801 0 0 1-.543.134c-.372.06-.763.082-1.156.207a2.01 2.01 0 0 0-.287.12 1.315 1.315 0 0 0-.707.998.87.87 0 0 0 .02.316.703.703 0 0 0 .144.276.692.692 0 0 0 .243.176.763.763 0 0 1-.177-.221.628.628 0 0 1-.073-.256.935.935 0 0 1 .123-.504c.086-.158.196-.295.333-.4.136-.106.297-.18.47-.237.346-.111.731-.153 1.113-.259.192-.052.383-.12.556-.226.173-.104.327-.244.425-.413-.147.129-.31.226-.484.289z" fill="#fff"/>
    <path fill-rule="evenodd" clip-rule="evenodd" d="M47.83 12.667a2.119 2.119 0 0 0-.24-.482c-.1-.15-.223-.284-.356-.405a5.867 5.867 0 0 0-.407-.333c-.137-.106-.272-.208-.396-.32a2.211 2.211 0 0 1-.332-.355 1.303 1.303 0 0 1-.122-.197 1.876 1.876 0 0 1-.093-.223 1.663 1.663 0 0 1-.091-.467c-.01-.16.006-.322.035-.483.057-.324.184-.64.308-.958.129-.319.264-.642.357-.981.092-.338.138-.699.069-1.04.006.347-.076.682-.2.997-.12.319-.279.62-.427.935-.15.313-.29.64-.37.995a2.15 2.15 0 0 0-.05.546 1.976 1.976 0 0 0 .208.802c.045.087.095.165.152.241.113.149.244.278.381.392.279.226.572.41.834.616.259.207.473.465.61.771.057.123.343 1.054.225.352a3.612 3.612 0 0 0-.096-.403zM35.2 16.16c.103-.046.208-.091.313-.14.148-.07.299-.145.44-.243.279-.19.528-.436.703-.726.177-.291.28-.611.33-.936-.16.287-.317.567-.512.809a3.067 3.067 0 0 1-.68.62c-.192.132-1.537 1.03-.594.615zM33.872 5.647a4.78 4.78 0 0 0-.05.24l-.038.231c-.1.611-.226 1.222-.478 1.775-.13.273-.29.534-.524.724a1.187 1.187 0 0 1-.393.217c-.145.047-.3.065-.457.06.153.035.315.042.475.013.16-.027.315-.093.454-.182.138-.09.258-.205.363-.33.107-.125.194-.263.273-.405.157-.283.268-.587.358-.894.046-.153.085-.309.118-.464.034-.155.063-.312.09-.468l.037-.231a4.246 4.246 0 0 1 .169-.659c.05-.143.104-.286.168-.424.457-1.004-.383.059-.565.797zM44.26 14.721a2.403 2.403 0 0 0-.094-1.005 1.717 1.717 0 0 0-.1-.236 4.28 4.28 0 0 0-.117-.225 4.78 4.78 0 0 0-.276-.422 7.666 7.666 0 0 0-.647-.768c-.454-.493-.977-.916-1.499-1.323l-.788-.602c-.132-.1-.26-.2-.388-.304l-.388-.309c-.515-.406-1.017-.83-1.397-1.347a3.566 3.566 0 0 1-.465-.834 3.704 3.704 0 0 1-.224-.931 5.013 5.013 0 0 1-.006-.97c.013-.163.034-.325.059-.486.025-.16.062-.317.112-.47.096-.31.248-.602.461-.847a1.89 1.89 0 0 1 .802-.546 1.89 1.89 0 0 0-.461.186c-.146.084-.28.188-.399.307-.239.239-.414.538-.534.853-.06.158-.106.323-.14.487-.034.165-.062.33-.083.496a4.865 4.865 0 0 0-.03 1.01 3.666 3.666 0 0 0 .691 1.902c.199.278.432.528.676.759.245.232.502.445.761.652l.39.307c.13.103.262.205.395.305l.794.594c.265.198.525.397.777.606.252.21.494.428.726.658.232.232.455.471.658.726.1.127.195.26.283.395.086.138.169.28.226.425.118.296.158.627.146.95-.013.287.055.201.078.007zM42.01 17.712a2.665 2.665 0 0 1-.246.073l-.046.01a1.65 1.65 0 0 0 .319-.597c.086-.285.097-.585.066-.875a3.266 3.266 0 0 0-.214-.844 3.873 3.873 0 0 0-.411-.768 3.162 3.162 0 0 0-.274-.344 4.801 4.801 0 0 0-.307-.304 8.874 8.874 0 0 0-.662-.544c-.454-.342-.928-.647-1.37-.982-.443-.335-.857-.701-1.185-1.14a3.882 3.882 0 0 1-.226-.338 5.442 5.442 0 0 1-.506-1.13 6.44 6.44 0 0 1-.306-1.633c-.03-.556.013-1.12.165-1.662a4.702 4.702 0 0 0-.287 1.664c-.002.285.02.57.06.852a6 6 0 0 0 .663 2.029 4.493 4.493 0 0 0 .801 1.02c.207.202.428.384.653.557.452.347.923.657 1.371.987.185.137.308.216.646.522.1.092.2.188.295.286.091.096.177.2.257.31.158.22.292.459.399.71.104.25.185.511.224.78.039.266.033.539-.03.798a1.483 1.483 0 0 1-.386.69l-.132.134.185-.009a1.09 1.09 0 0 0 .272-.053c.087-.026.17-.058.252-.09.495-.204.42-.265-.04-.11zM30.583 13.636c-.105.18-.164.382-.202.582-.072.402-.062.81-.01 1.209.006.05.015.098.02.143a3.252 3.252 0 0 1 .026.421c0 .19-.013.38-.037.57-.04.384-.123.772-.145 1.17.136-.372.277-.738.367-1.132.043-.195.073-.397.083-.6a3.084 3.084 0 0 0 0-.308 2.956 2.956 0 0 0-.015-.153c-.005-.053-.013-.102-.019-.15a5.706 5.706 0 0 1-.05-1.141 2.08 2.08 0 0 1 .106-.552.863.863 0 0 1 .338-.446.682.682 0 0 0-.266.145 1.033 1.033 0 0 0-.196.242zM17.092 12.98v-1.996l-.247.917h-.816l-.241-.912v1.991h-.853V8.358h.837l.668 2.112.669-2.112h.837v4.622h-.854zM19.736 12.98v-1.352h-.492v1.352h-.853V8.876c0-.286.232-.518.517-.518h1.17c.286 0 .518.232.518.518v4.104h-.86zm0-3.769h-.492v1.564h.492V9.211zM22.441 12.98l-.014-.053-.576-1.838h-.008v1.891h-.853V8.358h.853v1.865l.593-1.865h.87l-.74 2.305.74 2.317h-.865zM23.453 12.98V8.358h2.205v.853h-1.352v1.025h1.079v.853h-1.079v1.031h1.352v.86h-2.205zM27.053 8.358h.852v4.622h-.852V8.358z" fill="#fff"/>
    <path fill-rule="evenodd" clip-rule="evenodd" d="M32.042 8.358h.853v4.622h-.853V8.358zM34.637 12.98l-.507-1.765v1.765h-.853V8.358h.837l.508 1.658V8.358h.86v4.622h-.845zM35.875 12.98V8.358h1.688c.285 0 .517.232.517.518v3.586c0 .281-.237.518-.517.518h-1.688zm1.345-3.769h-.492v2.91h.492V9.21zM38.513 8.358h.853v4.622h-.853V8.358zM41.093 12.98v-1.352H40.6v1.352h-.853V8.876c0-.286.232-.518.517-.518h1.17c.285 0 .517.232.517.518v4.104h-.86zm0-3.769H40.6v1.564h.492V9.211zM29.647 12.98l-.508-1.765v1.765h-.852V8.358h.837l.508 1.658V8.358h.859v4.622h-.844z" fill="#fff"/>
</svg>
