<svg width="40" height="40" viewBox="0 0 40 40" fill="none" xmlns="http://www.w3.org/2000/svg">
<path opacity="0.4" d="M27.0667 3.33398H12.9334C8.33335 3.33398 6.66669 5.00065 6.66669 9.68398V30.3173C6.66669 35.0007 8.33335 36.6673 12.9334 36.6673H27.05C31.6667 36.6673 33.3334 35.0007 33.3334 30.3173V9.68398C33.3334 5.00065 31.6667 3.33398 27.0667 3.33398Z" fill="white" fill-opacity="0.87"/>
<path d="M23.3334 10.416H16.6667C15.9834 10.416 15.4167 9.84935 15.4167 9.16602C15.4167 8.48268 15.9834 7.91602 16.6667 7.91602H23.3334C24.0167 7.91602 24.5834 8.48268 24.5834 9.16602C24.5834 9.84935 24.0167 10.416 23.3334 10.416Z" fill="white" fill-opacity="0.87"/>
<path d="M20 32.1673C21.6108 32.1673 22.9166 30.8615 22.9166 29.2506C22.9166 27.6398 21.6108 26.334 20 26.334C18.3891 26.334 17.0833 27.6398 17.0833 29.2506C17.0833 30.8615 18.3891 32.1673 20 32.1673Z" fill="white" fill-opacity="0.87"/>
</svg>
