<svg width="20" height="20" viewBox="0 0 20 20" fill="none" xmlns="http://www.w3.org/2000/svg">
    <path d="M8.575 8.617v6.725a3 3 0 0 1-2.992 2.991 2.995 2.995 0 0 1-2.991-2.991 2.993 2.993 0 0 1 2.991-2.984c.692 0 1.317.242 1.825.634V8.95l1.167-.333zM17.408 6.1v7.633a2.995 2.995 0 0 1-2.991 2.992 3 3 0 0 1-2.992-2.992 2.998 2.998 0 0 1 2.992-2.983c.7 0 1.325.242 1.833.642V6.433l1.158-.333z" fill="#fff"/>
    <path opacity=".4" d="M17.408 4.317V6.1l-10 2.85V5.625c0-1.225.742-2.175 1.917-2.492l4.817-1.316c.975-.267 1.8-.175 2.383.275.592.441.883 1.191.883 2.225z" fill="#fff"/>
</svg>
