<svg width="12" height="14" viewBox="0 0 12 14" fill="none" xmlns="http://www.w3.org/2000/svg">
<path d="M6.01231 0C8.54882 7.65422e-05 10.6155 2.07031 10.6156 4.61755V5.92305C10.6156 6.2599 10.7703 6.81409 10.9454 7.10177L11.7371 8.42097C12.0244 8.91219 12.0805 9.48782 11.8843 10.0211C11.6881 10.5474 11.2748 10.9475 10.7353 11.13C9.97856 11.3826 9.20037 11.5723 8.41556 11.7056C8.33853 11.7196 8.26131 11.7336 8.18427 11.7406C8.05819 11.7616 7.93193 11.7752 7.80585 11.7892C7.65175 11.8103 7.49069 11.8245 7.32958 11.8386C6.88818 11.8736 6.45372 11.8948 6.01231 11.8948C5.56386 11.8948 5.11526 11.8738 4.67382 11.8317C4.48464 11.8177 4.3024 11.7967 4.12023 11.7687C4.01512 11.7546 3.90971 11.7402 3.81161 11.7262C3.73474 11.7122 3.65787 11.7052 3.581 11.6912C2.80327 11.5649 2.03215 11.3757 1.28244 11.1231C0.721864 10.9336 0.293959 10.5334 0.104764 10.0211C-0.0843895 9.51591 -0.013821 8.9262 0.287472 8.42097L1.0792 7.10177C1.24733 6.81405 1.40147 6.25986 1.40151 5.92305V4.61755C1.40157 2.07026 3.46873 0 6.01231 0ZM5.99794 2.87004C5.70375 2.87017 5.46556 3.10923 5.46556 3.40389V5.57903C5.46556 5.87368 5.70375 6.11207 5.99794 6.11219C6.28523 6.11219 6.524 5.87376 6.53101 5.57903V3.40389C6.53101 3.10915 6.29224 2.87004 5.99794 2.87004Z" fill="#EF4444"/>
<path d="M7.98105 12.6035C7.68675 13.4176 6.90895 14 5.99801 14C5.44444 14 4.89788 13.7754 4.51248 13.3754C4.28825 13.1649 4.12008 12.8842 4.02198 12.5965C4.11307 12.6105 4.20417 12.6176 4.30227 12.6316C4.46343 12.6526 4.63161 12.6737 4.79978 12.6877C5.19919 12.7228 5.60561 12.7439 6.01203 12.7439C6.41144 12.7439 6.81085 12.7228 7.20325 12.6877C7.3504 12.6737 7.49756 12.6667 7.6377 12.6456C7.74981 12.6316 7.86193 12.6176 7.98105 12.6035Z" fill="#EF4444"/>
</svg>
