<svg width="24" height="24" viewBox="0 0 24 24" fill="none" xmlns="http://www.w3.org/2000/svg">
<path d="M12.0206 2.0498C15.6405 2.04991 18.5898 5.00003 18.5899 8.62988V10.4902C18.59 10.9703 18.8107 11.76 19.0606 12.1699L20.1905 14.0498C20.6005 14.7498 20.6805 15.5701 20.4005 16.3301C20.1205 17.08 19.5307 17.6501 18.7608 17.9102C17.6808 18.2702 16.5703 18.5405 15.4503 18.7305C15.3404 18.7505 15.2302 18.7703 15.1202 18.7803C14.9403 18.8103 14.7601 18.8296 14.5802 18.8496C14.3603 18.8796 14.1304 18.8999 13.9005 18.9199C13.2706 18.9699 12.6505 19 12.0206 19C11.3806 19 10.7404 18.9702 10.1104 18.9102C9.84046 18.8902 9.58039 18.8603 9.32041 18.8203C9.17041 18.8003 9.01998 18.7798 8.87998 18.7598C8.77028 18.7398 8.66057 18.7299 8.55088 18.71C7.44097 18.53 6.34051 18.2603 5.2706 17.9004C4.4706 17.6304 3.85994 17.0601 3.58994 16.3301C3.32 15.6101 3.42071 14.7698 3.85068 14.0498L4.98056 12.1699C5.22049 11.7599 5.44047 10.9702 5.44052 10.4902V8.62988C5.44061 4.99996 8.39066 2.0498 12.0206 2.0498ZM12.0001 6.13965C11.5802 6.13983 11.2403 6.4805 11.2403 6.90039V10C11.2403 10.4199 11.5802 10.7596 12.0001 10.7598C12.4101 10.7598 12.7508 10.42 12.7608 10V6.90039C12.7608 6.48039 12.4201 6.13965 12.0001 6.13965Z" fill="white" fill-opacity="0.87"/>
<path d="M14.8302 20.01C14.4102 21.17 13.3002 22 12.0002 22C11.2102 22 10.4302 21.68 9.8802 21.11C9.5602 20.81 9.3202 20.41 9.1802 20C9.3102 20.02 9.4402 20.03 9.5802 20.05C9.8102 20.08 10.0502 20.11 10.2902 20.13C10.8602 20.18 11.4402 20.21 12.0202 20.21C12.5902 20.21 13.1602 20.18 13.7202 20.13C13.9302 20.11 14.1402 20.1 14.3402 20.07C14.5002 20.05 14.6602 20.03 14.8302 20.01Z" fill="white" fill-opacity="0.87"/>
</svg>
