<svg width="20" height="20" viewBox="0 0 20 20" fill="none" xmlns="http://www.w3.org/2000/svg">
    <path opacity=".4" d="M17.083 8.492h-2.408a3.589 3.589 0 0 1-3.583-3.584V2.5a.836.836 0 0 0-.834-.833H6.725c-2.567 0-4.642 1.666-4.642 4.641v7.383c0 2.975 2.075 4.642 4.642 4.642h6.55c2.567 0 4.642-1.666 4.642-4.641V9.325a.836.836 0 0 0-.834-.833z" fill="#fff"/>
    <path d="M13.167 1.842c-.342-.342-.934-.109-.934.366v2.909c0 1.216 1.034 2.225 2.292 2.225.792.008 1.892.008 2.833.008.475 0 .725-.558.392-.892-1.2-1.208-3.35-3.383-4.583-4.616z" fill="#fff"/>
</svg>
