<svg width="16" height="16" viewBox="0 0 16 16" fill="none" xmlns="http://www.w3.org/2000/svg">
<mask id="mask0_3205_10855" style="mask-type:alpha" maskUnits="userSpaceOnUse" x="0" y="0" width="16" height="16">
<rect width="16" height="16" transform="matrix(-1 0 0 1 16 0)" fill="#D9D9D9"/>
</mask>
<g mask="url(#mask0_3205_10855)">
<path d="M11.375 7.25C12.1 7.25 12.7188 6.99375 13.2313 6.48125C13.7438 5.96875 14 5.35 14 4.625C14 3.9 13.7438 3.28125 13.2313 2.76875C12.7188 2.25625 12.1 2 11.375 2C10.65 2 10.0312 2.25625 9.51875 2.76875C9.00625 3.28125 8.75 3.9 8.75 4.625C8.75 5.35 9.00625 5.96875 9.51875 6.48125C10.0312 6.99375 10.65 7.25 11.375 7.25ZM11.375 5.75C11.0625 5.75 10.7969 5.64062 10.5781 5.42188C10.3594 5.20312 10.25 4.9375 10.25 4.625C10.25 4.3125 10.3594 4.04688 10.5781 3.82812C10.7969 3.60938 11.0625 3.5 11.375 3.5C11.6875 3.5 11.9531 3.60938 12.1719 3.82812C12.3906 4.04688 12.5 4.3125 12.5 4.625C12.5 4.9375 12.3906 5.20312 12.1719 5.42188C11.9531 5.64062 11.6875 5.75 11.375 5.75ZM4.625 14C5.35 14 5.96875 13.7438 6.48125 13.2313C6.99375 12.7188 7.25 12.1 7.25 11.375C7.25 10.65 6.99375 10.0312 6.48125 9.51875C5.96875 9.00625 5.35 8.75 4.625 8.75C3.9 8.75 3.28125 9.00625 2.76875 9.51875C2.25625 10.0312 2 10.65 2 11.375C2 12.1 2.25625 12.7188 2.76875 13.2313C3.28125 13.7438 3.9 14 4.625 14ZM4.625 12.5C4.3125 12.5 4.04688 12.3906 3.82812 12.1719C3.60938 11.9531 3.5 11.6875 3.5 11.375C3.5 11.0625 3.60938 10.7969 3.82812 10.5781C4.04688 10.3594 4.3125 10.25 4.625 10.25C4.9375 10.25 5.20312 10.3594 5.42188 10.5781C5.64062 10.7969 5.75 11.0625 5.75 11.375C5.75 11.6875 5.64062 11.9531 5.42188 12.1719C5.20312 12.3906 4.9375 12.5 4.625 12.5ZM12.95 14L14 12.95L3.05 2L2 3.05L12.95 14Z" fill="white" fill-opacity="0.87"/>
</g>
</svg>
