<svg width="38" height="39" viewBox="0 0 38 39" fill="none" xmlns="http://www.w3.org/2000/svg">
    <g filter="url(#9rkr2wrh4a)" fill="#fff">
        <path opacity=".4" d="M18.96 29.333c7.364 0 13.333-5.97 13.333-13.333 0-7.364-5.97-13.334-13.333-13.334-7.364 0-13.333 5.97-13.333 13.334s5.97 13.333 13.333 13.333z"/>
        <path d="m22.96 13.64-3.867-2.227c-.96-.56-2.12-.56-3.08 0a3.046 3.046 0 0 0-1.533 2.667v4.467c0 1.106.573 2.106 1.533 2.666a3.046 3.046 0 0 0 3.067 0l3.867-2.227a3.046 3.046 0 0 0 1.533-2.666 2.976 2.976 0 0 0-1.52-2.68z"/>
    </g>
    <defs>
        <filter id="9rkr2wrh4a" x="-2" y="-1" width="42" height="42" filterUnits="userSpaceOnUse" color-interpolation-filters="sRGB">
            <feFlood flood-opacity="0" result="BackgroundImageFix"/>
            <feColorMatrix in="SourceAlpha" values="0 0 0 0 0 0 0 0 0 0 0 0 0 0 0 0 0 0 127 0" result="hardAlpha"/>
            <feOffset dy="4"/>
            <feGaussianBlur stdDeviation="2.5"/>
            <feComposite in2="hardAlpha" operator="out"/>
            <feColorMatrix values="0 0 0 0 0 0 0 0 0 0 0 0 0 0 0 0 0 0 0.3 0"/>
            <feBlend in2="BackgroundImageFix" result="effect1_dropShadow_290_954"/>
            <feBlend in="SourceGraphic" in2="effect1_dropShadow_290_954" result="shape"/>
        </filter>
    </defs>
</svg>
