<svg width="42" height="42" viewBox="0 0 42 42" fill="none" xmlns="http://www.w3.org/2000/svg">
<path d="M19.5773 31.2441V22.4229H10.7561C9.97041 22.4229 9.33349 21.7858 9.33334 21.0002C9.33334 20.2144 9.97032 19.5774 10.7561 19.5774H19.5773V10.7562C19.5773 9.97047 20.2143 9.3335 21 9.3335C21.7856 9.33365 22.4227 9.97057 22.4227 10.7562V19.5774H31.2439L31.3884 19.5844C32.1061 19.657 32.6667 20.2634 32.6667 21.0002C32.6665 21.7368 32.106 22.3433 31.3884 22.4159L31.2439 22.4229H22.4227V31.2441C22.4224 32.0295 21.7854 32.6667 21 32.6668C20.2144 32.6668 19.5776 32.0296 19.5773 31.2441Z" fill="white"/>
</svg>
