<svg width="18" height="18" viewBox="0 0 18 18" fill="none" xmlns="http://www.w3.org/2000/svg">
    <path opacity=".4" d="M16.492 4.515c.015.18 0 .367-.044.555L13.92 15.217a1.67 1.67 0 0 1-1.635 1.283H2.43c-1.132 0-1.935-1.11-1.605-2.198L3.983 4.155A1.681 1.681 0 0 1 5.588 2.97h9.225c.72 0 1.305.427 1.552 1.027a1.5 1.5 0 0 1 .128.518z" fill="#E0E0E0"/>
    <path d="M17.242 14.715a1.657 1.657 0 0 1-1.657 1.785h-3.3a1.67 1.67 0 0 0 1.635-1.283L16.448 5.07c.044-.187.06-.375.044-.555L16.5 4.5l.742 10.215zM7.26 5.348c-.045 0-.09-.008-.135-.015a.563.563 0 0 1-.413-.683l.78-3.24a.563.563 0 1 1 1.095.27l-.78 3.24a.561.561 0 0 1-.547.428zM12.285 5.355a.33.33 0 0 1-.12-.015.574.574 0 0 1-.435-.667l.705-3.255a.568.568 0 0 1 .667-.435c.3.067.495.367.435.667l-.705 3.255a.554.554 0 0 1-.547.45zM11.775 9.563h-6A.567.567 0 0 1 5.213 9c0-.307.255-.563.562-.563h6c.307 0 .563.256.563.563a.567.567 0 0 1-.563.563zM11.025 12.563h-6A.567.567 0 0 1 4.463 12c0-.307.255-.563.562-.563h6c.307 0 .563.256.563.563a.567.567 0 0 1-.563.563z" fill="#E0E0E0"/>
</svg>
