<svg width="14" height="16" viewBox="0 0 14 16" fill="none" xmlns="http://www.w3.org/2000/svg">
<path d="M7 2.12812C10.866 2.12812 14 5.23342 14 9.06406C14 12.8947 10.866 16 7 16C3.13401 16 1.91419e-05 12.8947 0 9.06406C0 5.23344 3.134 2.12816 7 2.12812ZM7 4.2C6.66897 4.2 6.39446 4.472 6.39446 4.8V8.8C6.39446 9.128 6.66897 9.4 7 9.4C7.33103 9.4 7.60554 9.128 7.60554 8.8V4.8C7.60554 4.472 7.33103 4.2 7 4.2Z" fill="#EAB308"/>
<path d="M9.33335 1.16H4.66665C4.34369 1.16 4.08533 0.904 4.08533 0.584C4.08533 0.264 4.34369 0 4.66665 0H9.33335C9.65631 0 9.91467 0.256 9.91467 0.576C9.91467 0.896 9.65631 1.16 9.33335 1.16Z" fill="#EAB308"/>
</svg>
