<svg width="24" height="24" viewBox="0 0 24 24" fill="none" xmlns="http://www.w3.org/2000/svg">
<path d="M12 4.66016C16.7883 4.66016 20.6699 8.54177 20.6699 13.3301C20.6699 18.1184 16.7883 22 12 22C7.21174 22 3.3301 18.1183 3.33008 13.3301C3.33008 8.5418 7.21173 4.6602 12 4.66016ZM12 7.25C11.59 7.25 11.25 7.59 11.25 8V13C11.25 13.41 11.59 13.75 12 13.75C12.41 13.75 12.75 13.41 12.75 13V8C12.75 7.59 12.41 7.25 12 7.25Z" fill="white"/>
<path d="M14.89 3.45H9.11C8.71 3.45 8.39 3.13 8.39 2.73C8.39 2.33 8.71 2 9.11 2H14.89C15.29 2 15.61 2.32 15.61 2.72C15.61 3.12 15.29 3.45 14.89 3.45Z" fill="white"/>
</svg>
