<svg width="40" height="40" viewBox="0 0 40 40" fill="none" xmlns="http://www.w3.org/2000/svg">
    <path d="M36.667 16.25a1.26 1.26 0 0 1-1.25-1.25v-3.334c0-4.3-2.784-7.083-7.084-7.083H11.667c-4.3 0-7.084 2.783-7.084 7.083V15a1.26 1.26 0 0 1-1.25 1.25A1.26 1.26 0 0 1 2.083 15v-3.334c0-5.733 3.85-9.583 9.584-9.583h16.666c5.734 0 9.584 3.85 9.584 9.583V15a1.26 1.26 0 0 1-1.25 1.25zM28.333 37.917H11.667c-5.734 0-9.584-3.85-9.584-9.584V25c0-.683.567-1.25 1.25-1.25.684 0 1.25.567 1.25 1.25v3.333c0 4.3 2.784 7.084 7.084 7.084h16.666c4.3 0 7.084-2.784 7.084-7.084V25c0-.683.566-1.25 1.25-1.25.683 0 1.25.567 1.25 1.25v3.333c0 5.734-3.85 9.584-9.584 9.584zM36.667 21.25H3.333A1.26 1.26 0 0 1 2.083 20c0-.683.567-1.25 1.25-1.25h33.334c.683 0 1.25.567 1.25 1.25a1.26 1.26 0 0 1-1.25 1.25z" fill="#000" fill-opacity=".87"/>
    <path opacity=".4" d="M25.055 8h-9.777C11.032 8 8.5 10.532 8.5 14.778v9.765c0 4.259 2.532 6.79 6.778 6.79h9.765c4.247 0 6.779-2.531 6.779-6.778v-9.777C31.833 10.532 29.302 8 25.055 8z" fill="#000" fill-opacity=".87"/>
</svg>
