<svg width="18" height="18" viewBox="0 0 18 18" fill="none" xmlns="http://www.w3.org/2000/svg">
<path d="M14.3253 8.6249C14.3251 5.47701 11.7726 2.9252 8.6247 2.9252C5.47691 2.92535 2.92516 5.47711 2.925 8.6249C2.925 11.7728 5.47682 14.3253 8.6247 14.3255C10.1627 14.3255 11.5571 13.7143 12.5824 12.7241C12.6021 12.6976 12.6234 12.6717 12.6475 12.6477C12.6715 12.6236 12.6974 12.6023 12.7239 12.5826C13.7141 11.5573 14.3253 10.1629 14.3253 8.6249ZM15.6753 8.6249C15.6753 10.3286 15.0703 11.8912 14.0643 13.11L16.2272 15.273C16.4908 15.5366 16.4908 15.9638 16.2272 16.2274C15.9636 16.491 15.5364 16.491 15.2728 16.2274L13.1098 14.0645C11.891 15.0705 10.3284 15.6755 8.6247 15.6755C4.73123 15.6753 1.575 12.5184 1.575 8.6249C1.57516 4.73153 4.73133 1.57535 8.6247 1.5752C12.5182 1.5752 15.6751 4.73143 15.6753 8.6249Z" fill="#F5F5F5"/>
</svg>
