<svg width="20" height="20" viewBox="0 0 20 20" fill="none" xmlns="http://www.w3.org/2000/svg">
    <path opacity=".4" d="m5.925 4.967 7.517-2.509c3.375-1.125 5.208.717 4.091 4.092l-2.508 7.517c-1.683 5.058-4.45 5.058-6.133 0l-.742-2.234-2.233-.741c-5.05-1.675-5.05-4.434.008-6.125z" fill="#fff"/>
    <path d="m10.1 9.692 3.175-3.183zM10.1 10.317a.618.618 0 0 1-.442-.183.629.629 0 0 1 0-.884l3.167-3.183a.629.629 0 0 1 .883 0 .629.629 0 0 1 0 .883l-3.166 3.184a.655.655 0 0 1-.442.183z" fill="#fff"/>
</svg>
