<svg width="32" height="32" viewBox="0 0 32 32" fill="none" xmlns="http://www.w3.org/2000/svg">
<path d="M21.6667 29.9999C22.9553 29.9999 24 28.9552 24 27.6666C24 26.3779 22.9553 25.3333 21.6667 25.3333C20.378 25.3333 19.3333 26.3779 19.3333 27.6666C19.3333 28.9552 20.378 29.9999 21.6667 29.9999Z" fill="white"/>
<path d="M11 29.9999C12.2887 29.9999 13.3333 28.9552 13.3333 27.6666C13.3333 26.3779 12.2887 25.3333 11 25.3333C9.71134 25.3333 8.66667 26.3779 8.66667 27.6666C8.66667 28.9552 9.71134 29.9999 11 29.9999Z" fill="white"/>
<path opacity="0.4" d="M6.45333 5.25342L6.18666 8.52008C6.13333 9.14675 6.62667 9.66675 7.25333 9.66675H27.6667C28.2267 9.66675 28.6933 9.24007 28.7333 8.68007C28.9067 6.32007 27.1067 4.40009 24.7467 4.40009H8.38666C8.25332 3.81342 7.98665 3.25341 7.57332 2.78674C6.91999 2.08008 5.98667 1.66675 5.02667 1.66675H2.66666C2.12 1.66675 1.66666 2.12008 1.66666 2.66675C1.66666 3.21341 2.12 3.66675 2.66666 3.66675H4.98667C5.4 3.66675 5.78667 3.84009 6.06667 4.13342C6.34667 4.44009 6.47999 4.84008 6.45333 5.25342Z" fill="white"/>
<path d="M27.3467 11.6667H6.89333C6.33333 11.6667 5.87999 12.0934 5.82666 12.6401L5.34666 18.4401C5.15999 20.7067 6.94666 22.6667 9.22666 22.6667H24.0533C26.0533 22.6667 27.8133 21.0268 27.96 19.0268L28.4 12.8001C28.4533 12.1868 27.9733 11.6667 27.3467 11.6667Z" fill="white"/>
</svg>
