<svg width="40" height="40" viewBox="0 0 40 40" fill="none" xmlns="http://www.w3.org/2000/svg">
<path opacity="0.4" d="M35.0833 19.5175V29.5008C35.0833 34.1008 31.35 37.8341 26.75 37.8341H12.1833C11.8 37.8341 11.4167 37.8008 11.05 37.7508C11.6667 37.4842 12.2167 37.1175 12.7167 36.6675C12.7833 36.6175 12.8333 36.5675 12.8833 36.5008C13.3333 36.1175 13.7166 35.6341 14.0333 35.1008C14.65 34.1008 15 32.9175 15 31.6675C15 29.9175 14.3166 28.3342 13.2166 27.1342C13.05 26.9508 12.8666 26.7674 12.6666 26.6174C11.4999 25.6007 9.99998 25.0008 8.33331 25.0008C7.14998 25.0008 6.03328 25.3175 5.06661 25.8675C4.74994 26.0342 4.44998 26.2341 4.16665 26.4675C4.04998 26.5508 3.94998 26.6508 3.84998 26.7508V19.6342C5.11664 21.0008 6.91666 21.7841 8.86666 21.7841C10.9667 21.7841 12.9833 20.7341 14.25 19.0508C15.3833 20.7341 17.3166 21.7841 19.4666 21.7841C21.6 21.7841 23.4999 20.7841 24.6499 19.1174C25.9333 20.7674 27.9166 21.7841 29.9833 21.7841C32 21.7841 33.8333 20.9675 35.0833 19.5175Z" fill="white" fill-opacity="0.87"/>
<path d="M24.4499 2.61719H14.4499L13.2166 14.8838C13.1166 16.0172 13.2832 17.0839 13.6999 18.0505C14.6666 20.3172 16.9333 21.7839 19.4666 21.7839C22.0333 21.7839 24.25 20.3506 25.25 18.0672C25.55 17.3506 25.7333 16.5172 25.75 15.6672V15.3505L24.4499 2.61719Z" fill="white" fill-opacity="0.87"/>
<path opacity="0.6" d="M36.7333 14.3163L36.2667 9.68294C35.5667 4.64961 33.2833 2.59961 28.3999 2.59961H22L23.2333 15.0996C23.25 15.2663 23.2667 15.4496 23.2667 15.7663C23.3667 16.633 23.6333 17.433 24.0333 18.1496C25.2333 20.3496 27.5666 21.7663 30 21.7663C32.2166 21.7663 34.2167 20.7829 35.4667 19.0496C36.45 17.7329 36.8999 16.0497 36.7333 14.3163Z" fill="white" fill-opacity="0.87"/>
<path opacity="0.6" d="M10.45 2.61719C5.55003 2.61719 3.2833 4.66713 2.56663 9.75047L2.1167 14.3338C1.95003 16.1171 2.43338 17.8505 3.48338 19.2005C4.75005 20.8505 6.70001 21.7839 8.86668 21.7839C11.3 21.7839 13.6334 20.3671 14.8167 18.2005C15.25 17.4505 15.5333 16.5838 15.6167 15.6838L16.9167 2.63387H10.45V2.61719Z" fill="white" fill-opacity="0.87"/>
<path d="M13.2167 27.1334C13.05 26.95 12.8666 26.7666 12.6666 26.6166C11.5 25.6 10 25 8.33335 25C7.15002 25 6.03332 25.3167 5.06665 25.8667C4.74998 26.0334 4.45002 26.2333 4.16669 26.4667C2.63335 27.6833 1.66669 29.5667 1.66669 31.6667C1.66669 32.9167 2.01672 34.1 2.63338 35.1C2.78338 35.3667 2.96673 35.6167 3.16673 35.85C3.20006 35.9 3.24997 35.9334 3.2833 35.9834C4.4833 37.4167 6.30002 38.3333 8.33335 38.3333C10.0167 38.3333 11.55 37.7167 12.7167 36.6667C12.7834 36.6167 12.8333 36.5667 12.8833 36.5C13.3333 36.1167 13.7167 35.6333 14.0333 35.1C14.65 34.1 15 32.9167 15 31.6667C15 29.9167 14.3167 28.3334 13.2167 27.1334ZM10.8334 32.8833H9.58335V34.1833C9.58335 34.8667 9.01669 35.4333 8.33335 35.4333C7.65002 35.4333 7.08335 34.8667 7.08335 34.1833V32.8833H5.83335C5.15002 32.8833 4.58335 32.3166 4.58335 31.6333C4.58335 30.95 5.15002 30.3833 5.83335 30.3833H7.08335V29.2C7.08335 28.5167 7.65002 27.95 8.33335 27.95C9.01669 27.95 9.58335 28.5167 9.58335 29.2V30.3833H10.8334C11.5167 30.3833 12.0834 30.95 12.0834 31.6333C12.0834 32.3166 11.5167 32.8833 10.8334 32.8833Z" fill="white" fill-opacity="0.87"/>
</svg>
