<svg width="18" height="18" viewBox="0 0 18 18" fill="none" xmlns="http://www.w3.org/2000/svg">
    <path opacity=".4" d="M4.305 12c.083-.367-.067-.893-.33-1.155L2.153 9.023c-.57-.57-.795-1.178-.63-1.703.172-.525.705-.885 1.5-1.02l2.34-.39c.337-.06.75-.36.907-.668l1.29-2.587C7.935 1.913 8.445 1.5 9 1.5c.555 0 1.065.413 1.44 1.155l1.29 2.587c.098.196.3.383.518.51L4.17 13.83c-.105.105-.285.008-.255-.143L4.305 12z" fill="#E0E0E0"/>
    <path d="M14.025 10.845c-.27.27-.42.788-.33 1.155l.518 2.258c.217.937.082 1.642-.383 1.98a1.124 1.124 0 0 1-.675.202c-.382 0-.832-.142-1.327-.435L9.63 14.7c-.345-.202-.915-.202-1.26 0l-2.198 1.305c-.832.488-1.545.57-2.002.233-.173-.128-.3-.3-.383-.525l9.12-9.12a1.488 1.488 0 0 1 1.306-.42l.757.127c.795.135 1.327.495 1.5 1.02.165.525-.06 1.133-.63 1.703l-1.815 1.822z" fill="#E0E0E0"/>
</svg>
