<svg width="28" height="28" viewBox="0 0 28 28" fill="none" xmlns="http://www.w3.org/2000/svg">
<path opacity="0.4" d="M13.9997 25.6666C20.443 25.6666 25.6663 20.4433 25.6663 14C25.6663 7.55666 20.443 2.33331 13.9997 2.33331C7.55635 2.33331 2.33301 7.55666 2.33301 14C2.33301 20.4433 7.55635 25.6666 13.9997 25.6666Z" fill="white"/>
<path d="M18.1185 16.345C17.8968 16.345 17.6752 16.2633 17.5002 16.0883L14.0002 12.5883L10.5002 16.0883C10.1618 16.4266 9.60185 16.4266 9.26352 16.0883C8.92518 15.75 8.92518 15.19 9.26352 14.8516L13.3818 10.7333C13.7202 10.395 14.2802 10.395 14.6185 10.7333L18.7368 14.8516C19.0752 15.19 19.0752 15.75 18.7368 16.0883C18.5618 16.2633 18.3402 16.345 18.1185 16.345Z" fill="white"/>
</svg>
