<svg width="28" height="28" viewBox="0 0 28 28" fill="none" xmlns="http://www.w3.org/2000/svg">
<path opacity="0.4" d="M2.33301 15.0267V12.9734C2.33301 11.76 3.32467 10.7567 4.54967 10.7567C6.66134 10.7567 7.52467 9.26336 6.46301 7.43169C5.85634 6.38169 6.21801 5.01669 7.27967 4.41003L9.29801 3.25503C10.2197 2.70669 11.4097 3.03336 11.958 3.95503L12.0863 4.17669C13.1363 6.00836 14.863 6.00836 15.9247 4.17669L16.053 3.95503C16.6013 3.03336 17.7913 2.70669 18.713 3.25503L20.7313 4.41003C21.793 5.01669 22.1547 6.38169 21.548 7.43169C20.4863 9.26336 21.3497 10.7567 23.4613 10.7567C24.6747 10.7567 25.678 11.7484 25.678 12.9734V15.0267C25.678 16.24 24.6863 17.2434 23.4613 17.2434C21.3497 17.2434 20.4863 18.7367 21.548 20.5684C22.1547 21.63 21.793 22.9834 20.7313 23.59L18.713 24.745C17.7913 25.2934 16.6013 24.9667 16.053 24.045L15.9247 23.8234C14.8747 21.9917 13.148 21.9917 12.0863 23.8234L11.958 24.045C11.4097 24.9667 10.2197 25.2934 9.29801 24.745L7.27967 23.59C6.21801 22.9834 5.85634 21.6184 6.46301 20.5684C7.52467 18.7367 6.66134 17.2434 4.54967 17.2434C3.32467 17.2434 2.33301 16.24 2.33301 15.0267Z" fill="white"/>
<path d="M13.9997 17.7916C16.0938 17.7916 17.7913 16.0941 17.7913 14C17.7913 11.9059 16.0938 10.2083 13.9997 10.2083C11.9056 10.2083 10.208 11.9059 10.208 14C10.208 16.0941 11.9056 17.7916 13.9997 17.7916Z" fill="white"/>
</svg>
