<svg width="18" height="18" viewBox="0 0 18 18" fill="none" xmlns="http://www.w3.org/2000/svg">
    <path opacity=".4" d="M9 14.25a5.25 5.25 0 1 0 0-10.5 5.25 5.25 0 0 0 0 10.5z" fill="#E0E0E0"/>
    <path d="M9 17.22c-.412 0-.75-.307-.75-.72v-.06c0-.413.338-.75.75-.75s.75.338.75.75-.338.78-.75.78zm5.355-2.115a.768.768 0 0 1-.533-.218l-.097-.097a.747.747 0 1 1 1.058-1.057l.097.097a.747.747 0 0 1-.525 1.275zm-10.71 0a.747.747 0 0 1-.532-1.275l.097-.098a.747.747 0 1 1 1.058 1.058l-.098.098a.75.75 0 0 1-.525.217zM16.5 9.75h-.06a.752.752 0 0 1-.75-.75c0-.412.338-.75.75-.75s.78.338.78.75-.307.75-.72.75zm-14.94 0H1.5A.752.752 0 0 1 .75 9c0-.412.337-.75.75-.75s.78.338.78.75-.307.75-.72.75zm12.697-5.258a.747.747 0 0 1-.533-1.275l.098-.097a.747.747 0 1 1 1.058 1.058l-.098.097a.738.738 0 0 1-.524.217zm-10.514 0a.768.768 0 0 1-.533-.217l-.098-.105A.747.747 0 1 1 4.17 3.112l.098.098a.747.747 0 0 1 0 1.058.728.728 0 0 1-.525.224zM9 2.28c-.412 0-.75-.307-.75-.72V1.5c0-.413.338-.75.75-.75s.75.337.75.75-.338.78-.75.78z" fill="#E0E0E0"/>
</svg>
