<svg width="40" height="40" viewBox="0 0 40 40" fill="none" xmlns="http://www.w3.org/2000/svg">
<path opacity="0.4" d="M28.2 36.6658C23.5333 36.6658 19.7333 32.8825 19.7333 28.1991C19.7333 23.5325 23.5167 19.7324 28.2 19.7324C32.8667 19.7324 36.6667 23.5158 36.6667 28.1991C36.6667 32.8825 32.8833 36.6658 28.2 36.6658Z" fill="white" fill-opacity="0.87"/>
<path d="M23.5 32.24L26.636 23H29.94L33.076 32.24H30.612L28.4 24.764H28.176L25.964 32.24H23.5ZM25.362 30.504V28.992H31.55V30.504H25.362Z" fill="white"/>
<path opacity="0.4" d="M8.36665 3.33398H14.9C18.35 3.33398 20.0167 5.00063 19.9333 8.3673V14.9007C20.0167 18.3507 18.35 20.0173 14.9 19.934H8.36665C4.99999 20.0006 3.33331 18.334 3.33331 14.884V8.35067C3.33331 5.00067 4.99999 3.33398 8.36665 3.33398Z" fill="white" fill-opacity="0.87"/>
<path d="M15 37.9167C7.88331 37.9167 2.08331 32.1167 2.08331 25C2.08331 24.3167 2.64998 23.75 3.33331 23.75C4.01665 23.75 4.58331 24.3167 4.58331 25C4.58331 29.9333 8.01665 34.0667 12.6333 35.15L12.1833 34.4C11.8333 33.8 12.0167 33.0333 12.6167 32.6833C13.2 32.3333 13.9833 32.5167 14.3333 33.1167L16.0833 36.0333C16.3166 36.4167 16.3167 36.9 16.1 37.2833C15.8667 37.6667 15.45 37.9167 15 37.9167Z" fill="white" fill-opacity="0.87"/>
<path d="M36.6666 16.2507C35.9833 16.2507 35.4166 15.684 35.4166 15.0007C35.4166 10.0673 31.9833 5.93399 27.3666 4.85066L27.8166 5.60063C28.1666 6.20063 27.9833 6.96734 27.3833 7.31734C26.8 7.66734 26.0166 7.48399 25.6666 6.88399L23.9167 3.96733C23.6833 3.58399 23.6833 3.10066 23.9 2.71733C24.1166 2.31733 24.5333 2.08398 24.9833 2.08398C32.1 2.08398 37.9 7.88398 37.9 15.0007C37.9166 15.684 37.35 16.2507 36.6666 16.2507Z" fill="white" fill-opacity="0.87"/>
<path d="M12.528 13.1176C12.528 14.6296 11.492 15.5116 9.84 15.5116C7.978 15.5116 6.704 14.5316 5.5 11.4936L7.012 10.7516C7.838 12.9076 8.566 13.9016 9.602 13.9016C10.274 13.9016 10.68 13.5656 10.68 12.9216C10.68 12.5296 10.498 12.1796 10.19 11.8716C9.784 11.9836 9.336 12.0396 8.846 12.0816L8.58 10.6396C10.022 10.4856 10.428 10.1776 10.428 9.64561C10.428 9.18361 10.092 8.94561 9.546 8.94561C8.986 8.94561 8.426 9.09961 7.866 9.42161L7.334 7.93761C8.034 7.57361 8.846 7.34961 9.784 7.34961C11.576 7.34961 12.318 8.30161 12.318 9.54761C12.318 10.2056 12.066 10.7656 11.59 11.1856C11.898 11.2276 12.234 11.2556 12.612 11.2556C13.102 11.2556 13.564 11.1996 14.012 11.0596V9.05761H13.13V7.48961H17.26V9.05761H15.958V16.1976H14.012V12.6416C13.69 12.7116 13.354 12.7536 13.018 12.7536C12.85 12.7536 12.668 12.7396 12.5 12.7256C12.514 12.8516 12.528 12.9776 12.528 13.1176Z" fill="white"/>
</svg>
