<svg width="28" height="28" viewBox="0 0 28 28" fill="none" xmlns="http://www.w3.org/2000/svg">
<path d="M14.0003 20.2417C15.0506 20.2417 15.902 19.3903 15.902 18.34C15.902 17.2898 15.0506 16.4384 14.0003 16.4384C12.95 16.4384 12.0986 17.2898 12.0986 18.34C12.0986 19.3903 12.95 20.2417 14.0003 20.2417Z" fill="white"/>
<path opacity="0.4" d="M19.4247 11.0133H8.57467C3.79134 11.0133 2.33301 12.4716 2.33301 17.255V19.425C2.33301 24.2083 3.79134 25.6666 8.57467 25.6666H19.4247C24.208 25.6666 25.6663 24.2083 25.6663 19.425V17.255C25.6663 12.4716 24.208 11.0133 19.4247 11.0133ZM13.9997 21.8633C12.0513 21.8633 10.4763 20.2766 10.4763 18.34C10.4763 16.4033 12.0513 14.8166 13.9997 14.8166C15.948 14.8166 17.523 16.4033 17.523 18.34C17.523 20.2766 15.948 21.8633 13.9997 21.8633Z" fill="white"/>
<path d="M8.30619 11.025V9.65998C8.30619 6.24165 9.27452 3.96665 13.9995 3.96665C19.0512 3.96665 19.6929 6.42831 19.6929 8.57498C19.6929 9.02998 20.0545 9.39165 20.5095 9.39165C20.9645 9.39165 21.3262 9.02998 21.3262 8.57498C21.3262 4.43331 18.8645 2.33331 13.9995 2.33331C7.43119 2.33331 6.67285 6.50998 6.67285 9.65998V11.1183C7.16285 11.06 7.71118 11.025 8.30619 11.025Z" fill="white"/>
</svg>
