<svg width="20" height="20" viewBox="0 0 20 20" fill="none" xmlns="http://www.w3.org/2000/svg">
    <path opacity=".4" d="M10 14.458a1.358 1.358 0 1 0 0-2.717 1.358 1.358 0 0 0 0 2.717z" fill="#E0E0E0"/>
    <path d="M13.875 7.866h-7.75c-3.417 0-4.458 1.042-4.458 4.459v1.55c0 3.416 1.041 4.458 4.458 4.458h7.75c3.416 0 4.458-1.042 4.458-4.458v-1.55c0-3.417-1.041-4.459-4.458-4.459zM10 15.616A2.52 2.52 0 0 1 7.483 13.1 2.52 2.52 0 0 1 10 10.583a2.52 2.52 0 0 1 2.517 2.517A2.52 2.52 0 0 1 10 15.616z" fill="#E0E0E0"/>
    <path opacity=".4" d="M5.933 7.875V6.9c0-2.441.692-4.066 4.067-4.066 3.608 0 4.067 1.758 4.067 3.291a.58.58 0 0 0 .583.584.58.58 0 0 0 .583-.584c0-2.958-1.758-4.458-5.233-4.458-4.692 0-5.233 2.983-5.233 5.233v1.042a9.91 9.91 0 0 1 1.166-.067z" fill="#E0E0E0"/>
</svg>
