<svg width="40" height="40" viewBox="0 0 40 40" fill="none" xmlns="http://www.w3.org/2000/svg">
    <path opacity=".4" d="M36.667 13.016v13.967c0 6.067-3.617 9.683-9.684 9.683H13.017c-6.067 0-9.684-3.616-9.684-9.683V13.016c0-.85.067-1.666.217-2.416.85-4.584 4.233-7.25 9.4-7.267h14.1c5.167.017 8.55 2.683 9.4 7.267.15.75.217 1.566.217 2.416z" fill="#000" fill-opacity=".87"/>
    <path d="M36.667 13.016v.084H3.333v-.084c0-.85.067-1.666.217-2.416h9.4V3.333h2.5V10.6h9.1V3.333h2.5V10.6h9.4c.15.75.217 1.566.217 2.416zM24.067 21.2l-3.467-2c-1.283-.733-2.517-.833-3.483-.283-.967.55-1.5 1.683-1.5 3.15v4c0 1.466.533 2.6 1.5 3.15.416.233.883.35 1.366.35.667 0 1.384-.217 2.117-.634l3.467-2c1.283-.733 1.983-1.766 1.983-2.883s-.717-2.1-1.983-2.85z" fill="#000" fill-opacity=".87"/>
</svg>
