<svg width="20" height="20" viewBox="0 0 20 20" fill="none" xmlns="http://www.w3.org/2000/svg">
    <path opacity=".4" d="M10.833 2.708h-5c-2.85 0-3.958 1.109-3.958 3.959v6.667c0 1.916 1.042 3.958 3.958 3.958h5c2.85 0 3.959-1.109 3.959-3.959V6.668c0-2.85-1.109-3.958-3.959-3.958z" fill="#fff"/>
    <path d="M9.583 9.483a1.567 1.567 0 1 0 0-3.133 1.567 1.567 0 0 0 0 3.133zM18.042 5.142c-.342-.175-1.059-.375-2.034.308l-1.233.867c.008.116.017.225.017.35v6.666c0 .125-.017.234-.017.35l1.233.867c.517.367.967.483 1.325.483.309 0 .55-.083.709-.166.341-.175.916-.65.916-1.842V6.983c0-1.191-.575-1.666-.916-1.841z" fill="#fff"/>
</svg>
