<svg width="36" height="36" viewBox="0 0 36 36" fill="none" xmlns="http://www.w3.org/2000/svg">
<path opacity="0.4" d="M31.62 12.8701V23.13C31.62 24.81 30.72 26.3701 29.265 27.2251L20.355 32.3701C18.9 33.2101 17.1 33.2101 15.63 32.3701L6.71997 27.2251C5.26497 26.3851 4.36496 24.825 4.36496 23.13V12.8701C4.36496 11.1901 5.26497 9.62999 6.71997 8.77499L15.63 3.63C17.085 2.79 18.885 2.79 20.355 3.63L29.265 8.77499C30.72 9.62999 31.62 11.1751 31.62 12.8701Z" fill="white" fill-opacity="0.87"/>
<path d="M18 20.625C17.385 20.625 16.875 20.115 16.875 19.5V11.625C16.875 11.01 17.385 10.5 18 10.5C18.615 10.5 19.125 11.01 19.125 11.625V19.5C19.125 20.115 18.615 20.625 18 20.625Z" fill="white" fill-opacity="0.87"/>
<path d="M18 25.8733C17.805 25.8733 17.61 25.8283 17.43 25.7533C17.235 25.6783 17.085 25.5734 16.935 25.4384C16.8 25.2884 16.695 25.1233 16.605 24.9433C16.53 24.7633 16.5 24.5683 16.5 24.3733C16.5 23.9833 16.65 23.5933 16.935 23.3083C17.085 23.1733 17.235 23.0683 17.43 22.9933C17.985 22.7533 18.645 22.8883 19.065 23.3083C19.2 23.4583 19.305 23.6083 19.38 23.8033C19.455 23.9833 19.5 24.1783 19.5 24.3733C19.5 24.5683 19.455 24.7633 19.38 24.9433C19.305 25.1233 19.2 25.2884 19.065 25.4384C18.78 25.7234 18.405 25.8733 18 25.8733Z" fill="white" fill-opacity="0.87"/>
</svg>
