<svg width="14" height="14" viewBox="0 0 14 14" fill="none" xmlns="http://www.w3.org/2000/svg">
<path d="M5.81392 0.0982586C10.0622 -0.601537 13.7505 2.52761 13.9885 6.58738C14.2193 10.5211 10.9435 14 7.0032 14C5.71552 13.9999 4.50478 13.6499 3.46202 13.041L1.173 13.6705C0.655163 13.8173 0.172525 13.3416 0.312485 12.8167L0.935147 10.5001C0.172259 9.17717 -0.177662 7.57382 0.088299 5.87988C0.543314 2.95409 2.88842 0.581229 5.81392 0.0982586ZM4.76339 3.48603C4.50451 3.48608 4.25938 3.59158 4.03547 3.81551C3.84665 3.99043 3.71342 4.18649 3.62948 4.40338C3.54556 4.6133 3.50372 4.84427 3.50372 5.08216C3.50372 5.4461 3.58799 5.83094 3.75592 6.22987C3.92386 6.62876 4.15461 7.02791 4.44147 7.4268C4.73542 7.82579 5.05765 8.21121 5.4216 8.5752C5.78544 8.93207 6.16338 9.26084 6.56918 9.55475C6.96802 9.84166 7.36699 10.0729 7.77281 10.2479C8.17176 10.4229 8.5573 10.507 8.91425 10.507C9.15912 10.5069 9.3899 10.4646 9.59979 10.3737C9.80976 10.2897 9.99895 10.1498 10.1739 9.96079C10.2718 9.84884 10.3488 9.7299 10.4118 9.60397C10.4747 9.47801 10.5027 9.34507 10.5027 9.21912C10.5027 9.12112 10.4817 9.03704 10.4747 8.96005C10.4327 8.87607 10.3695 8.79882 10.2785 8.73584L9.11725 7.91008C9.03326 7.84709 8.94886 7.80495 8.87187 7.76995C8.79501 7.73503 8.72509 7.72144 8.6552 7.72142C8.56422 7.72142 8.48698 7.74898 8.403 7.79798C8.32601 7.83998 8.24177 7.90317 8.15079 7.99416L7.88491 8.26007C7.84296 8.30198 7.80088 8.32296 7.73796 8.32296C7.70306 8.32296 7.67499 8.32326 7.64705 8.30929C7.62608 8.30229 7.60514 8.28826 7.58417 8.28126C7.46519 8.21826 7.31094 8.11329 7.12896 7.9593C6.94001 7.79832 6.75814 7.63013 6.56918 7.44116C6.38727 7.25921 6.21955 7.07009 6.05861 6.88815C5.90468 6.70621 5.79217 6.55939 5.72917 6.44041C5.72217 6.41941 5.71514 6.398 5.70115 6.37C5.69416 6.34207 5.68748 6.31386 5.68748 6.28592C5.68751 6.2301 5.7017 6.18837 5.74352 6.14648L6.0094 5.86621C6.09339 5.78222 6.15657 5.69797 6.20556 5.61398C6.25443 5.53013 6.28206 5.44627 6.28212 5.36242C6.28212 5.29243 6.26858 5.22204 6.23359 5.14505C6.2056 5.0681 6.15641 4.99125 6.09347 4.90033L5.28832 3.7451C5.22534 3.6542 5.14139 3.59088 5.05046 3.54891C4.95954 3.50698 4.8613 3.48603 4.76339 3.48603Z" fill="#128C7E"/>
</svg>
