<svg width="24" height="24" viewBox="0 0 24 24" fill="none" xmlns="http://www.w3.org/2000/svg">
<path d="M10.3005 2.13989C16.3703 1.14014 21.6402 5.61052 21.9802 11.4104C22.3099 17.0302 17.6296 22.0002 11.9997 22.0002C10.1599 22.0002 8.43 21.5 6.94012 20.6301L3.66962 21.5295C2.92974 21.7393 2.24015 21.0597 2.44012 20.3098L3.32977 17.0002C2.23977 15.1102 1.73981 12.8197 2.11981 10.3997C2.76993 6.21979 6.12058 2.82987 10.3005 2.13989ZM8.7995 6.97973C8.42961 6.97981 8.07937 7.13052 7.75946 7.45043C7.48967 7.70034 7.29932 7.98043 7.17938 8.29028C7.05948 8.59017 6.9997 8.92015 6.99969 9.26C6.99969 9.77993 7.12011 10.3297 7.36005 10.8997C7.59999 11.4695 7.92968 12.0398 8.33954 12.6096C8.75954 13.1796 9.21993 13.7302 9.73993 14.2502C10.2598 14.7601 10.7998 15.2298 11.3796 15.6497C11.9494 16.0595 12.5195 16.3899 13.0993 16.6399C13.6693 16.8899 14.2202 17.01 14.7302 17.01C15.08 17.01 15.4098 16.9495 15.7097 16.8196C16.0097 16.6996 16.28 16.4997 16.53 16.2297C16.6699 16.0698 16.7799 15.8999 16.8698 15.72C16.9598 15.54 16.9997 15.3501 16.9997 15.1702C16.9997 15.0302 16.9697 14.91 16.9597 14.8C16.8997 14.6801 16.8094 14.5697 16.6794 14.4797L15.0202 13.3C14.9002 13.21 14.7796 13.1498 14.6696 13.0998C14.5598 13.05 14.4599 13.0305 14.36 13.0305C14.23 13.0305 14.1197 13.0699 13.9997 13.1399C13.8897 13.1999 13.7693 13.2902 13.6393 13.4202L13.2595 13.8C13.1995 13.8599 13.1394 13.8899 13.0495 13.8899C12.9996 13.8899 12.9595 13.8903 12.9196 13.8704C12.8896 13.8604 12.8597 13.8403 12.8298 13.8303C12.6598 13.7403 12.4394 13.5904 12.1794 13.3704C11.9094 13.1404 11.6495 12.9001 11.3796 12.6301C11.1197 12.3702 10.88 12.1 10.6501 11.8401C10.4301 11.5802 10.2694 11.3704 10.1794 11.2004C10.1694 11.1704 10.1593 11.1398 10.1393 11.0998C10.1294 11.0599 10.1198 11.0196 10.1198 10.9797C10.1199 10.9 10.1401 10.8404 10.1999 10.7805L10.5798 10.3801C10.6998 10.2601 10.79 10.1398 10.86 10.0198C10.9299 9.89999 10.9693 9.78017 10.9694 9.66039C10.9694 9.56039 10.9501 9.45985 10.9001 9.34985C10.8601 9.23992 10.7898 9.13013 10.6999 9.00024L9.5495 7.34985C9.45952 7.21999 9.33957 7.12953 9.20966 7.06957C9.07975 7.00967 8.93938 6.97973 8.7995 6.97973Z" fill="white" fill-opacity="0.87"/>
</svg>
