<svg width="8" height="10" viewBox="0 0 8 10" fill="none" xmlns="http://www.w3.org/2000/svg">
<path d="M4.34009 9.35223L3.86409 8.19023C3.73342 7.86357 3.59342 7.58357 3.44409 7.35023C3.30409 7.10757 3.12209 6.9209 2.89809 6.79023C2.67409 6.65957 2.36609 6.59423 1.97409 6.59423H8.5935e-05V5.12423H1.82009C2.00675 5.12423 2.21675 5.1149 2.45009 5.09623C2.69275 5.06823 2.92142 4.99823 3.13609 4.88623C3.36009 4.77423 3.54209 4.58757 3.68209 4.32623C3.82209 4.05557 3.89209 3.68223 3.89209 3.20623C3.89209 2.87023 3.84542 2.5949 3.75209 2.38023C3.65875 2.16557 3.53742 2.00223 3.38809 1.89023C3.23875 1.7689 3.07542 1.6849 2.89809 1.63823C2.72075 1.58223 2.54809 1.54957 2.38009 1.54023C2.21209 1.5309 2.06742 1.52623 1.94609 1.52623V1.03623L4.64809 1.06423V1.72223C4.97475 1.77823 5.23609 1.89023 5.43209 2.05823C5.62809 2.22623 5.76809 2.41757 5.85209 2.63223C5.93609 2.83757 5.97809 3.06157 5.97809 3.30423C5.97809 3.6309 5.92675 3.92957 5.82409 4.20023C5.73075 4.46157 5.57675 4.69957 5.36209 4.91423C5.15675 5.11957 4.88142 5.28757 4.53609 5.41823C4.20009 5.53957 3.78942 5.62823 3.30409 5.68423V5.88023C3.87342 5.90823 4.32609 6.02957 4.66209 6.24423C4.99809 6.44957 5.26409 6.71557 5.46009 7.04223C5.65609 7.35957 5.83342 7.69557 5.99209 8.05023L6.56609 9.35223H4.34009ZM8.5935e-05 3.87823V2.81423H7.11209V3.87823H8.5935e-05ZM8.5935e-05 1.52623V0.000234008H7.11209V1.52623H8.5935e-05Z" fill="white"/>
</svg>
